<?xml version="1.0" encoding="UTF-8" standalone="no"?>
<svg
   version="1.1"
   id="Layer_1"
   x="0px"
   y="0px"
   viewBox="0 0 122.88 122.88"
   style="enable-background:new 0 0 122.88 122.88"
   xml:space="preserve"
   sodipodi:docname="albums-icon.svg"
   inkscape:version="1.2.2 (b0a8486541, 2022-12-01)"
   xmlns:inkscape="http://www.inkscape.org/namespaces/inkscape"
   xmlns:sodipodi="http://sodipodi.sourceforge.net/DTD/sodipodi-0.dtd"
   xmlns="http://www.w3.org/2000/svg"
   xmlns:svg="http://www.w3.org/2000/svg"><defs
     id="defs356" /><sodipodi:namedview
     id="namedview354"
     pagecolor="#ffffff"
     bordercolor="#000000"
     borderopacity="0.25"
     inkscape:showpageshadow="2"
     inkscape:pageopacity="0.0"
     inkscape:pagecheckerboard="0"
     inkscape:deskcolor="#d1d1d1"
     showgrid="false"
     inkscape:zoom="7.0638021"
     inkscape:cx="61.44"
     inkscape:cy="61.44"
     inkscape:window-width="1920"
     inkscape:window-height="1051"
     inkscape:window-x="1920"
     inkscape:window-y="0"
     inkscape:window-maximized="1"
     inkscape:current-layer="Layer_1" /><style
     type="text/css"
     id="style347">.st0{fill-rule:evenodd;clip-rule:evenodd;}</style><g
     id="g351"><path
       class="st0"
       d="M61.44,0c33.93,0,61.44,27.51,61.44,61.44c0,33.93-27.51,61.44-61.44,61.44C27.51,122.88,0,95.37,0,61.44 C0,27.51,27.51,0,61.44,0L61.44,0z M61.44,56.65c2.65,0,4.79,2.15,4.79,4.79c0,2.64-2.14,4.79-4.79,4.79 c-2.64,0-4.79-2.14-4.79-4.79C56.65,58.8,58.8,56.65,61.44,56.65L61.44,56.65z M61.44,41.99c10.74,0,19.45,8.71,19.45,19.45 c0,10.74-8.71,19.45-19.45,19.45C50.7,80.89,42,72.18,42,61.44C42,50.7,50.7,41.99,61.44,41.99L61.44,41.99L61.44,41.99z M13.59,49.95c3.21-8.59,8.3-16.25,14.77-22.48c6.46-6.22,14.3-11.03,23-13.91l1.56,4.72c-8,2.65-15.19,7.06-21.12,12.77 c-5.95,5.73-10.62,12.76-13.56,20.63L13.59,49.95L13.59,49.95z M29.12,53.58c2.01-5.39,5.21-10.21,9.27-14.12 c4.06-3.91,8.98-6.93,14.45-8.73l1.55,4.72c-4.76,1.58-9.03,4.2-12.56,7.59c-3.54,3.41-6.32,7.59-8.07,12.27L29.12,53.58 L29.12,53.58L29.12,53.58z M94.28,68.54c-2.01,5.39-5.21,10.21-9.27,14.12c-4.06,3.91-8.98,6.93-14.45,8.73l-1.55-4.72 c4.76-1.58,9.04-4.19,12.56-7.59c3.54-3.41,6.32-7.59,8.07-12.27L94.28,68.54L94.28,68.54L94.28,68.54z M109.81,72.17 c-3.21,8.58-8.3,16.24-14.77,22.48c-6.46,6.23-14.3,11.03-23,13.91l-1.56-4.72c8-2.65,15.19-7.06,21.12-12.77 c5.95-5.73,10.62-12.76,13.56-20.63L109.81,72.17L109.81,72.17z"
       id="path349" /></g><path
     style="fill:#0000ff;stroke-width:0.666144"
     d="M 57.830046,122.7131 C 39.688175,121.55762 23.074934,112.59365 12.299433,98.146251 4.8423118,88.148012 0.60036957,76.232268 0.16454719,64.058986 -0.15882362,55.026675 1.1678051,47.074139 4.3445691,39.001659 10.806967,22.580048 24.042217,9.7208448 40.692444,3.6865174 50.89218,-0.01004161 62.598286,-0.8964446 73.255995,1.2207588 94.233432,5.388024 111.53883,20.116836 118.99162,40.146847 c 3.76435,10.117009 4.74604,21.3032 2.8253,32.193798 -2.2726,12.885654 -9.02652,25.209323 -18.68549,34.094855 -10.439764,9.6038 -23.390409,15.20624 -37.515209,16.22905 -1.815038,0.13143 -6.068472,0.15795 -7.786175,0.0485 z m 15.97279,-14.69158 c 14.750554,-5.34688 26.974954,-16.429044 33.851934,-30.688852 1.37651,-2.854266 2.26546,-5.057243 2.1032,-5.212077 -0.13463,-0.128464 -4.3288,-1.691098 -4.53897,-1.691098 -0.0788,0 -0.38868,0.621125 -0.68853,1.380277 -0.79689,2.017569 -2.55135,5.531221 -3.8067,7.62365 -4.675174,7.792678 -11.285362,14.436782 -19.040466,19.138165 -2.850365,1.727975 -7.518599,3.942805 -10.050493,4.768415 -1.392361,0.45403 -1.351662,0.19182 -0.450835,2.90455 0.439794,1.32439 0.817727,2.40798 0.839849,2.40798 0.02212,0 0.823578,-0.28395 1.781011,-0.63101 z M 73.616307,90.321101 c 6.543334,-2.738905 12.658306,-7.843463 16.755476,-13.986869 1.632615,-2.447987 4.043596,-7.278696 3.879081,-7.772237 -0.0575,-0.172502 -4.485392,-1.837432 -4.637177,-1.743624 -0.0558,0.03449 -0.215164,0.367385 -0.354136,0.73977 -0.138974,0.372388 -0.665182,1.494029 -1.169354,2.492539 -3.684764,7.297659 -9.823845,12.909691 -17.37757,15.88568 -0.934341,0.368108 -1.721351,0.688699 -1.748911,0.712424 -0.02756,0.02373 0.311128,1.126954 0.75264,2.45162 l 0.802749,2.408482 1.089289,-0.401634 c 0.599108,-0.220899 1.502669,-0.574666 2.007913,-0.786151 z m -8.909825,-9.63966 C 72.304565,79.40604 78.441953,73.724612 80.357026,66.19361 82.607337,57.344291 78.32907,48.054959 70.121754,43.969925 67.369511,42.60005 64.648039,41.974562 61.44,41.974562 c -4.093558,0 -7.824456,1.14743 -11.159173,3.431979 -1.607578,1.101321 -3.90555,3.454047 -5.021783,5.141438 -2.287618,3.458155 -3.268638,6.727189 -3.268638,10.892021 0,4.164832 0.98102,7.433866 3.268638,10.892021 1.114079,1.684134 3.413509,4.039666 5.013174,5.135486 2.2142,1.516795 5.229663,2.759415 7.770178,3.201956 1.645012,0.28655 4.99251,0.292566 6.664086,0.01198 z M 35.184014,52.379724 c 3.788331,-7.830456 10.677486,-13.908548 19.063221,-16.8189 0.212157,-0.07363 0.149313,-0.354638 -0.550588,-2.461972 -0.434545,-1.308368 -0.806097,-2.398429 -0.825671,-2.422357 -0.08395,-0.102616 -2.974683,1.056427 -4.667474,1.871427 -7.406677,3.565975 -13.440171,9.417846 -17.198429,16.680715 -0.914104,1.766515 -2.056275,4.343028 -1.957737,4.416271 0.02456,0.01825 1.095779,0.419571 2.380498,0.891822 l 2.335853,0.858641 0.196494,-0.446072 c 0.108071,-0.24534 0.658796,-1.401649 1.223833,-2.569575 z M 19.177072,49.612607 C 22.2207,42.49988 26.250696,36.604708 31.657093,31.356544 c 4.334225,-4.207373 8.674725,-7.288259 14.06899,-9.986169 2.136869,-1.068742 5.737052,-2.591416 6.69037,-2.829649 0.214856,-0.05369 0.426648,-0.155875 0.470652,-0.227074 0.08194,-0.132582 -1.306731,-4.487759 -1.498042,-4.698188 -0.216282,-0.237894 -4.345968,1.38175 -7.715699,3.026061 -11.826721,5.77103 -21.594648,15.457395 -27.524657,27.294832 -1.17723,2.349977 -2.585763,5.653545 -2.528597,5.930558 0.03902,0.189092 4.283987,1.886814 4.555522,1.821927 0.06922,-0.01654 0.519872,-0.950848 1.00144,-2.076235 z"
     id="path3358" /><path
     style="fill:#0000ff;stroke-width:0.666144"
     d="m 60.365557,66.030182 c -0.900382,-0.215409 -2.048227,-0.981227 -2.636241,-1.758846 -0.741919,-0.98115 -1.003091,-1.841906 -0.937507,-3.089782 0.09288,-1.767208 1.014785,-3.150168 2.630045,-3.945359 0.814596,-0.401023 1.089165,-0.464175 2.018146,-0.464175 0.928981,0 1.20355,0.06315 2.018146,0.464175 1.025611,0.504907 1.745511,1.230652 2.263576,2.281955 0.259596,0.526795 0.3192,0.88566 0.3192,1.92185 0,1.436351 -0.241989,2.106481 -1.139152,3.154614 -0.982516,1.147849 -3.030188,1.795873 -4.536213,1.435568 z"
     id="path3360" /></svg>
