<?xml version="1.0" encoding="UTF-8" standalone="no"?>
<svg
   version="1.1"
   id="Layer_1"
   x="0px"
   y="0px"
   viewBox="0 0 122.88 110.29"
   style="enable-background:new 0 0 122.88 110.29"
   xml:space="preserve"
   sodipodi:docname="artists-icon.svg"
   inkscape:version="1.2.2 (b0a8486541, 2022-12-01)"
   xmlns:inkscape="http://www.inkscape.org/namespaces/inkscape"
   xmlns:sodipodi="http://sodipodi.sourceforge.net/DTD/sodipodi-0.dtd"
   xmlns="http://www.w3.org/2000/svg"
   xmlns:svg="http://www.w3.org/2000/svg"><defs
     id="defs423" /><sodipodi:namedview
     id="namedview421"
     pagecolor="#ffffff"
     bordercolor="#000000"
     borderopacity="0.25"
     inkscape:showpageshadow="2"
     inkscape:pageopacity="0.0"
     inkscape:pagecheckerboard="0"
     inkscape:deskcolor="#d1d1d1"
     showgrid="false"
     inkscape:zoom="7.7341553"
     inkscape:cx="61.609831"
     inkscape:cy="65.424081"
     inkscape:window-width="1920"
     inkscape:window-height="1007"
     inkscape:window-x="0"
     inkscape:window-y="0"
     inkscape:window-maximized="1"
     inkscape:current-layer="Layer_1" /><style
     type="text/css"
     id="style414">.st0{fill-rule:evenodd;clip-rule:evenodd;}</style><g
     id="g418"><path
       className="st0"
       d="M7.59,71.54l1.6-8.71c1.38-0.13,2.72-0.38,4.04-0.76c1.36-0.39,2.69-0.89,3.99-1.49l5.66,6.86L7.59,71.54 L7.59,71.54L7.59,71.54z M122.88,35.63c-3.17,6.17,2.45,14.47-3.99,19.02c-1.71,1.21-4.2,1.78-6.33,1.24 c-0.86-0.22-1.65-0.61-2.3-1.21c-0.29-0.26-0.55-0.57-0.79-0.91c-2.96-4.25-0.48-9.5,2.99-12.61 C115.66,38.3,119.93,36.63,122.88,35.63L122.88,35.63L122.88,35.63z M96.55,68.44c2.94,2.74,6.15,4.73,9.67,5.88l-6.06,8.64 c2.29,0.64,4.28,1.32,5.74,2.14c2.12,1.18,4.04,2.69,5.58,4.72c3.21,4.24,9.79,19.65-0.88,20.46H5.84 c-10.66-0.81-4.09-16.22-0.88-20.46c1.54-2.04,3.46-3.54,5.58-4.72c0.18-0.1,0.36-0.2,0.55-0.29L8.05,73.43h0l15.36-4.12 l3.01,11.22c6.03-1.41,11.94-3.05,14.95-5.76h0c5.51,16.21,28.53,16.81,33.7,0c3.04,2.74,9.06,4.38,15.15,5.81L96.55,68.44 L96.55,68.44L96.55,68.44z M107.21,56.09c0.92,1.24,2.98,2.82,4.98,2.97l-5.01,13.53c-3.86-1.27-7.28-3.12-9.93-5.95 C101.18,62.7,103.57,60.45,107.21,56.09L107.21,56.09L107.21,56.09z M13.12,83.95c0.74-0.27,1.53-0.52,2.38-0.77l-2.1-7.84 c-0.18-0.66-0.87-1.06-1.53-0.88c-0.66,0.18-1.06,0.87-0.88,1.53L13.12,83.95L13.12,83.95z M17.46,82.64 c0.78-0.2,1.59-0.4,2.42-0.6l-2.11-7.87c-0.18-0.66-0.87-1.06-1.53-0.88c-0.66,0.18-1.06,0.87-0.88,1.53L17.46,82.64L17.46,82.64z M21.87,81.58l2.43-0.56L22.15,73c-0.18-0.66-0.87-1.06-1.53-0.88c-0.66,0.18-1.06,0.87-0.88,1.53L21.87,81.58L21.87,81.58z M9.73,59.87l1.26-6.85l4.33,5.25c-0.94,0.4-1.9,0.75-2.87,1.02C11.56,59.55,10.65,59.75,9.73,59.87L9.73,59.87L9.73,59.87z M37.14,41.18c-1.15,0.04-2.03,0.28-2.63,0.69c-0.34,0.23-0.59,0.52-0.75,0.87c-0.18,0.39-0.26,0.86-0.25,1.4 c0.05,1.59,0.88,3.66,2.48,6.05l0.02,0.03l0,0l5.21,8.29c2.09,3.32,4.28,6.71,7,9.2c2.62,2.39,5.79,4.01,9.99,4.02 c4.55,0.01,7.87-1.67,10.57-4.2c2.81-2.63,5.02-6.23,7.21-9.83l5.87-9.67c1.09-2.5,1.49-4.17,1.24-5.15 c-0.15-0.58-0.79-0.87-1.89-0.92c-0.23-0.01-0.47-0.01-0.71-0.01c-0.26,0.01-0.54,0.03-0.82,0.05c-0.16,0.01-0.31,0-0.45-0.03 c-0.52,0.03-1.06-0.01-1.61-0.09l2.01-8.9c-14.92,2.35-26.07-8.73-41.84-2.22l1.14,10.49C38.31,41.29,37.7,41.26,37.14,41.18 L37.14,41.18L37.14,41.18z M83.23,39.31c1.44,0.44,2.37,1.36,2.75,2.84c0.42,1.64-0.04,3.96-1.43,7.12l0,0 c-0.03,0.06-0.05,0.11-0.09,0.17l-5.94,9.78c-2.29,3.77-4.61,7.55-7.71,10.45c-3.21,3.01-7.17,5.01-12.58,4.99 c-5.05-0.01-8.86-1.94-11.98-4.8c-3.01-2.76-5.32-6.31-7.51-9.8l-5.21-8.28c-1.91-2.84-2.9-5.44-2.96-7.57 c-0.03-1,0.14-1.91,0.51-2.71c0.39-0.84,0.99-1.54,1.79-2.08c0.38-0.25,0.8-0.47,1.26-0.64c-0.34-4.49-0.46-10.16-0.25-14.9 c0.11-1.12,0.33-2.25,0.64-3.37c1.33-4.76,4.67-8.59,8.8-11.22c2.28-1.45,4.78-2.55,7.38-3.28c1.65-0.47-1.41-5.76,0.3-5.93 c8.27-0.85,21.66,6.7,27.43,12.95c2.89,3.13,4.71,7.28,5.1,12.77L83.23,39.31L83.23,39.31L83.23,39.31z"
       id="path416" /></g><path
     style="fill:#0000ff;stroke-width:0.608407"
     d="m 8.4515959,67.201909 c 0.4246634,-2.328956 0.777958,-4.24528 0.7850994,-4.2585 0.00714,-0.01322 0.5937001,-0.116612 1.3034637,-0.22976 1.768067,-0.281861 3.473535,-0.754716 5.209048,-1.444251 l 1.461932,-0.58084 0.239094,0.299015 c 0.131501,0.164459 1.372198,1.666328 2.757104,3.337486 1.384906,1.671159 2.50752,3.051055 2.494696,3.066437 -0.0173,0.02075 -14.9520591,4.044876 -15.0117713,4.044876 -0.00593,0 0.3366708,-1.905508 0.7613342,-4.234463 z"
     id="path3334" /><path
     style="fill:#0000ff;stroke-width:0.608407"
     d="m 9.8763106,59.452233 c 0.040635,-0.200027 0.3138474,-1.672814 0.6071384,-3.27286 0.293291,-1.600045 0.54314,-2.92017 0.55522,-2.93361 0.05158,-0.05739 4.009583,4.842159 3.998002,4.949067 -0.02725,0.251557 -3.052605,1.229919 -4.737324,1.531991 -0.4909637,0.08803 -0.4960336,0.08474 -0.4230364,-0.274588 z"
     id="path3336" /><path
     style="fill:#0000ff;stroke-width:0.608407"
     d="M 4.4207284,109.96401 C 2.1749708,109.37455 0.91044519,108.11837 0.32360924,105.89392 0.02375645,104.7573 0.05457882,102.47637 0.39349691,100.72205 1.0731336,97.204104 3.1033969,92.446842 5.0043536,89.918012 c 1.2836606,-1.707646 3.1204377,-3.309289 5.1777534,-4.514925 0.515571,-0.302137 0.937401,-0.595375 0.937401,-0.651641 0,-0.05627 -0.665922,-2.595162 -1.4798265,-5.641991 -0.8139044,-3.046829 -1.4393767,-5.574922 -1.3899385,-5.617984 0.049438,-0.04306 2.766327,-0.793655 6.037531,-1.667985 3.271204,-0.874329 6.651437,-1.777847 7.511626,-2.007816 l 1.563982,-0.418127 1.465463,5.477892 c 0.806006,3.01284 1.500402,5.534423 1.543105,5.603517 0.04679,0.07571 1.000722,-0.105203 2.401012,-0.455366 5.810222,-1.452932 9.228803,-2.749119 11.585667,-4.392815 l 0.987315,-0.688561 0.227786,0.606744 c 0.817196,2.176725 2.25108,4.410405 3.965607,6.177557 2.593761,2.673371 5.570567,4.308517 9.323209,5.121195 1.774969,0.384391 5.405271,0.412838 7.071026,0.05541 3.566546,-0.76529 6.382837,-2.240758 8.732012,-4.574745 1.942819,-1.930257 3.356055,-4.250779 4.370035,-7.175563 0.06836,-0.197172 0.168712,-0.15781 0.761278,0.2986 0.896578,0.690565 3.950588,2.188178 5.660462,2.775753 2.472651,0.849693 8.716662,2.528061 8.838555,2.375773 0.02252,-0.02813 1.308601,-2.494857 2.857961,-5.481609 1.549361,-2.986751 2.961167,-5.683724 3.137349,-5.993272 l 0.320333,-0.562815 0.471614,0.446237 c 2.038533,1.928839 5.708859,4.186268 8.265279,5.083554 0.37529,0.131725 0.65906,0.300162 0.63061,0.374305 -0.0285,0.07414 -1.37326,2.015933 -2.98845,4.315089 -1.61519,2.299156 -2.91717,4.19254 -2.8933,4.207519 0.0239,0.01498 0.97434,0.332306 2.11215,0.705171 3.45861,1.133394 5.46974,2.320466 7.6997,4.544744 1.55607,1.552116 2.28791,2.596329 3.49094,4.980993 2.00546,3.975248 3.1006,8.10791 2.92949,11.05486 -0.17141,2.95201 -1.37292,4.69813 -3.84105,5.58202 l -0.84042,0.30097 -53.140908,0.0257 C 6.4889293,110.2115 5.345835,110.2068 4.4207284,109.96402 Z M 14.512333,83.574819 c 0.550461,-0.169295 1.002289,-0.365991 1.004061,-0.437104 0.0018,-0.07111 -0.473196,-1.92055 -1.055487,-4.10986 -1.190502,-4.476087 -1.259259,-4.617661 -2.242573,-4.617661 -0.6602,0 -1.172469,0.357343 -1.291921,0.901205 -0.05898,0.268557 0.207001,1.478628 0.902012,4.103591 1.252899,4.732035 1.20986,4.599552 1.470612,4.526862 0.116852,-0.03257 0.662835,-0.19774 1.213296,-0.367033 z m 4.20335,-1.171603 c 0.657796,-0.157369 1.195994,-0.341303 1.195994,-0.408744 0,-0.17095 -2.074129,-7.873175 -2.163655,-8.034679 -0.459242,-0.828466 -1.460973,-0.987431 -2.113079,-0.335324 -0.20787,0.207869 -0.380734,0.513332 -0.384145,0.678807 -0.0071,0.344018 2.105731,8.379947 2.204243,8.38364 0.03556,0.0013 0.602846,-0.126332 1.260642,-0.2837 z m 4.590029,-1.089019 c 0.732257,-0.166512 1.000684,-0.282417 0.996979,-0.43049 -0.0028,-0.111445 -0.488661,-1.993318 -1.079717,-4.18194 -1.220402,-4.519034 -1.269876,-4.618912 -2.287969,-4.618912 -0.525167,0 -0.660156,0.0567 -0.947187,0.39781 -0.190853,0.226817 -0.334735,0.558162 -0.334735,0.770863 0,0.2929 1.871423,7.522152 2.134773,8.24657 0.0341,0.09379 0.164104,0.142057 0.288901,0.107249 0.124799,-0.03481 0.677829,-0.165826 1.228955,-0.29115 z"
     id="path3338" /><path
     style="fill:#0000ff;stroke-width:0.608407"
     d="m 105.69997,71.968676 c -2.88307,-1.101623 -5.48629,-2.658925 -7.305518,-4.370324 l -1.048164,-0.986037 3.411202,-3.438643 c 1.87616,-1.891253 4.0401,-4.165936 4.80876,-5.05485 0.76866,-0.888914 1.44821,-1.671945 1.51012,-1.740069 0.0688,-0.07565 0.3764,0.133497 0.79035,0.537311 0.88615,0.864444 2.05313,1.601159 3.01119,1.900957 0.42334,0.132474 0.86284,0.276853 0.97667,0.320842 0.17403,0.06726 -0.18415,1.134196 -2.25142,6.706431 -1.35212,3.644548 -2.49255,6.624645 -2.53431,6.622438 -0.0417,-0.0022 -0.65775,-0.226333 -1.36888,-0.498056 z"
     id="path3340" /><path
     style="fill:#0000ff;stroke-width:0.608407"
     d="m 112.77911,55.862591 c -1.6973,-0.38675 -3.01671,-1.493792 -3.83451,-3.217323 -0.74109,-1.561858 -0.9093,-3.08173 -0.52471,-4.740877 0.94966,-4.09688 4.09084,-7.503573 9.28586,-10.070756 1.37526,-0.679607 4.87631,-2.117337 4.95773,-2.035925 0.0148,0.01481 -0.1094,0.402988 -0.27602,0.862616 -0.54192,1.494881 -0.64217,2.5858 -0.51481,5.601852 0.0635,1.503172 0.11589,3.780342 0.11648,5.060378 10e-4,2.100659 -0.0295,2.426575 -0.3131,3.34621 -0.73117,2.371142 -2.54301,4.169442 -4.97571,4.938506 -1.29411,0.409114 -2.8124,0.507974 -3.92121,0.255319 z"
     id="path3342" /><path
     style="fill:#0000ff;stroke-width:0.608407"
     d="M 55.228196,74.332029 C 51.134043,73.645641 47.227797,71.22824 44.003965,67.385848 42.044285,65.050164 41.168691,63.76017 36.265827,55.985428 31.30906,48.125207 30.71553,46.847398 30.710561,44.025493 c -0.0025,-1.403863 0.02024,-1.535149 0.406544,-2.350562 0.523539,-1.105077 1.260435,-1.900122 2.250011,-2.427561 l 0.784913,-0.418354 -0.105836,-2.282708 c -0.05821,-1.25549 -0.105835,-4.726414 -0.105835,-7.713166 0,-4.725568 0.0303,-5.57939 0.233442,-6.577835 0.753622,-3.704083 2.320393,-6.66253 4.993982,-9.429863 2.711315,-2.806381 6.090068,-4.9006647 10.148967,-6.2907269 0.847909,-0.2903861 1.61884,-0.5920338 1.71318,-0.6703282 0.272605,-0.2262423 0.205565,-1.5122372 -0.160135,-3.0717937 -0.60759,-2.59111595 -0.468479,-2.78223343 1.947868,-2.67606293 1.651812,0.072578 2.950348,0.27127857 4.705797,0.72007606 6.892311,1.76208427 15.804863,6.95493647 20.559539,11.97890967 3.002571,3.172631 4.701357,6.969579 5.228498,11.686188 0.146093,1.307185 0.120097,4.715166 -0.0933,12.230326 l -0.07376,2.597729 0.656749,0.307606 c 0.840374,0.393609 1.708816,1.357677 2.005434,2.226256 0.475846,1.393404 0.144028,3.753 -0.885844,6.299361 -0.56502,1.397014 -7.702314,13.20997 -9.843115,16.291372 -4.100024,5.901441 -8.443725,9.038598 -13.69378,9.890071 -1.48854,0.241418 -4.680069,0.234989 -6.155686,-0.0124 z m 4.765427,-2.641379 c 5.252777,-0.552215 9.158422,-3.382003 13.374258,-9.690154 0.595096,-0.890441 2.77589,-4.406297 4.846207,-7.813014 2.90212,-4.775448 3.870356,-6.477416 4.227661,-7.431389 0.901452,-2.406801 1.019246,-3.879801 0.352222,-4.404483 -0.437737,-0.344323 -0.804392,-0.396252 -3.039522,-0.430479 -1.042994,-0.01597 -1.927318,-0.06001 -1.965165,-0.09785 -0.03784,-0.03785 0.374587,-2.030331 0.916517,-4.427744 0.54193,-2.397413 0.953639,-4.390621 0.914909,-4.42935 -0.03873,-0.03873 -0.470554,-0.0037 -0.959611,0.07778 -0.489057,0.08151 -1.965588,0.150691 -3.28118,0.153735 -3.892729,0.009 -6.117037,-0.358964 -13.511495,-2.235206 -7.835904,-1.988254 -10.453412,-2.401032 -14.48122,-2.283674 -2.515832,0.0733 -4.485523,0.357153 -6.46483,0.93164 -1.774674,0.515093 -3.056235,0.993325 -3.122139,1.165068 -0.03266,0.0851 0.176451,2.316863 0.464684,4.959467 0.288234,2.642604 0.524061,4.94303 0.524061,5.112056 0,0.304466 -0.01479,0.307742 -1.593258,0.352938 -1.469274,0.04207 -1.652125,0.07581 -2.349709,0.43351 -0.99572,0.510582 -1.358193,1.147129 -1.358193,2.385157 0,2.059505 0.594574,3.288142 4.933797,10.195273 4.912907,7.820313 5.978255,9.388572 7.908341,11.641566 3.828918,4.469505 8.337793,6.395047 13.663665,5.835148 z"
     id="path3344" /><path
     style="fill:#008000;stroke-width:0.608407"
     d="M 4.9654927,109.9708 C 4.0006454,109.86021 2.6760889,109.25927 1.9486659,108.60209 0.54297423,107.33213 -0.01515321,105.28613 0.25428614,102.39078 0.50469965,99.699878 1.4001223,96.83734 3.0411916,93.481443 4.8753009,89.730791 6.344634,88.034086 9.664921,85.832728 c 0.832554,-0.551985 1.454587,-1.051753 1.454587,-1.168677 0,-0.112355 -0.551109,-2.305432 -1.2246869,-4.873504 C 9.2212435,77.222475 8.5876734,74.7632 8.4868876,74.325491 L 8.3036407,73.529656 9.9378434,73.073962 C 13.266023,72.145905 23.302574,69.483458 23.32816,69.521844 c 0.01456,0.02185 0.509371,1.855364 1.099573,4.074476 0.590203,2.219111 1.257007,4.691909 1.481789,5.495105 l 0.408694,1.460358 0.44936,-0.04422 c 0.711801,-0.07005 4.85696,-1.136359 6.67735,-1.71769 3.169349,-1.012112 5.528446,-2.079698 7.140231,-3.23124 l 0.697155,-0.498083 0.414629,0.953791 c 1.018838,2.34368 2.263548,4.187341 4.01558,5.947866 2.314648,2.325866 4.657865,3.691422 7.992417,4.657738 2.301274,0.666882 6.557402,0.771889 8.809969,0.217358 5.794267,-1.426418 9.999889,-5.114491 12.216522,-10.713145 l 0.422022,-1.065918 0.598096,0.42942 c 0.819616,0.588466 1.771993,1.103611 3.498515,1.892362 1.701858,0.777483 2.877645,1.175485 6.344289,2.147533 3.093898,0.867529 4.607384,1.191707 4.764313,1.020482 0.06328,-0.06905 1.466529,-2.71471 3.118322,-5.879244 1.651793,-3.164535 3.041278,-5.793163 3.087743,-5.841396 0.04646,-0.04823 0.491765,0.260922 0.989557,0.687011 1.86774,1.598706 4.849584,3.441638 6.982014,4.315242 0.64002,0.2622 1.20755,0.517784 1.26118,0.567966 0.0536,0.05018 -1.21186,1.971685 -2.8122,4.270007 -1.60034,2.298323 -2.90971,4.222224 -2.90971,4.275335 0,0.05311 0.8873,0.401862 1.97177,0.775 3.28038,1.128692 4.91535,2.013698 6.91059,3.740689 1.98925,1.721814 3.12142,3.270977 4.56924,6.252157 1.7457,3.594543 2.56215,6.450086 2.67006,9.338586 0.0521,1.39394 0.0203,2.01109 -0.13833,2.68406 -0.43732,1.85561 -1.33481,2.98371 -3.03494,3.81478 l -0.98845,0.48318 -53.140908,0.0149 c -29.227497,0.008 -53.4955959,-0.0258 -53.9291093,-0.0755 z M 14.474545,83.649276 c 0.90019,-0.28437 1.041047,-0.368643 1.041047,-0.622844 0,-0.532986 -1.931294,-7.472884 -2.2313,-8.017933 -0.283882,-0.515757 -0.317824,-0.534933 -1.011928,-0.571735 -0.633265,-0.03358 -0.759185,0.0029 -1.064822,0.308549 -0.202625,0.202624 -0.346627,0.489839 -0.346627,0.691351 0,0.518731 1.68336,7.204597 2.070029,8.221613 0.151351,0.398084 0.256898,0.397469 1.543601,-0.009 z m 4.426278,-1.236857 c 0.675174,-0.182181 1.010854,-0.335411 1.010854,-0.461431 0,-0.426429 -1.980613,-7.781006 -2.21177,-8.212927 -0.186336,-0.34817 -0.940191,-0.644676 -1.3773,-0.541719 -0.544681,0.128294 -1.065608,0.680697 -1.065608,1.129995 0,0.400559 0.684945,3.209361 1.560102,6.397617 0.279754,1.019164 0.508644,1.87737 0.508644,1.907125 0,0.12417 0.627245,0.03709 1.575078,-0.21866 z m 4.396084,-1.034372 c 0.828066,-0.223436 1.010854,-0.318907 1.010854,-0.527969 0,-0.474339 -1.76821,-7.044903 -2.12102,-7.881587 -0.306653,-0.727222 -0.531332,-0.885635 -1.256101,-0.885635 -0.809962,0 -1.27816,0.421887 -1.276485,1.150225 0.001,0.436204 0.782103,3.641974 1.696597,6.963136 0.461143,1.674728 0.356024,1.610893 1.946155,1.18183 z"
     id="path6748" /><path
     style="fill:#008000;stroke-width:0.608407"
     d="m 7.8164756,71.031778 c 0.039295,-0.168595 0.3632437,-1.935674 0.719885,-3.926842 0.3566412,-1.991167 0.6990503,-3.739677 0.7609089,-3.885578 0.090684,-0.213889 0.321894,-0.299096 1.1936235,-0.439885 1.582035,-0.255506 3.662749,-0.825906 5.187752,-1.422152 0.736093,-0.287798 1.393274,-0.520824 1.460402,-0.517835 0.127283,0.0057 5.239346,6.166396 5.321651,6.413311 0.02606,0.07819 -0.286479,0.227146 -0.701498,0.334336 -0.411677,0.106327 -3.570401,0.954338 -7.019387,1.88447 -3.448987,0.930131 -6.4337627,1.730649 -6.6328347,1.778929 -0.3308163,0.08023 -0.3558037,0.06141 -0.2905027,-0.218754 z"
     id="path6750" /><path
     style="fill:#008000;stroke-width:0.608407"
     d="m 9.951581,59.573409 c -0.014066,-0.320379 1.116722,-6.104126 1.188187,-6.077334 0.09479,0.03554 2.357565,2.781645 3.28232,3.983434 l 0.571696,0.742962 -0.825325,0.3304 c -0.879396,0.352046 -3.608546,1.116986 -3.986352,1.117314 -0.124448,1.08e-4 -0.2281845,-0.04344 -0.230526,-0.09678 z"
     id="path6752" /><path
     style="fill:#008000;stroke-width:0.608407"
     d="M 54.944766,74.2102 C 52.854464,73.831574 50.228444,72.666873 48.183873,71.211585 46.82851,70.246862 44.538992,67.982697 43.184222,66.2673 41.092368,63.61861 34.042795,52.55644 32.182492,49.003412 31.036425,46.814518 30.840769,46.09907 30.838848,44.090141 c -0.0015,-1.581739 0.01979,-1.724431 0.361229,-2.419833 0.470688,-0.958635 1.2558,-1.795579 2.217577,-2.363978 l 0.770261,-0.455216 -0.05913,-1.711923 c -0.03252,-0.941557 -0.05869,-4.562912 -0.05815,-8.047456 l 9.83e-4,-6.335533 0.348325,-1.305707 c 0.905228,-3.393285 2.29455,-5.898325 4.653903,-8.391308 2.702561,-2.855628 5.702137,-4.757021 10.102753,-6.4040046 l 1.960207,-0.7336315 0.0376,-0.9052733 C 51.197866,4.4515759 51.112741,3.6561602 50.94814,2.9019836 50.622234,1.4087311 50.609505,0.6750692 50.904388,0.38018629 51.097923,0.18665094 51.343863,0.16847258 52.940809,0.2296669 c 2.568212,0.0984129 5.153807,0.68200026 8.151835,1.8399278 7.839862,3.0279874 15.603801,8.4479643 18.812692,13.1330683 0.901831,1.316709 1.900728,3.332398 2.374185,4.790902 0.944612,2.909928 1.131337,5.184683 0.975016,11.878047 -0.05398,2.311177 -0.102343,4.938425 -0.10748,5.838329 l -0.0093,1.636189 0.686506,0.38744 c 0.807899,0.45595 1.443539,1.140177 1.818974,1.958015 0.397502,0.865904 0.359642,2.625505 -0.09333,4.338005 -0.475062,1.795988 -1.311056,3.415049 -4.506413,8.727521 -4.885118,8.121798 -6.719903,10.862051 -8.820789,13.173846 -3.221329,3.544722 -6.531121,5.515578 -10.539697,6.275992 -1.354184,0.256884 -5.32736,0.258802 -6.738196,0.0032 z m 6.897848,-2.763208 c 4.279931,-0.98095 7.859207,-3.868012 11.458038,-9.242106 1.771822,-2.645841 7.883432,-12.731428 8.704914,-14.365143 0.958338,-1.905888 1.479289,-4.269148 1.128018,-5.117189 -0.266811,-0.644139 -0.785067,-0.784324 -3.193711,-0.863886 -1.156826,-0.03821 -2.103319,-0.09057 -2.103319,-0.116347 0,-0.02578 0.375645,-1.77722 0.834766,-3.892092 0.459121,-2.114872 0.875306,-4.10166 0.924856,-4.415086 l 0.09009,-0.569863 -0.698587,0.08438 c -1.597528,0.192969 -4.424797,0.238571 -6.164905,0.09944 -2.548407,-0.203764 -4.560072,-0.596724 -10.631108,-2.076697 -8.299284,-2.023166 -9.276649,-2.197379 -12.881901,-2.296168 -2.788696,-0.07641 -4.677757,0.05804 -6.771183,0.481955 -1.496307,0.302998 -4.388356,1.228018 -4.646529,1.486191 -0.164329,0.164328 -0.122614,0.8166 0.332598,5.20062 0.286272,2.756998 0.480486,5.059686 0.431588,5.117083 -0.0489,0.0574 -0.780874,0.151116 -1.626614,0.208265 -1.642469,0.110984 -2.061735,0.225104 -2.746847,0.747664 -0.595758,0.454406 -0.794958,1.007977 -0.794958,2.209155 0,2.104269 0.683007,3.478451 5.604694,11.276425 4.804571,7.612414 5.922283,9.187326 8.130096,11.455729 2.642388,2.714903 5.20239,4.160543 8.439577,4.765851 1.436635,0.268632 4.633025,0.17648 6.180427,-0.178181 z"
     id="path6754" /><path
     style="fill:#008000;stroke-width:0.608407"
     d="m 105.87842,71.962209 c -2.69711,-1.001847 -5.6047,-2.735331 -7.399671,-4.411634 l -0.987052,-0.921797 3.470653,-3.576171 c 3.45943,-3.564604 4.45264,-4.622755 5.60284,-5.969176 l 0.60662,-0.710113 0.4924,0.46255 c 1.11196,1.044551 2.43654,1.84662 3.62784,2.196754 0.30223,0.08883 0.54951,0.205551 0.54951,0.259384 0,0.446728 -4.66509,12.948292 -4.85131,13.0006 -0.0696,0.01956 -0.56996,-0.129118 -1.11183,-0.330397 z"
     id="path6756" /><path
     style="fill:#008080;stroke-width:0.608407"
     d="m 112.69721,55.776964 c -0.74015,-0.173759 -1.91813,-0.840272 -2.44572,-1.383819 -1.17536,-1.210891 -1.913,-3.041635 -1.91354,-4.74917 -8.6e-4,-2.731884 1.24178,-5.321413 3.75264,-7.820087 1.49926,-1.491988 3.43504,-2.818009 5.75887,-3.94487 1.62139,-0.786231 4.60162,-2.03511 4.67687,-1.959861 0.02,0.02002 -0.12126,0.499362 -0.31395,1.065217 l -0.35033,1.028827 v 5.947644 c 0,5.879304 -0.003,5.957584 -0.2989,6.812695 -0.84505,2.445717 -2.81657,4.230434 -5.40431,4.892267 -1.05416,0.269608 -2.57821,0.318547 -3.46163,0.111157 z"
     id="path6758" /><path
     style="fill:#008080;stroke-width:0.608407"
     d="M 4.3846832,109.77999 C 2.8370802,109.35307 1.5013386,108.2972 0.90563159,107.02988 -0.48427457,104.07299 0.42066852,98.84542 3.3069564,93.158202 4.9923979,89.837162 6.3213754,88.291073 9.3135515,86.170327 10.49407,85.333617 11.067838,84.846848 11.095159,84.658859 11.117323,84.506348 10.552564,82.09437 9.8401394,79.298908 9.1277144,76.503446 8.5101941,74.069403 8.467872,73.889923 8.3954585,73.582832 8.4389492,73.550366 9.2057047,73.339138 15.271651,71.668068 23.189997,69.623845 23.26384,69.709849 c 0.05209,0.06067 0.686324,2.321288 1.409403,5.023587 0.723078,2.702299 1.377403,5.137409 1.454055,5.411355 l 0.139369,0.498084 0.60443,-0.08845 c 0.834584,-0.122135 4.700201,-1.121957 6.422778,-1.661219 3.068109,-0.960488 5.508264,-2.032639 7.088589,-3.114572 l 0.851345,-0.582853 0.583648,1.232094 c 1.177604,2.485945 2.447566,4.252666 4.332193,6.026774 2.010313,1.892424 4.012499,3.068505 6.73266,3.954749 1.801001,0.586778 2.516164,0.691107 5.236513,0.763913 2.722122,0.07285 3.944781,-0.07022 5.818347,-0.680837 4.94806,-1.612638 8.644734,-5.057024 10.677601,-9.948883 0.295518,-0.711131 0.546055,-1.303784 0.556748,-1.317007 0.01069,-0.01322 0.425603,0.239022 0.922024,0.560545 2.517565,1.63058 5.945946,2.926424 11.433383,4.321536 2.108779,0.536131 2.737622,0.609927 2.949646,0.346149 0.07145,-0.08889 1.335227,-2.459868 2.808392,-5.268837 2.960573,-5.645095 3.268823,-6.207231 3.40202,-6.204055 0.05034,0.0012 0.527899,0.354374 1.061247,0.784831 1.940171,1.565879 4.523309,3.140982 6.765099,4.125104 0.55627,0.244197 1.04179,0.493172 1.07894,0.553279 0.0811,0.131175 0.0145,0.234327 -3.07822,4.768038 -1.34117,1.966062 -2.43848,3.632612 -2.43848,3.703444 0,0.149179 -0.074,0.117228 2.19804,0.94912 3.5604,1.303618 5.51585,2.488128 7.63302,4.623687 1.29382,1.305063 2.29938,2.768839 3.35698,4.886701 1.39783,2.799193 2.23713,5.196596 2.63628,7.530334 0.2535,1.4821 0.27051,4.09757 0.0324,4.98746 -0.43594,1.62955 -1.41544,2.79393 -3.0374,3.61074 l -0.91762,0.4621 -53.499694,-0.0116 c -42.726335,-0.009 -53.6191582,-0.0445 -54.0929328,-0.17521 z M 14.610516,83.674482 c 0.78204,-0.26708 0.843252,-0.316037 0.881083,-0.704677 0.03997,-0.410581 -1.038587,-4.58914 -1.790048,-6.935045 -0.210661,-0.65764 -0.489643,-1.292201 -0.61996,-1.410137 -0.161284,-0.14596 -0.468085,-0.214429 -0.960831,-0.214429 -0.628029,0 -0.759377,0.04511 -0.991868,0.340679 -0.159791,0.203142 -0.267977,0.530957 -0.267977,0.812 0,0.454975 1.229065,5.559657 1.800462,7.47787 0.272425,0.914542 0.289347,0.937197 0.693973,0.92908 0.228106,-0.0046 0.792931,-0.13748 1.255166,-0.295341 z m 4.447113,-1.253093 c 1.002946,-0.309778 1.006279,-0.321021 0.586333,-1.97736 -0.54923,-2.166261 -1.676013,-6.181677 -1.854615,-6.609133 -0.331138,-0.792523 -1.547837,-0.938153 -2.220241,-0.265748 -0.470279,0.470278 -0.410092,0.989522 0.544032,4.693454 0.470877,1.827955 0.917055,3.570834 0.991508,3.873064 0.129072,0.523949 0.157781,0.549511 0.617152,0.549511 0.264982,0 0.866105,-0.118705 1.335831,-0.263788 z m 4.412866,-1.039556 0.870828,-0.268972 -0.07627,-0.643981 c -0.08247,-0.696318 -1.458863,-5.896475 -1.892138,-7.148692 -0.376412,-1.087873 -0.546274,-1.237332 -1.406247,-1.237332 -0.957542,0 -1.314267,0.313746 -1.311954,1.153883 0.0025,0.924962 1.757391,7.846925 2.091355,8.249327 0.195904,0.236049 0.726574,0.203972 1.724426,-0.104233 z"
     id="path6778" /><path
     style="fill:#008080;stroke-width:0.608407"
     d="m 7.8879951,71.080807 c 0.00518,-0.556706 1.4525478,-7.747424 1.5863562,-7.881232 0.097331,-0.09733 0.9000467,-0.323422 1.7838127,-0.502424 0.883766,-0.179002 2.554696,-0.644307 3.713177,-1.034011 1.158482,-0.389704 2.162655,-0.673741 2.231497,-0.631195 0.136948,0.08464 4.251572,5.006695 4.823838,5.770442 0.195022,0.260277 0.305462,0.50359 0.245423,0.540696 -0.132845,0.0821 -14.090242,3.834696 -14.2627682,3.834696 -0.067231,0 -0.121832,-0.04364 -0.1213357,-0.09697 z"
     id="path6780" /><path
     style="fill:#008080;stroke-width:0.608407"
     d=""
     id="path6782" /><path
     style="fill:#008080;stroke-width:0.608407"
     d="m 10.085135,59.299768 c 0,-0.234986 0.41742,-2.505217 0.850065,-4.623266 l 0.214548,-1.050333 0.42112,0.468498 c 0.231617,0.257675 1.071822,1.282238 1.867123,2.276808 l 1.446003,1.80831 -0.546735,0.232199 c -0.745777,0.316732 -3.592859,1.129101 -3.957122,1.129101 -0.201765,0 -0.295002,-0.07627 -0.295002,-0.241317 z"
     id="path6784" /><path
     style="fill:#008080;stroke-width:0.608407"
     d="M 54.692463,74.08001 C 52.90694,73.696891 50.374312,72.589057 48.702792,71.459982 47.024057,70.326033 44.69729,68.062467 43.096442,66.005915 40.776191,63.025172 33.719614,51.851386 32.008232,48.44821 c -0.866551,-1.723185 -1.101058,-2.690105 -1.103997,-4.552014 -0.002,-1.238511 0.03145,-1.42862 0.380753,-2.166982 0.442071,-0.934455 1.342541,-1.892037 2.26871,-2.412604 l 0.645253,-0.362673 -0.04391,-8.066127 -0.04391,-8.066127 0.403273,-1.415843 c 1.000998,-3.514374 2.255844,-5.756758 4.651577,-8.312279 2.583305,-2.755602 5.806442,-4.7748293 10.386948,-6.5072027 l 1.648531,-0.6234842 -2.2e-5,-1.041988 C 51.20142,4.3477927 51.114144,3.4228578 51.007488,2.8654754 50.773617,1.6432927 50.75812,0.68899849 50.968721,0.47839743 c 0.222162,-0.22216297 2.561541,-0.19800674 4.186159,0.0432259 2.938775,0.43636589 5.939493,1.46865177 9.945959,3.42153807 6.092965,2.9699162 11.728962,7.2093896 14.384875,10.8205016 0.914258,1.243069 2.205051,3.714133 2.681453,5.13331 0.961654,2.864719 1.123758,4.951392 1.025676,13.202957 l -0.07531,6.335534 0.777942,0.475669 c 1.476944,0.903073 2.056463,2.124047 1.916445,4.037707 -0.206339,2.820076 -1.104494,4.679712 -6.656394,13.782093 -2.331501,3.822513 -4.604349,7.240465 -5.803573,8.72752 -2.150207,2.666292 -4.902283,5.008136 -7.310825,6.221059 -1.110836,0.559408 -2.933214,1.17434 -4.196537,1.416053 -1.294523,0.247684 -5.972729,0.237508 -7.152132,-0.01555 z m 6.012292,-2.398486 c 4.77818,-0.583112 8.847398,-3.691838 12.929642,-9.877748 2.470179,-3.743114 7.81053,-12.64953 8.605515,-14.351923 0.898106,-1.923217 1.289243,-4.287526 0.820107,-4.957311 -0.317759,-0.453664 -0.725704,-0.547769 -2.954466,-0.681535 -1.134339,-0.06808 -2.08501,-0.146359 -2.112599,-0.173948 -0.02759,-0.02759 0.0401,-0.476502 0.150426,-0.997583 1.288352,-6.085067 1.635813,-7.775335 1.604672,-7.80611 -0.02018,-0.01995 -0.473073,0.01432 -1.006421,0.07615 -1.364894,0.158222 -5.331084,0.150006 -6.825492,-0.01414 -1.916784,-0.21054 -4.121428,-0.665739 -9.983067,-2.061231 -6.376383,-1.518039 -8.116499,-1.877764 -10.048734,-2.07733 -1.958012,-0.202226 -7.103944,-0.09171 -8.581899,0.184305 -1.340892,0.250419 -4.020203,1.010206 -4.905689,1.391132 -0.637709,0.274335 -0.642141,0.280372 -0.641997,0.874478 8e-5,0.32903 0.174565,2.343741 0.387745,4.477135 0.213179,2.133394 0.387664,4.183253 0.387744,4.555242 1.68e-4,0.787155 0.119523,0.729487 -1.913281,0.92447 -1.523403,0.146122 -2.321622,0.460837 -2.772673,1.093188 -0.244421,0.342666 -0.298992,0.612392 -0.335975,1.660622 -0.05271,1.493943 0.127512,2.219569 0.96583,3.88876 1.431075,2.849441 8.235843,13.604338 10.368666,16.387619 3.420451,4.463602 6.847242,6.80867 11.013323,7.536789 0.672333,0.117506 3.73142,0.08531 4.848623,-0.05103 z"
     id="path6786" /><path
     style="fill:#008080;stroke-width:0.608407"
     d="m 105.75561,71.835279 c -2.34743,-0.872066 -5.4743,-2.758701 -7.202049,-4.345445 l -0.940175,-0.863447 2.879624,-2.974516 c 3.17862,-3.283366 4.99215,-5.207025 6.0007,-6.365097 l 0.66444,-0.762947 0.88712,0.739452 c 0.83669,0.697422 2.95738,1.889916 3.36095,1.889916 0.10168,0 0.2139,0.07567 0.24939,0.168156 0.0806,0.210147 -0.59792,2.186121 -2.42357,7.057454 -1.6761,4.472276 -2.19285,5.734124 -2.36853,5.783653 -0.071,0.02003 -0.56959,-0.127202 -1.1079,-0.327179 z"
     id="path6788" /><path
     style="fill:#008080;stroke-width:0.608407"
     d="M 54.460255,73.954287 C 52.63741,73.558484 49.804624,72.204528 48.025872,70.878914 46.843837,69.998004 44.366925,67.513559 43.296551,66.135212 40.774677,62.88773 33.66119,51.633164 32.059726,48.356929 c -0.842682,-1.723937 -1.034873,-2.521608 -1.043619,-4.331436 -0.0058,-1.200325 0.04141,-1.599054 0.244964,-2.068746 0.396521,-0.914971 1.230718,-1.863974 2.17565,-2.475075 l 0.868604,-0.561738 -0.08414,-8.008474 -0.08414,-8.008474 0.452483,-1.513387 c 0.796465,-2.663881 1.66115,-4.488268 2.982577,-6.292894 1.016038,-1.387569 3.493515,-3.805608 4.966476,-4.847326 1.542061,-1.0905881 4.244771,-2.4881811 6.703857,-3.4666195 L 51.136806,6.0290156 51.12496,4.6307154 C 51.11846,3.8616502 51.06681,2.644412 51.010212,1.9257415 c -0.07778,-0.98768776 -0.06404,-1.33069193 0.05629,-1.40506107 0.08756,-0.0541131 0.866486,-0.092722 1.730954,-0.0857975 3.669932,0.0293968 7.376957,1.14798297 12.753309,3.84828077 5.031391,2.52704 9.220195,5.4710181 12.176319,8.5577703 1.453533,1.517764 2.323948,2.753814 3.346189,4.751822 1.870196,3.655365 2.111983,5.483989 2.043705,15.456421 l -0.04391,6.414078 0.79606,0.528452 c 1.401924,0.930646 1.839678,1.757234 1.848845,3.491075 0.01009,1.908378 -0.463024,3.401685 -2.008295,6.338881 -2.046985,3.890834 -7.675451,12.936008 -9.990385,16.054956 -0.903869,1.217795 -3.807196,4.13316 -4.977358,4.997995 -2.100434,1.552371 -4.396868,2.625148 -6.577141,3.072502 -1.303273,0.26741 -6.483818,0.272232 -7.704538,0.0072 z m 6.841722,-2.319802 c 2.912216,-0.510021 5.264509,-1.779811 7.792204,-4.206307 2.704644,-2.59636 4.389892,-4.994533 9.540252,-13.576143 3.727324,-6.210526 4.457934,-7.773792 4.599679,-9.841807 0.13038,-1.902217 -0.008,-2.006908 -2.96151,-2.241306 -1.12982,-0.08967 -2.092854,-0.201663 -2.140077,-0.248886 -0.04722,-0.04722 0.303954,-1.961066 0.780394,-4.252982 0.47644,-2.291918 0.865548,-4.225307 0.864684,-4.29642 -0.001,-0.08414 -1.239854,-0.113311 -3.547379,-0.08352 -4.830202,0.06236 -5.143912,0.01578 -14.3618,-2.132593 -8.846162,-2.061733 -8.504383,-2.004806 -12.477122,-2.078203 -4.756929,-0.08788 -6.558196,0.133243 -9.89119,1.214257 -1.75202,0.568246 -1.745504,0.562602 -1.745504,1.51175 0,0.449371 0.143212,2.382476 0.31825,4.295792 0.175037,1.913314 0.344898,3.77951 0.377468,4.1471 0.03548,0.400445 -0.0014,0.749534 -0.09198,0.870886 -0.104588,0.1401 -0.623176,0.263946 -1.682221,0.401734 -1.610567,0.209548 -2.25491,0.446615 -2.800414,1.030334 -0.296609,0.317387 -0.326832,0.461652 -0.366816,1.750947 -0.04881,1.573954 0.115963,2.348796 0.781571,3.675272 1.512308,3.013851 8.003884,13.2928 10.496492,16.620451 1.219899,1.628575 3.239728,3.70992 4.60118,4.741315 1.413172,1.070576 3.599479,2.151346 5.175029,2.558202 1.063537,0.274639 1.525253,0.318043 3.441748,0.323547 1.395901,0.004 2.613668,-0.06374 3.297062,-0.18342 z"
     id="path6790" /><path
     style="fill:#008080;stroke-width:0.608407"
     d="m 112.2175,55.547073 c -1.34977,-0.528095 -2.37884,-1.501856 -3.05699,-2.892717 -0.56968,-1.168373 -0.71831,-1.8177 -0.71733,-3.133757 0.001,-1.450168 0.26639,-2.498467 1.01441,-4.008195 1.50152,-3.030508 4.44859,-5.621362 8.74504,-7.688025 1.86893,-0.898987 4.1215,-1.84883 4.19952,-1.770814 0.0233,0.02332 -0.0871,0.386508 -0.24546,0.807076 -0.27943,0.742273 -0.28985,0.950607 -0.3559,7.112716 l -0.068,6.348047 -0.61012,1.228657 c -0.4944,0.995629 -0.78283,1.391582 -1.52074,2.087688 -1.02195,0.96406 -2.28751,1.667406 -3.5254,1.959271 -1.14203,0.269264 -3.10815,0.243816 -3.85899,-0.04995 z"
     id="path6792" /></svg>
