<?xml version="1.0" encoding="UTF-8" standalone="no"?>
<svg
   version="1.1"
   id="Layer_1"
   x="0px"
   y="0px"
   viewBox="0 0 122.88 110.29"
   style="enable-background:new 0 0 122.88 110.29"
   xml:space="preserve"
   sodipodi:docname="artists-icon.svg"
   inkscape:version="1.2.2 (b0a8486541, 2022-12-01)"
   xmlns:inkscape="http://www.inkscape.org/namespaces/inkscape"
   xmlns:sodipodi="http://sodipodi.sourceforge.net/DTD/sodipodi-0.dtd"
   xmlns="http://www.w3.org/2000/svg"
   xmlns:svg="http://www.w3.org/2000/svg"><defs
     id="defs423" /><sodipodi:namedview
     id="namedview421"
     pagecolor="#ffffff"
     bordercolor="#000000"
     borderopacity="0.25"
     inkscape:showpageshadow="2"
     inkscape:pageopacity="0.0"
     inkscape:pagecheckerboard="0"
     inkscape:deskcolor="#d1d1d1"
     showgrid="false"
     inkscape:zoom="7.7341553"
     inkscape:cx="61.415886"
     inkscape:cy="55.080352"
     inkscape:window-width="1920"
     inkscape:window-height="1051"
     inkscape:window-x="1920"
     inkscape:window-y="0"
     inkscape:window-maximized="1"
     inkscape:current-layer="Layer_1" /><style
     type="text/css"
     id="style414">.st0{fill-rule:evenodd;clip-rule:evenodd;}</style><g
     id="g418"><path
       class="st0"
       d="M7.59,71.54l1.6-8.71c1.38-0.13,2.72-0.38,4.04-0.76c1.36-0.39,2.69-0.89,3.99-1.49l5.66,6.86L7.59,71.54 L7.59,71.54L7.59,71.54z M122.88,35.63c-3.17,6.17,2.45,14.47-3.99,19.02c-1.71,1.21-4.2,1.78-6.33,1.24 c-0.86-0.22-1.65-0.61-2.3-1.21c-0.29-0.26-0.55-0.57-0.79-0.91c-2.96-4.25-0.48-9.5,2.99-12.61 C115.66,38.3,119.93,36.63,122.88,35.63L122.88,35.63L122.88,35.63z M96.55,68.44c2.94,2.74,6.15,4.73,9.67,5.88l-6.06,8.64 c2.29,0.64,4.28,1.32,5.74,2.14c2.12,1.18,4.04,2.69,5.58,4.72c3.21,4.24,9.79,19.65-0.88,20.46H5.84 c-10.66-0.81-4.09-16.22-0.88-20.46c1.54-2.04,3.46-3.54,5.58-4.72c0.18-0.1,0.36-0.2,0.55-0.29L8.05,73.43h0l15.36-4.12 l3.01,11.22c6.03-1.41,11.94-3.05,14.95-5.76h0c5.51,16.21,28.53,16.81,33.7,0c3.04,2.74,9.06,4.38,15.15,5.81L96.55,68.44 L96.55,68.44L96.55,68.44z M107.21,56.09c0.92,1.24,2.98,2.82,4.98,2.97l-5.01,13.53c-3.86-1.27-7.28-3.12-9.93-5.95 C101.18,62.7,103.57,60.45,107.21,56.09L107.21,56.09L107.21,56.09z M13.12,83.95c0.74-0.27,1.53-0.52,2.38-0.77l-2.1-7.84 c-0.18-0.66-0.87-1.06-1.53-0.88c-0.66,0.18-1.06,0.87-0.88,1.53L13.12,83.95L13.12,83.95z M17.46,82.64 c0.78-0.2,1.59-0.4,2.42-0.6l-2.11-7.87c-0.18-0.66-0.87-1.06-1.53-0.88c-0.66,0.18-1.06,0.87-0.88,1.53L17.46,82.64L17.46,82.64z M21.87,81.58l2.43-0.56L22.15,73c-0.18-0.66-0.87-1.06-1.53-0.88c-0.66,0.18-1.06,0.87-0.88,1.53L21.87,81.58L21.87,81.58z M9.73,59.87l1.26-6.85l4.33,5.25c-0.94,0.4-1.9,0.75-2.87,1.02C11.56,59.55,10.65,59.75,9.73,59.87L9.73,59.87L9.73,59.87z M37.14,41.18c-1.15,0.04-2.03,0.28-2.63,0.69c-0.34,0.23-0.59,0.52-0.75,0.87c-0.18,0.39-0.26,0.86-0.25,1.4 c0.05,1.59,0.88,3.66,2.48,6.05l0.02,0.03l0,0l5.21,8.29c2.09,3.32,4.28,6.71,7,9.2c2.62,2.39,5.79,4.01,9.99,4.02 c4.55,0.01,7.87-1.67,10.57-4.2c2.81-2.63,5.02-6.23,7.21-9.83l5.87-9.67c1.09-2.5,1.49-4.17,1.24-5.15 c-0.15-0.58-0.79-0.87-1.89-0.92c-0.23-0.01-0.47-0.01-0.71-0.01c-0.26,0.01-0.54,0.03-0.82,0.05c-0.16,0.01-0.31,0-0.45-0.03 c-0.52,0.03-1.06-0.01-1.61-0.09l2.01-8.9c-14.92,2.35-26.07-8.73-41.84-2.22l1.14,10.49C38.31,41.29,37.7,41.26,37.14,41.18 L37.14,41.18L37.14,41.18z M83.23,39.31c1.44,0.44,2.37,1.36,2.75,2.84c0.42,1.64-0.04,3.96-1.43,7.12l0,0 c-0.03,0.06-0.05,0.11-0.09,0.17l-5.94,9.78c-2.29,3.77-4.61,7.55-7.71,10.45c-3.21,3.01-7.17,5.01-12.58,4.99 c-5.05-0.01-8.86-1.94-11.98-4.8c-3.01-2.76-5.32-6.31-7.51-9.8l-5.21-8.28c-1.91-2.84-2.9-5.44-2.96-7.57 c-0.03-1,0.14-1.91,0.51-2.71c0.39-0.84,0.99-1.54,1.79-2.08c0.38-0.25,0.8-0.47,1.26-0.64c-0.34-4.49-0.46-10.16-0.25-14.9 c0.11-1.12,0.33-2.25,0.64-3.37c1.33-4.76,4.67-8.59,8.8-11.22c2.28-1.45,4.78-2.55,7.38-3.28c1.65-0.47-1.41-5.76,0.3-5.93 c8.27-0.85,21.66,6.7,27.43,12.95c2.89,3.13,4.71,7.28,5.1,12.77L83.23,39.31L83.23,39.31L83.23,39.31z"
       id="path416" /></g><path
     style="fill:#0000ff;stroke-width:0.608407"
     d="m 8.4515959,67.201909 c 0.4246634,-2.328956 0.777958,-4.24528 0.7850994,-4.2585 0.00714,-0.01322 0.5937001,-0.116612 1.3034637,-0.22976 1.768067,-0.281861 3.473535,-0.754716 5.209048,-1.444251 l 1.461932,-0.58084 0.239094,0.299015 c 0.131501,0.164459 1.372198,1.666328 2.757104,3.337486 1.384906,1.671159 2.50752,3.051055 2.494696,3.066437 -0.0173,0.02075 -14.9520591,4.044876 -15.0117713,4.044876 -0.00593,0 0.3366708,-1.905508 0.7613342,-4.234463 z"
     id="path3334" /><path
     style="fill:#0000ff;stroke-width:0.608407"
     d="m 9.8763106,59.452233 c 0.040635,-0.200027 0.3138474,-1.672814 0.6071384,-3.27286 0.293291,-1.600045 0.54314,-2.92017 0.55522,-2.93361 0.05158,-0.05739 4.009583,4.842159 3.998002,4.949067 -0.02725,0.251557 -3.052605,1.229919 -4.737324,1.531991 -0.4909637,0.08803 -0.4960336,0.08474 -0.4230364,-0.274588 z"
     id="path3336" /><path
     style="fill:#0000ff;stroke-width:0.608407"
     d="M 4.4207284,109.96401 C 2.1749708,109.37455 0.91044519,108.11837 0.32360924,105.89392 0.02375645,104.7573 0.05457882,102.47637 0.39349691,100.72205 1.0731336,97.204104 3.1033969,92.446842 5.0043536,89.918012 c 1.2836606,-1.707646 3.1204377,-3.309289 5.1777534,-4.514925 0.515571,-0.302137 0.937401,-0.595375 0.937401,-0.651641 0,-0.05627 -0.665922,-2.595162 -1.4798265,-5.641991 -0.8139044,-3.046829 -1.4393767,-5.574922 -1.3899385,-5.617984 0.049438,-0.04306 2.766327,-0.793655 6.037531,-1.667985 3.271204,-0.874329 6.651437,-1.777847 7.511626,-2.007816 l 1.563982,-0.418127 1.465463,5.477892 c 0.806006,3.01284 1.500402,5.534423 1.543105,5.603517 0.04679,0.07571 1.000722,-0.105203 2.401012,-0.455366 5.810222,-1.452932 9.228803,-2.749119 11.585667,-4.392815 l 0.987315,-0.688561 0.227786,0.606744 c 0.817196,2.176725 2.25108,4.410405 3.965607,6.177557 2.593761,2.673371 5.570567,4.308517 9.323209,5.121195 1.774969,0.384391 5.405271,0.412838 7.071026,0.05541 3.566546,-0.76529 6.382837,-2.240758 8.732012,-4.574745 1.942819,-1.930257 3.356055,-4.250779 4.370035,-7.175563 0.06836,-0.197172 0.168712,-0.15781 0.761278,0.2986 0.896578,0.690565 3.950588,2.188178 5.660462,2.775753 2.472651,0.849693 8.716662,2.528061 8.838555,2.375773 0.02252,-0.02813 1.308601,-2.494857 2.857961,-5.481609 1.549361,-2.986751 2.961167,-5.683724 3.137349,-5.993272 l 0.320333,-0.562815 0.471614,0.446237 c 2.038533,1.928839 5.708859,4.186268 8.265279,5.083554 0.37529,0.131725 0.65906,0.300162 0.63061,0.374305 -0.0285,0.07414 -1.37326,2.015933 -2.98845,4.315089 -1.61519,2.299156 -2.91717,4.19254 -2.8933,4.207519 0.0239,0.01498 0.97434,0.332306 2.11215,0.705171 3.45861,1.133394 5.46974,2.320466 7.6997,4.544744 1.55607,1.552116 2.28791,2.596329 3.49094,4.980993 2.00546,3.975248 3.1006,8.10791 2.92949,11.05486 -0.17141,2.95201 -1.37292,4.69813 -3.84105,5.58202 l -0.84042,0.30097 -53.140908,0.0257 C 6.4889293,110.2115 5.345835,110.2068 4.4207284,109.96402 Z M 14.512333,83.574819 c 0.550461,-0.169295 1.002289,-0.365991 1.004061,-0.437104 0.0018,-0.07111 -0.473196,-1.92055 -1.055487,-4.10986 -1.190502,-4.476087 -1.259259,-4.617661 -2.242573,-4.617661 -0.6602,0 -1.172469,0.357343 -1.291921,0.901205 -0.05898,0.268557 0.207001,1.478628 0.902012,4.103591 1.252899,4.732035 1.20986,4.599552 1.470612,4.526862 0.116852,-0.03257 0.662835,-0.19774 1.213296,-0.367033 z m 4.20335,-1.171603 c 0.657796,-0.157369 1.195994,-0.341303 1.195994,-0.408744 0,-0.17095 -2.074129,-7.873175 -2.163655,-8.034679 -0.459242,-0.828466 -1.460973,-0.987431 -2.113079,-0.335324 -0.20787,0.207869 -0.380734,0.513332 -0.384145,0.678807 -0.0071,0.344018 2.105731,8.379947 2.204243,8.38364 0.03556,0.0013 0.602846,-0.126332 1.260642,-0.2837 z m 4.590029,-1.089019 c 0.732257,-0.166512 1.000684,-0.282417 0.996979,-0.43049 -0.0028,-0.111445 -0.488661,-1.993318 -1.079717,-4.18194 -1.220402,-4.519034 -1.269876,-4.618912 -2.287969,-4.618912 -0.525167,0 -0.660156,0.0567 -0.947187,0.39781 -0.190853,0.226817 -0.334735,0.558162 -0.334735,0.770863 0,0.2929 1.871423,7.522152 2.134773,8.24657 0.0341,0.09379 0.164104,0.142057 0.288901,0.107249 0.124799,-0.03481 0.677829,-0.165826 1.228955,-0.29115 z"
     id="path3338" /><path
     style="fill:#0000ff;stroke-width:0.608407"
     d="m 105.69997,71.968676 c -2.88307,-1.101623 -5.48629,-2.658925 -7.305518,-4.370324 l -1.048164,-0.986037 3.411202,-3.438643 c 1.87616,-1.891253 4.0401,-4.165936 4.80876,-5.05485 0.76866,-0.888914 1.44821,-1.671945 1.51012,-1.740069 0.0688,-0.07565 0.3764,0.133497 0.79035,0.537311 0.88615,0.864444 2.05313,1.601159 3.01119,1.900957 0.42334,0.132474 0.86284,0.276853 0.97667,0.320842 0.17403,0.06726 -0.18415,1.134196 -2.25142,6.706431 -1.35212,3.644548 -2.49255,6.624645 -2.53431,6.622438 -0.0417,-0.0022 -0.65775,-0.226333 -1.36888,-0.498056 z"
     id="path3340" /><path
     style="fill:#0000ff;stroke-width:0.608407"
     d="m 112.77911,55.862591 c -1.6973,-0.38675 -3.01671,-1.493792 -3.83451,-3.217323 -0.74109,-1.561858 -0.9093,-3.08173 -0.52471,-4.740877 0.94966,-4.09688 4.09084,-7.503573 9.28586,-10.070756 1.37526,-0.679607 4.87631,-2.117337 4.95773,-2.035925 0.0148,0.01481 -0.1094,0.402988 -0.27602,0.862616 -0.54192,1.494881 -0.64217,2.5858 -0.51481,5.601852 0.0635,1.503172 0.11589,3.780342 0.11648,5.060378 10e-4,2.100659 -0.0295,2.426575 -0.3131,3.34621 -0.73117,2.371142 -2.54301,4.169442 -4.97571,4.938506 -1.29411,0.409114 -2.8124,0.507974 -3.92121,0.255319 z"
     id="path3342" /><path
     style="fill:#0000ff;stroke-width:0.608407"
     d="M 55.228196,74.332029 C 51.134043,73.645641 47.227797,71.22824 44.003965,67.385848 42.044285,65.050164 41.168691,63.76017 36.265827,55.985428 31.30906,48.125207 30.71553,46.847398 30.710561,44.025493 c -0.0025,-1.403863 0.02024,-1.535149 0.406544,-2.350562 0.523539,-1.105077 1.260435,-1.900122 2.250011,-2.427561 l 0.784913,-0.418354 -0.105836,-2.282708 c -0.05821,-1.25549 -0.105835,-4.726414 -0.105835,-7.713166 0,-4.725568 0.0303,-5.57939 0.233442,-6.577835 0.753622,-3.704083 2.320393,-6.66253 4.993982,-9.429863 2.711315,-2.806381 6.090068,-4.9006647 10.148967,-6.2907269 0.847909,-0.2903861 1.61884,-0.5920338 1.71318,-0.6703282 0.272605,-0.2262423 0.205565,-1.5122372 -0.160135,-3.0717937 -0.60759,-2.59111595 -0.468479,-2.78223343 1.947868,-2.67606293 1.651812,0.072578 2.950348,0.27127857 4.705797,0.72007606 6.892311,1.76208427 15.804863,6.95493647 20.559539,11.97890967 3.002571,3.172631 4.701357,6.969579 5.228498,11.686188 0.146093,1.307185 0.120097,4.715166 -0.0933,12.230326 l -0.07376,2.597729 0.656749,0.307606 c 0.840374,0.393609 1.708816,1.357677 2.005434,2.226256 0.475846,1.393404 0.144028,3.753 -0.885844,6.299361 -0.56502,1.397014 -7.702314,13.20997 -9.843115,16.291372 -4.100024,5.901441 -8.443725,9.038598 -13.69378,9.890071 -1.48854,0.241418 -4.680069,0.234989 -6.155686,-0.0124 z m 4.765427,-2.641379 c 5.252777,-0.552215 9.158422,-3.382003 13.374258,-9.690154 0.595096,-0.890441 2.77589,-4.406297 4.846207,-7.813014 2.90212,-4.775448 3.870356,-6.477416 4.227661,-7.431389 0.901452,-2.406801 1.019246,-3.879801 0.352222,-4.404483 -0.437737,-0.344323 -0.804392,-0.396252 -3.039522,-0.430479 -1.042994,-0.01597 -1.927318,-0.06001 -1.965165,-0.09785 -0.03784,-0.03785 0.374587,-2.030331 0.916517,-4.427744 0.54193,-2.397413 0.953639,-4.390621 0.914909,-4.42935 -0.03873,-0.03873 -0.470554,-0.0037 -0.959611,0.07778 -0.489057,0.08151 -1.965588,0.150691 -3.28118,0.153735 -3.892729,0.009 -6.117037,-0.358964 -13.511495,-2.235206 -7.835904,-1.988254 -10.453412,-2.401032 -14.48122,-2.283674 -2.515832,0.0733 -4.485523,0.357153 -6.46483,0.93164 -1.774674,0.515093 -3.056235,0.993325 -3.122139,1.165068 -0.03266,0.0851 0.176451,2.316863 0.464684,4.959467 0.288234,2.642604 0.524061,4.94303 0.524061,5.112056 0,0.304466 -0.01479,0.307742 -1.593258,0.352938 -1.469274,0.04207 -1.652125,0.07581 -2.349709,0.43351 -0.99572,0.510582 -1.358193,1.147129 -1.358193,2.385157 0,2.059505 0.594574,3.288142 4.933797,10.195273 4.912907,7.820313 5.978255,9.388572 7.908341,11.641566 3.828918,4.469505 8.337793,6.395047 13.663665,5.835148 z"
     id="path3344" /></svg>
