<?xml version="1.0" encoding="UTF-8" standalone="no"?>
<svg
   id="Layer_1"
   data-name="Layer 1"
   viewBox="0 0 122.88 121.84"
   version="1.1"
   sodipodi:docname="customers-icon.svg"
   inkscape:version="1.2.2 (b0a8486541, 2022-12-01)"
   xmlns:inkscape="http://www.inkscape.org/namespaces/inkscape"
   xmlns:sodipodi="http://sodipodi.sourceforge.net/DTD/sodipodi-0.dtd"
   xmlns="http://www.w3.org/2000/svg"
   xmlns:svg="http://www.w3.org/2000/svg">
  <sodipodi:namedview
     id="namedview557"
     pagecolor="#ffffff"
     bordercolor="#000000"
     borderopacity="0.25"
     inkscape:showpageshadow="2"
     inkscape:pageopacity="0.0"
     inkscape:pagecheckerboard="0"
     inkscape:deskcolor="#d1d1d1"
     showgrid="false"
     inkscape:zoom="7.0009851"
     inkscape:cx="61.419928"
     inkscape:cy="60.84858"
     inkscape:window-width="1920"
     inkscape:window-height="1051"
     inkscape:window-x="1920"
     inkscape:window-y="0"
     inkscape:window-maximized="1"
     inkscape:current-layer="Layer_1" />
  <defs
     id="defs550">
    <style
       id="style548">.cls-1{fill-rule:evenodd;}</style>
  </defs>
  <title
     id="title552">increasing-users</title>
  <path
     className="cls-1"
     d="M58.75,51.2c4.35,9.07,17.55,9.4,21.71,0a24.53,24.53,0,0,1-2.82-3.61l-.41-.6a11.77,11.77,0,0,1-7.63,2.6,11.56,11.56,0,0,1-8.13-3.25L61.09,46c-.3.85-.68,1.86-1.1,2.8a16.59,16.59,0,0,1-1.24,2.37ZM15.22,110.33,51.83,76.14c9,9,17.83,17.83,26.89,26.78l24-24.28L91.57,67.52l31.31-.29V98.81L112.19,88.12Q95.48,105,78.78,121.84L51.64,95l-15.4,15.29Zm-.13-62.14,2.8-.07,1.33,0,2,2.34c.48.55,1,1.1,1.49,1.63a30.74,30.74,0,0,1-3.54,3.24c-.66.56-1.29,1.09-1.77,1.53A62.65,62.65,0,0,0,7.07,61.59a10.29,10.29,0,0,0-4.21,4.08C.51,70.07,1.05,75.4.09,79.91c-.29,4,0,3.77,2.79,3.72,7.84-.13,16.64-.14,24.82-.11L44.28,68l.18-.17.07-.06.36-.3,0,0,0,0,.15-.12.05,0,.2-.15h0l.22-.15,0,0,.19-.12,0,0,0,0,.17-.1h0l.08,0,.12-.07.09-.06.2-.11h0l.19-.11.06,0,.15-.07.09-.05.21-.09,0,0,.18-.07.08,0h0l.17-.07h0l.16-.06h0l.13,0h0l.16-.06h0l.19-.06h0l.13,0,.11,0,.1,0h0l.19,0,.12,0,.09,0,.15,0h0l.15,0,.19,0,.17,0h0l.14,0h0l.18,0c.31,0,.62-.07.94-.08h.57c.32,0,.63,0,.95,0l.19,0,.17,0h0a10.39,10.39,0,0,1,2.57.63,11,11,0,0,1,4.18,2.81l.59.58,7.63,7.63h17l-1.44-1.44a11.1,11.1,0,0,1,8.71-18.91l8.81-.08c-4.77-2.14-15.15-3-19.55-6.13h0l-.09-.09A23.44,23.44,0,0,1,79,46.76c-.17-.26-.35-.53-.53-.78a34.13,34.13,0,0,0,4.95-6.82l4-6.64a.54.54,0,0,0,0-.11h0c1-2.15,1.26-3.72,1-4.84a2.55,2.55,0,0,0-1.87-1.93h0l.22-9.18a13.7,13.7,0,0,0-3.46-8.67C79.41,3.55,71.12-.52,65.51.05c-1.16.12.12,2.65-1,3a18.94,18.94,0,0,0-5,2.23,13.57,13.57,0,0,0-6,7.62,14.43,14.43,0,0,0-.44,2.29,91.65,91.65,0,0,0,.17,10.12,4.61,4.61,0,0,0-.86.43,3.51,3.51,0,0,0-1.21,1.42A4.06,4.06,0,0,0,50.83,29a10.3,10.3,0,0,0,2,5.14l3.54,5.63a42.88,42.88,0,0,0,3.5,5c-.32.91-.81,2.25-1.34,3.47a14.65,14.65,0,0,1-1.07,2.08C53.55,53,45,54,39.79,55.68a33.49,33.49,0,0,1-3.14-3,22.52,22.52,0,0,0,2.4-2.59l1.27-1.52.26-.3.22-.27h2.77c4.07-8.72,1.49-21.67-6.85-27.16-2.56-1.69-4.4-1.62-7.39-1.62-3.44,0-5.19.11-8.14,2.06-4.33,2.87-7,7.83-8.12,14.72-.23,3.43-.38,9.37,2,12.14ZM31.87,63a14.64,14.64,0,0,1,1.57-3,11.84,11.84,0,0,1,3.79-3.21,10.37,10.37,0,0,1,1.2-.57,27.13,27.13,0,0,1-2.77-2.66l0,0A9.55,9.55,0,0,1,30,55.17a9.37,9.37,0,0,1-5.38-1.57,9.64,9.64,0,0,1-.94-.71A32.66,32.66,0,0,1,20,56.26l-.31.25c-.14,5,6.63,7.74,12.18,6.47ZM55.28,26.91a3.48,3.48,0,0,0-1.78.46A1.47,1.47,0,0,0,53,28a2,2,0,0,0-.16.94A8.42,8.42,0,0,0,54.51,33v0h0l3.54,5.63a30.31,30.31,0,0,0,4.76,6.25,9.73,9.73,0,0,0,6.78,2.73,10,10,0,0,0,7.18-2.85,31.05,31.05,0,0,0,4.89-6.67l4-6.57c.74-1.69,1-2.83.85-3.49-.11-.4-.54-.59-1.28-.63h-.49l-.56,0a1.46,1.46,0,0,1-.3,0,5.85,5.85,0,0,1-1.1-.06l1.37-6C74,22.94,66.43,15.42,55.73,19.84L56.5,27a6.07,6.07,0,0,1-1.22-.05Zm-35.41,20C17.59,39,18.7,31.74,24.94,25.51c1.11,3.58,3.59,6.54,7.82,8.72a41.1,41.1,0,0,1,5.86,5.39c.34-1.38-.94-3.06-2.49-4.79a7.59,7.59,0,0,1,3.69,3.61,10.06,10.06,0,0,1,.71,6.49,15.22,15.22,0,0,1-.44,2,.77.77,0,0,0-.31.22l-.5.59-.26.32-1.27,1.52a16.08,16.08,0,0,1-3.17,3.16A7.75,7.75,0,0,1,30,54.07a7.61,7.61,0,0,1-4.36-1.28,16,16,0,0,1-3.08-3l-2.31-2.68a.66.66,0,0,0-.34-.21Z"
     id="path554" />
  <path
     style="fill:#0000ff;stroke-width:0.672121"
     d="M 0.89602862,83.482 C 0.64252081,83.40333 0.36473614,83.207469 0.27872937,83.046763 0.08582299,82.686315 0.08755611,80.158601 0.28130237,79.294065 0.35963177,78.944544 0.5854638,77.093838 0.78315139,75.181384 1.1889038,71.256085 1.4270177,69.822544 1.9508669,68.151266 c 0.9130289,-2.912907 2.4919479,-4.915542 5.0611403,-6.419339 2.0474496,-1.198412 5.7704288,-2.988841 8.2694968,-3.976909 2.049667,-0.810388 2.312544,-0.957454 3.501567,-1.958964 2.155967,-1.815963 3.928019,-3.46429 3.928019,-3.653763 0,-0.09884 -0.370625,-0.590736 -0.82361,-1.093101 -0.452986,-0.502363 -1.230926,-1.379394 -1.728756,-1.948957 L 19.25358,48.064664 H 17.155914 15.058248 L 14.608913,47.31477 c -1.112513,-1.856669 -1.528939,-4.112936 -1.52244,-8.248839 0.0042,-2.641751 0.05003,-3.280627 0.328269,-4.570785 1.523323,-7.063549 4.829713,-11.88283 9.750262,-14.211643 1.753326,-0.829821 2.766128,-0.963056 6.805785,-0.895304 3.109946,0.05216 3.617708,0.09358 4.316971,0.352143 1.234942,0.456641 1.976548,0.866081 3.135545,1.731129 7.01409,5.235151 9.935894,16.544525 6.547521,25.343369 l -0.426293,1.106987 H 42.141007 40.73748 l -1.402127,1.678336 c -0.77117,0.923084 -1.710409,2.00669 -2.087198,2.408014 l -0.685072,0.729677 1.584481,1.530807 c 1.165635,1.126148 1.647473,1.505109 1.822772,1.433589 0.244369,-0.0997 4.275774,-1.102205 9.094188,-2.261491 1.492647,-0.359122 3.420947,-0.886359 4.285111,-1.171638 1.582289,-0.522346 3.648542,-1.465456 4.094122,-1.868701 0.343125,-0.310525 1.14827,-1.991591 1.889117,-3.944298 l 0.637332,-1.679865 -1.067708,-1.421136 c -0.872267,-1.161003 -5.545868,-8.41261 -6.860896,-10.645439 -0.577273,-0.98017 -1.073649,-2.753453 -1.084889,-3.875723 -0.0088,-0.877061 0.0494,-1.125734 0.417773,-1.785463 0.280865,-0.503012 0.66934,-0.930577 1.130145,-1.24387 l 0.702167,-0.477389 -0.04657,-5.236093 c -0.04607,-5.179692 -0.04277,-5.250805 0.306402,-6.602126 0.597005,-2.310467 1.92265,-4.5798554 3.65776,-6.2617677 1.5233,-1.4765957 4.09694,-2.9779175 6.558649,-3.8259611 1.335726,-0.4601495 1.467108,-0.651725 1.411074,-2.0575939 -0.04547,-1.14081579 0.106084,-1.27227678 1.466728,-1.27227678 4.645648,0 11.290017,2.86091298 15.594115,6.71446718 2.578125,2.3082526 4.279962,5.7757753 4.486069,9.1404443 0.0409,0.667763 0.01884,3.110277 -0.04904,5.427808 -0.105479,3.601549 -0.09357,4.234444 0.08199,4.356529 0.112966,0.07856 0.406542,0.271909 0.65239,0.429664 0.245848,0.157755 0.596629,0.575554 0.779513,0.928441 0.287447,0.554651 0.323017,0.786814 0.262443,1.712892 -0.122741,1.876466 -0.676543,3.096711 -3.673322,8.093782 -2.895044,4.827431 -3.77318,6.135672 -5.333732,7.946158 -0.983084,1.140532 -0.984204,1.142813 -0.743141,1.514181 0.132784,0.20456 0.370032,0.661173 0.527216,1.014694 0.562295,1.264651 1.447902,2.936468 1.807236,3.411639 0.256332,0.338966 0.796669,0.687372 1.807737,1.165617 2.363536,1.117977 3.588107,1.471139 12.311754,3.550659 1.343235,0.320196 3.078705,0.791743 3.8566,1.047881 l 1.414351,0.465705 -5.642062,0.08185 c -5.303195,0.07694 -5.706265,0.101114 -6.711008,0.402552 -2.973206,0.892003 -5.542151,3.013284 -6.851534,5.657586 -0.886484,1.790257 -1.203734,3.131294 -1.19958,5.070715 0.0041,1.905722 0.252234,3.100105 0.964313,4.641306 0.654005,1.415506 1.222215,2.22146 2.493019,3.536115 l 1.070064,1.106987 h -8.338465 -8.338466 l -4.720185,-4.68812 c -4.994913,-4.960985 -5.715519,-5.553117 -7.68458,-6.314537 -1.683628,-0.651044 -2.78444,-0.771192 -5.609322,-0.612224 -2.333962,0.131341 -2.468911,0.155629 -3.356671,0.604119 -0.50872,0.257002 -1.246329,0.715037 -1.639131,1.017855 -0.392801,0.302818 -4.410093,4.022163 -8.927315,8.265212 l -8.213129,7.714632 -11.784056,0.0068 c -6.4812312,0.0038 -12.3946847,0.0373 -13.1410082,0.07451 -0.7463236,0.03721 -1.5643674,0.0033 -1.81787518,-0.07539 z M 31.638405,63.129889 c 0.178762,-0.05737 0.512249,-0.556759 0.891091,-1.334383 1.053145,-2.161721 2.637544,-3.792699 4.809985,-4.951394 0.556746,-0.296946 1.040781,-0.563649 1.075634,-0.592674 0.03485,-0.02902 -0.575774,-0.660124 -1.356952,-1.402443 l -1.420321,-1.349673 -0.95694,0.500504 c -1.379079,0.721295 -2.865359,1.064285 -4.600844,1.061742 -2.247162,-0.0033 -4.06839,-0.564839 -5.724504,-1.765063 l -0.712347,-0.516253 -1.215953,1.189591 c -0.668775,0.654277 -1.589981,1.501029 -2.047125,1.881673 l -0.831172,0.692081 0.09273,0.724121 c 0.369152,2.882618 3.216358,5.197666 7.305912,5.940392 0.73569,0.133613 4.211347,0.07566 4.690804,-0.07822 z m 40.258878,-5.138353 c 3.664695,-0.639069 6.675211,-2.864247 8.361341,-6.180159 l 0.310089,-0.609818 -0.852637,-0.990664 c -0.468951,-0.544864 -1.176903,-1.471204 -1.573227,-2.058531 -0.396325,-0.587326 -0.774557,-1.101221 -0.840516,-1.141985 -0.06596,-0.04077 -0.411858,0.133435 -0.768662,0.387114 -0.868764,0.617668 -2.687942,1.456937 -3.829617,1.766774 -1.310104,0.355547 -4.704106,0.357561 -5.999156,0.0036 -1.760328,-0.481185 -3.661093,-1.524485 -4.966508,-2.72604 -0.335488,-0.308797 -0.634706,-0.53598 -0.664929,-0.504853 -0.03022,0.03113 -0.293745,0.667221 -0.585606,1.413545 -0.291861,0.746323 -0.81217,1.906773 -1.156243,2.578777 -0.344073,0.672004 -0.625579,1.282632 -0.625569,1.356952 3.5e-5,0.248933 1.373673,2.269403 2.050771,3.016458 2.688496,2.966269 7.033627,4.405043 11.140469,3.68887 z m -39.84405,-4.082713 c 1.8381,-0.35977 3.582922,-1.647765 5.734841,-4.233345 0.770044,-0.925229 1.635299,-1.942628 1.92279,-2.260889 0.449226,-0.49731 0.561116,-0.768394 0.79591,-1.9283 0.394397,-1.948366 0.369165,-4.169592 -0.0632,-5.563336 -0.474484,-1.529519 -1.116616,-2.663141 -2.023334,-3.571993 -0.764648,-0.766446 -2.088176,-1.669209 -2.233765,-1.523621 -0.03944,0.03944 0.329116,0.575386 0.819005,1.190998 0.985679,1.238636 1.556997,2.326627 1.559124,2.969118 0.0013,0.394711 -0.114167,0.307901 -1.819777,-1.368058 -2.12978,-2.092754 -3.395816,-3.12759 -4.935567,-4.034241 -2.026938,-1.193522 -3.984034,-2.947011 -5.072849,-4.545096 -0.478273,-0.701971 -1.500572,-2.730611 -1.634896,-3.244265 -0.04306,-0.164661 -0.140053,-0.299383 -0.215539,-0.299383 -0.23244,0 -2.007822,2.139933 -2.970078,3.579945 -3.090418,4.624797 -3.921417,9.890646 -2.542588,16.111797 0.325907,1.470461 0.409631,1.671659 0.891576,2.142555 0.29254,0.285836 1.215496,1.324578 2.051013,2.30832 1.455801,1.714067 2.74862,2.912523 3.826217,3.546936 1.498129,0.881996 3.713779,1.152942 5.911115,0.722858 z m 40.790576,-6.69921 c 2.023376,-0.69074 3.424445,-1.66507 4.93096,-3.429086 1.523621,-1.784046 2.420361,-3.036359 3.631668,-5.071689 0.607808,-1.021285 1.832227,-3.046 2.720931,-4.499367 1.863598,-3.047686 2.467174,-4.478621 2.402646,-5.696097 -0.05478,-1.033628 -0.279413,-1.155144 -2.140602,-1.157975 -0.761327,-0.0011 -1.410153,-0.05031 -1.441834,-0.109233 -0.03168,-0.05892 0.248534,-1.424681 0.622698,-3.035023 0.374166,-1.610342 0.669469,-2.936683 0.656231,-2.947424 -0.01324,-0.01074 -0.441869,0.04251 -0.952512,0.118329 -1.190242,0.176732 -4.272926,0.05348 -5.927737,-0.236995 -0.707043,-0.124111 -3.245972,-0.704604 -5.642063,-1.289984 -5.108307,-1.24799 -7.19521,-1.563443 -9.6415,-1.457392 -2.439032,0.105736 -6.113219,0.957952 -6.306979,1.462884 -0.06747,0.175834 0.384495,5.015604 0.609177,6.52319 l 0.07903,0.530247 -1.047213,-0.01186 c -1.801678,-0.02039 -2.603204,0.553075 -2.600644,1.860656 0.0017,0.890825 0.509411,2.492351 1.083796,3.419022 2.815688,4.542639 5.348464,8.490071 6.158336,9.598008 0.545543,0.746323 1.64474,2.007485 2.442661,2.80258 1.213412,1.209117 1.648572,1.541373 2.659832,2.03085 1.796872,0.869737 2.581867,1.025855 4.849462,0.964458 1.516231,-0.04105 2.126045,-0.119717 2.853659,-0.368109 z"
     id="path3322" />
  <path
     style="fill:#0000ff;stroke-width:0.672121"
     d="M 65.221097,108.31493 51.667565,94.886092 49.009093,97.507066 c -1.46216,1.441536 -4.941052,4.887314 -7.730871,7.657294 l -5.072397,5.03631 -10.324155,-0.0367 -10.324154,-0.0367 1.691264,-1.57121 c 0.930195,-0.86416 8.951347,-8.34645 17.824781,-16.627304 8.873436,-8.280855 16.277391,-15.185027 16.453236,-15.342607 l 0.319718,-0.286508 13.361617,13.316749 c 7.34889,7.324212 13.439853,13.29637 13.535475,13.27147 0.09562,-0.0249 5.552699,-5.476659 12.126835,-12.11501 l 11.952978,-12.06973 -5.507501,-5.517808 -5.507501,-5.517808 2.410421,-0.08712 c 1.325731,-0.04791 8.307801,-0.127889 15.515721,-0.177722 l 13.1053,-0.09061 v 15.693409 15.693408 l -5.32259,-5.321169 -5.32259,-5.32117 -7.64522,7.678695 C 98.241552,102.07086 81.888082,118.56788 79.427605,121.0777 l -0.652977,0.66607 z"
     id="path3324" />
</svg>
