<?xml version="1.0" encoding="UTF-8" standalone="no"?>
<!-- Uploaded to: SVG Repo, www.svgrepo.com, Generator: SVG Repo Mixer Tools -->

<svg
   fill="#000000"
   width="800px"
   height="800px"
   viewBox="0 0 36 36"
   version="1.1"
   preserveAspectRatio="xMidYMid meet"
   id="svg200"
   sodipodi:docname="customers-icon.svg"
   inkscape:version="1.2.2 (b0a8486541, 2022-12-01)"
   xmlns:inkscape="http://www.inkscape.org/namespaces/inkscape"
   xmlns:sodipodi="http://sodipodi.sourceforge.net/DTD/sodipodi-0.dtd"
   xmlns="http://www.w3.org/2000/svg"
   xmlns:svg="http://www.w3.org/2000/svg">
  <defs
     id="defs204" />
  <sodipodi:namedview
     id="namedview202"
     pagecolor="#ffffff"
     bordercolor="#000000"
     borderopacity="0.25"
     inkscape:showpageshadow="2"
     inkscape:pageopacity="0.0"
     inkscape:pagecheckerboard="0"
     inkscape:deskcolor="#d1d1d1"
     showgrid="false"
     inkscape:zoom="1.03"
     inkscape:cx="400"
     inkscape:cy="400"
     inkscape:window-width="1920"
     inkscape:window-height="1007"
     inkscape:window-x="0"
     inkscape:window-y="0"
     inkscape:window-maximized="1"
     inkscape:current-layer="svg200" />
  <title
     id="title184">users-solid</title>
  <path
     className="clr-i-solid clr-i-solid-path-1"
     d="M12,16.14q-.43,0-.87,0a8.67,8.67,0,0,0-6.43,2.52l-.24.28v8.28H8.54v-4.7l.55-.62.25-.29a11,11,0,0,1,4.71-2.86A6.59,6.59,0,0,1,12,16.14Z"
     id="path186" />
  <path
     className="clr-i-solid clr-i-solid-path-2"
     d="M31.34,18.63a8.67,8.67,0,0,0-6.43-2.52,10.47,10.47,0,0,0-1.09.06,6.59,6.59,0,0,1-2,2.45,10.91,10.91,0,0,1,5,3l.25.28.54.62v4.71h3.94V18.91Z"
     id="path188" />
  <path
     className="clr-i-solid clr-i-solid-path-3"
     d="M11.1,14.19c.11,0,.2,0,.31,0a6.45,6.45,0,0,1,3.11-6.29,4.09,4.09,0,1,0-3.42,6.33Z"
     id="path190" />
  <path
     className="clr-i-solid clr-i-solid-path-4"
     d="M24.43,13.44a6.54,6.54,0,0,1,0,.69,4.09,4.09,0,0,0,.58.05h.19A4.09,4.09,0,1,0,21.47,8,6.53,6.53,0,0,1,24.43,13.44Z"
     id="path192" />
  <circle
     className="clr-i-solid clr-i-solid-path-5"
     cx="17.87"
     cy="13.45"
     r="4.47"
     id="circle194" />
  <path
     className="clr-i-solid clr-i-solid-path-6"
     d="M18.11,20.3A9.69,9.69,0,0,0,11,23l-.25.28v6.33a1.57,1.57,0,0,0,1.6,1.54H23.84a1.57,1.57,0,0,0,1.6-1.54V23.3L25.2,23A9.58,9.58,0,0,0,18.11,20.3Z"
     id="path196" />
  <rect
     x="0"
     y="0"
     width="36"
     height="36"
     fill-opacity="0"
     id="rect198" />
  <path
     style="fill:#008080;stroke-width:4.56846"
     d="m 264.35538,690.34597 c -9.59328,-3.0143 -16.4164,-8.84833 -21.39602,-18.29444 l -2.6681,-5.06124 -0.26601,-74.51316 c -0.24904,-69.75849 -0.15696,-74.67961 1.44304,-77.12153 2.7077,-4.13247 22.13041,-20.27993 33.22381,-27.62127 12.28234,-8.12817 31.10426,-17.78443 44.23994,-22.69656 13.05874,-4.88335 33.13543,-9.86379 47.06938,-11.67656 22.73005,-2.9571 61.16318,-2.27426 82.67637,1.46891 40.23806,7.0012 80.60547,27.37781 107.90493,54.46812 l 8.52445,8.45916 -0.27202,73.64557 -0.27204,73.64557 -2.602,5.55153 c -3.64382,7.7743 -10.23988,14.48589 -17.55887,17.86642 l -6.05273,2.79565 -134.95145,0.18467 c -109.67919,0.15008 -135.71762,-0.0561 -139.04268,-1.10084 z"
     id="path448"
     transform="scale(0.045)" />
  <path
     style="fill:#008080;stroke-width:4.56846"
     d="m 100,512.27434 v -92.0946 l 8.49515,-8.16632 c 27.77062,-26.69572 62.3304,-43.83535 101.69902,-50.43678 7.97625,-1.33747 18.58952,-2.13952 33.65313,-2.54317 l 22.00264,-0.58958 4.09191,8.15669 c 7.06341,14.07997 15.05265,24.84649 28.10749,37.87839 l 12.2675,12.24596 -6.85744,2.2017 c -3.7716,1.21094 -12.31862,4.5787 -18.99338,7.48391 -34.45176,14.99526 -64.3665,37.58754 -90.53398,68.37326 l -4.61165,5.42555 v 52.07979 52.07979 H 144.66019 100 Z"
     id="path450"
     transform="scale(0.045)" />
  <path
     style="fill:#008080;stroke-width:4.56846"
     d="m 233.45592,314.66241 c -36.0739,-5.83129 -64.70131,-31.64735 -74.39561,-67.08959 -3.05771,-11.17894 -3.05771,-33.48127 0,-44.6602 9.15057,-33.45435 36.15234,-59.06791 69.58047,-66.00319 4.67563,-0.97005 12.21081,-1.60267 18.93204,-1.58947 24.35795,0.0478 46.52076,9.5961 63.67321,27.43188 8.81432,9.16547 10.9931,12.4025 9.07916,13.48906 -5.24961,2.98026 -16.29858,11.58257 -23.12421,18.00363 -21.72643,20.43867 -36.12623,46.54614 -42.53328,77.11469 -1.29036,6.15641 -1.7329,12.75214 -1.74238,25.96865 -0.0112,15.63424 -0.19645,17.71648 -1.57622,17.71845 -0.85994,9.7e-4 -3.4813,0.19926 -5.82524,0.44009 -2.34395,0.24082 -7.77452,-0.12998 -12.06794,-0.824 z"
     id="path452"
     transform="scale(0.045)" />
  <path
     style="fill:#008080;stroke-width:4.56846"
     d="m 379.93606,396.13522 c -49.08738,-8.90672 -84.91821,-54.37672 -81.42028,-103.32383 3.19807,-44.75094 35.5636,-81.73468 79.46392,-90.80254 9.62344,-1.98777 28.59191,-1.98777 38.21536,0 37.43678,7.73278 66.87544,35.68216 76.64882,72.77123 3.49078,13.24715 3.73087,33.49414 0.54974,46.36004 -11.23545,45.44116 -51.11555,76.7771 -97.16157,76.34507 -5.13637,-0.0481 -12.46956,-0.65568 -16.29599,-1.34997 z"
     id="path454"
     transform="scale(0.045)" />
  <path
     style="fill:#008080;stroke-width:4.56846"
     d="m 549.27184,314.35553 -5.58252,-0.37476 -0.0327,-8.44669 c -0.10858,-28.05191 -5.76875,-52.53228 -17.10526,-73.98068 -6.04923,-11.44501 -9.45544,-16.4395 -18.87068,-27.6699 -6.42585,-7.66469 -18.80671,-18.93999 -26.09589,-23.76562 l -3.74308,-2.47803 2.95021,-4.3539 c 12.5525,-18.52488 33.74322,-32.61012 56.31408,-37.43134 9.37644,-2.00284 26.40538,-1.976 36.10559,0.0569 26.78382,5.6132 50.61151,23.98981 62.95726,48.5545 6.36056,12.65577 10.13007,31.28222 9.11858,45.05803 -1.97112,26.84527 -14.5274,50.33812 -35.5787,66.56786 -16.9244,13.04806 -38.95554,19.70573 -60.4369,18.26362 z"
     id="path456"
     transform="scale(0.045)" />
  <path
     style="fill:#008080;stroke-width:4.56846"
     d="m 613.59223,551.86275 v -52.5062 L 603.54112,488.0278 C 573.51726,454.18745 539.82981,431.59097 498.31705,417.44682 l -11.87712,-4.04675 7.50819,-6.41841 c 12.36357,-10.56905 24.83249,-26.18468 31.95292,-40.01668 l 3.62022,-7.03256 4.89956,-0.58884 c 9.40786,-1.13065 40.1612,-0.61565 51.42733,0.86121 35.61063,4.66814 70.39397,20.09217 98.48965,43.67341 5.00229,4.19852 10.79112,9.77933 12.86407,12.40181 l 3.769,4.76814 v 91.66039 91.66039 h -43.68932 -43.68932 z"
     id="path458"
     transform="scale(0.045)" />
</svg>
