<?xml version="1.0" encoding="UTF-8" standalone="no"?>
<svg
   id="Layer_1"
   data-name="Layer 1"
   viewBox="0 0 122.88 121.84"
   version="1.1"
   sodipodi:docname="customers-icon.svg"
   inkscape:version="1.2.2 (b0a8486541, 2022-12-01)"
   xmlns:inkscape="http://www.inkscape.org/namespaces/inkscape"
   xmlns:sodipodi="http://sodipodi.sourceforge.net/DTD/sodipodi-0.dtd"
   xmlns="http://www.w3.org/2000/svg"
   xmlns:svg="http://www.w3.org/2000/svg">
  <sodipodi:namedview
     id="namedview557"
     pagecolor="#ffffff"
     bordercolor="#000000"
     borderopacity="0.25"
     inkscape:showpageshadow="2"
     inkscape:pageopacity="0.0"
     inkscape:pagecheckerboard="0"
     inkscape:deskcolor="#d1d1d1"
     showgrid="false"
     inkscape:zoom="7.0009851"
     inkscape:cx="61.419928"
     inkscape:cy="60.991417"
     inkscape:window-width="1920"
     inkscape:window-height="1007"
     inkscape:window-x="0"
     inkscape:window-y="0"
     inkscape:window-maximized="1"
     inkscape:current-layer="Layer_1" />
  <defs
     id="defs550">
    <style
       id="style548">.cls-1{fill-rule:evenodd;}</style>
  </defs>
  <title
     id="title552">increasing-users</title>
  <path
     className="cls-1"
     d="M58.75,51.2c4.35,9.07,17.55,9.4,21.71,0a24.53,24.53,0,0,1-2.82-3.61l-.41-.6a11.77,11.77,0,0,1-7.63,2.6,11.56,11.56,0,0,1-8.13-3.25L61.09,46c-.3.85-.68,1.86-1.1,2.8a16.59,16.59,0,0,1-1.24,2.37ZM15.22,110.33,51.83,76.14c9,9,17.83,17.83,26.89,26.78l24-24.28L91.57,67.52l31.31-.29V98.81L112.19,88.12Q95.48,105,78.78,121.84L51.64,95l-15.4,15.29Zm-.13-62.14,2.8-.07,1.33,0,2,2.34c.48.55,1,1.1,1.49,1.63a30.74,30.74,0,0,1-3.54,3.24c-.66.56-1.29,1.09-1.77,1.53A62.65,62.65,0,0,0,7.07,61.59a10.29,10.29,0,0,0-4.21,4.08C.51,70.07,1.05,75.4.09,79.91c-.29,4,0,3.77,2.79,3.72,7.84-.13,16.64-.14,24.82-.11L44.28,68l.18-.17.07-.06.36-.3,0,0,0,0,.15-.12.05,0,.2-.15h0l.22-.15,0,0,.19-.12,0,0,0,0,.17-.1h0l.08,0,.12-.07.09-.06.2-.11h0l.19-.11.06,0,.15-.07.09-.05.21-.09,0,0,.18-.07.08,0h0l.17-.07h0l.16-.06h0l.13,0h0l.16-.06h0l.19-.06h0l.13,0,.11,0,.1,0h0l.19,0,.12,0,.09,0,.15,0h0l.15,0,.19,0,.17,0h0l.14,0h0l.18,0c.31,0,.62-.07.94-.08h.57c.32,0,.63,0,.95,0l.19,0,.17,0h0a10.39,10.39,0,0,1,2.57.63,11,11,0,0,1,4.18,2.81l.59.58,7.63,7.63h17l-1.44-1.44a11.1,11.1,0,0,1,8.71-18.91l8.81-.08c-4.77-2.14-15.15-3-19.55-6.13h0l-.09-.09A23.44,23.44,0,0,1,79,46.76c-.17-.26-.35-.53-.53-.78a34.13,34.13,0,0,0,4.95-6.82l4-6.64a.54.54,0,0,0,0-.11h0c1-2.15,1.26-3.72,1-4.84a2.55,2.55,0,0,0-1.87-1.93h0l.22-9.18a13.7,13.7,0,0,0-3.46-8.67C79.41,3.55,71.12-.52,65.51.05c-1.16.12.12,2.65-1,3a18.94,18.94,0,0,0-5,2.23,13.57,13.57,0,0,0-6,7.62,14.43,14.43,0,0,0-.44,2.29,91.65,91.65,0,0,0,.17,10.12,4.61,4.61,0,0,0-.86.43,3.51,3.51,0,0,0-1.21,1.42A4.06,4.06,0,0,0,50.83,29a10.3,10.3,0,0,0,2,5.14l3.54,5.63a42.88,42.88,0,0,0,3.5,5c-.32.91-.81,2.25-1.34,3.47a14.65,14.65,0,0,1-1.07,2.08C53.55,53,45,54,39.79,55.68a33.49,33.49,0,0,1-3.14-3,22.52,22.52,0,0,0,2.4-2.59l1.27-1.52.26-.3.22-.27h2.77c4.07-8.72,1.49-21.67-6.85-27.16-2.56-1.69-4.4-1.62-7.39-1.62-3.44,0-5.19.11-8.14,2.06-4.33,2.87-7,7.83-8.12,14.72-.23,3.43-.38,9.37,2,12.14ZM31.87,63a14.64,14.64,0,0,1,1.57-3,11.84,11.84,0,0,1,3.79-3.21,10.37,10.37,0,0,1,1.2-.57,27.13,27.13,0,0,1-2.77-2.66l0,0A9.55,9.55,0,0,1,30,55.17a9.37,9.37,0,0,1-5.38-1.57,9.64,9.64,0,0,1-.94-.71A32.66,32.66,0,0,1,20,56.26l-.31.25c-.14,5,6.63,7.74,12.18,6.47ZM55.28,26.91a3.48,3.48,0,0,0-1.78.46A1.47,1.47,0,0,0,53,28a2,2,0,0,0-.16.94A8.42,8.42,0,0,0,54.51,33v0h0l3.54,5.63a30.31,30.31,0,0,0,4.76,6.25,9.73,9.73,0,0,0,6.78,2.73,10,10,0,0,0,7.18-2.85,31.05,31.05,0,0,0,4.89-6.67l4-6.57c.74-1.69,1-2.83.85-3.49-.11-.4-.54-.59-1.28-.63h-.49l-.56,0a1.46,1.46,0,0,1-.3,0,5.85,5.85,0,0,1-1.1-.06l1.37-6C74,22.94,66.43,15.42,55.73,19.84L56.5,27a6.07,6.07,0,0,1-1.22-.05Zm-35.41,20C17.59,39,18.7,31.74,24.94,25.51c1.11,3.58,3.59,6.54,7.82,8.72a41.1,41.1,0,0,1,5.86,5.39c.34-1.38-.94-3.06-2.49-4.79a7.59,7.59,0,0,1,3.69,3.61,10.06,10.06,0,0,1,.71,6.49,15.22,15.22,0,0,1-.44,2,.77.77,0,0,0-.31.22l-.5.59-.26.32-1.27,1.52a16.08,16.08,0,0,1-3.17,3.16A7.75,7.75,0,0,1,30,54.07a7.61,7.61,0,0,1-4.36-1.28,16,16,0,0,1-3.08-3l-2.31-2.68a.66.66,0,0,0-.34-.21Z"
     id="path554" />
  <path
     style="fill:#0000ff;stroke-width:0.672121"
     d="M 0.89602862,83.482 C 0.64252081,83.40333 0.36473614,83.207469 0.27872937,83.046763 0.08582299,82.686315 0.08755611,80.158601 0.28130237,79.294065 0.35963177,78.944544 0.5854638,77.093838 0.78315139,75.181384 1.1889038,71.256085 1.4270177,69.822544 1.9508669,68.151266 c 0.9130289,-2.912907 2.4919479,-4.915542 5.0611403,-6.419339 2.0474496,-1.198412 5.7704288,-2.988841 8.2694968,-3.976909 2.049667,-0.810388 2.312544,-0.957454 3.501567,-1.958964 2.155967,-1.815963 3.928019,-3.46429 3.928019,-3.653763 0,-0.09884 -0.370625,-0.590736 -0.82361,-1.093101 -0.452986,-0.502363 -1.230926,-1.379394 -1.728756,-1.948957 L 19.25358,48.064664 H 17.155914 15.058248 L 14.608913,47.31477 c -1.112513,-1.856669 -1.528939,-4.112936 -1.52244,-8.248839 0.0042,-2.641751 0.05003,-3.280627 0.328269,-4.570785 1.523323,-7.063549 4.829713,-11.88283 9.750262,-14.211643 1.753326,-0.829821 2.766128,-0.963056 6.805785,-0.895304 3.109946,0.05216 3.617708,0.09358 4.316971,0.352143 1.234942,0.456641 1.976548,0.866081 3.135545,1.731129 7.01409,5.235151 9.935894,16.544525 6.547521,25.343369 l -0.426293,1.106987 H 42.141007 40.73748 l -1.402127,1.678336 c -0.77117,0.923084 -1.710409,2.00669 -2.087198,2.408014 l -0.685072,0.729677 1.584481,1.530807 c 1.165635,1.126148 1.647473,1.505109 1.822772,1.433589 0.244369,-0.0997 4.275774,-1.102205 9.094188,-2.261491 1.492647,-0.359122 3.420947,-0.886359 4.285111,-1.171638 1.582289,-0.522346 3.648542,-1.465456 4.094122,-1.868701 0.343125,-0.310525 1.14827,-1.991591 1.889117,-3.944298 l 0.637332,-1.679865 -1.067708,-1.421136 c -0.872267,-1.161003 -5.545868,-8.41261 -6.860896,-10.645439 -0.577273,-0.98017 -1.073649,-2.753453 -1.084889,-3.875723 -0.0088,-0.877061 0.0494,-1.125734 0.417773,-1.785463 0.280865,-0.503012 0.66934,-0.930577 1.130145,-1.24387 l 0.702167,-0.477389 -0.04657,-5.236093 c -0.04607,-5.179692 -0.04277,-5.250805 0.306402,-6.602126 0.597005,-2.310467 1.92265,-4.5798554 3.65776,-6.2617677 1.5233,-1.4765957 4.09694,-2.9779175 6.558649,-3.8259611 1.335726,-0.4601495 1.467108,-0.651725 1.411074,-2.0575939 -0.04547,-1.14081579 0.106084,-1.27227678 1.466728,-1.27227678 4.645648,0 11.290017,2.86091298 15.594115,6.71446718 2.578125,2.3082526 4.279962,5.7757753 4.486069,9.1404443 0.0409,0.667763 0.01884,3.110277 -0.04904,5.427808 -0.105479,3.601549 -0.09357,4.234444 0.08199,4.356529 0.112966,0.07856 0.406542,0.271909 0.65239,0.429664 0.245848,0.157755 0.596629,0.575554 0.779513,0.928441 0.287447,0.554651 0.323017,0.786814 0.262443,1.712892 -0.122741,1.876466 -0.676543,3.096711 -3.673322,8.093782 -2.895044,4.827431 -3.77318,6.135672 -5.333732,7.946158 -0.983084,1.140532 -0.984204,1.142813 -0.743141,1.514181 0.132784,0.20456 0.370032,0.661173 0.527216,1.014694 0.562295,1.264651 1.447902,2.936468 1.807236,3.411639 0.256332,0.338966 0.796669,0.687372 1.807737,1.165617 2.363536,1.117977 3.588107,1.471139 12.311754,3.550659 1.343235,0.320196 3.078705,0.791743 3.8566,1.047881 l 1.414351,0.465705 -5.642062,0.08185 c -5.303195,0.07694 -5.706265,0.101114 -6.711008,0.402552 -2.973206,0.892003 -5.542151,3.013284 -6.851534,5.657586 -0.886484,1.790257 -1.203734,3.131294 -1.19958,5.070715 0.0041,1.905722 0.252234,3.100105 0.964313,4.641306 0.654005,1.415506 1.222215,2.22146 2.493019,3.536115 l 1.070064,1.106987 h -8.338465 -8.338466 l -4.720185,-4.68812 c -4.994913,-4.960985 -5.715519,-5.553117 -7.68458,-6.314537 -1.683628,-0.651044 -2.78444,-0.771192 -5.609322,-0.612224 -2.333962,0.131341 -2.468911,0.155629 -3.356671,0.604119 -0.50872,0.257002 -1.246329,0.715037 -1.639131,1.017855 -0.392801,0.302818 -4.410093,4.022163 -8.927315,8.265212 l -8.213129,7.714632 -11.784056,0.0068 c -6.4812312,0.0038 -12.3946847,0.0373 -13.1410082,0.07451 -0.7463236,0.03721 -1.5643674,0.0033 -1.81787518,-0.07539 z M 31.638405,63.129889 c 0.178762,-0.05737 0.512249,-0.556759 0.891091,-1.334383 1.053145,-2.161721 2.637544,-3.792699 4.809985,-4.951394 0.556746,-0.296946 1.040781,-0.563649 1.075634,-0.592674 0.03485,-0.02902 -0.575774,-0.660124 -1.356952,-1.402443 l -1.420321,-1.349673 -0.95694,0.500504 c -1.379079,0.721295 -2.865359,1.064285 -4.600844,1.061742 -2.247162,-0.0033 -4.06839,-0.564839 -5.724504,-1.765063 l -0.712347,-0.516253 -1.215953,1.189591 c -0.668775,0.654277 -1.589981,1.501029 -2.047125,1.881673 l -0.831172,0.692081 0.09273,0.724121 c 0.369152,2.882618 3.216358,5.197666 7.305912,5.940392 0.73569,0.133613 4.211347,0.07566 4.690804,-0.07822 z m 40.258878,-5.138353 c 3.664695,-0.639069 6.675211,-2.864247 8.361341,-6.180159 l 0.310089,-0.609818 -0.852637,-0.990664 c -0.468951,-0.544864 -1.176903,-1.471204 -1.573227,-2.058531 -0.396325,-0.587326 -0.774557,-1.101221 -0.840516,-1.141985 -0.06596,-0.04077 -0.411858,0.133435 -0.768662,0.387114 -0.868764,0.617668 -2.687942,1.456937 -3.829617,1.766774 -1.310104,0.355547 -4.704106,0.357561 -5.999156,0.0036 -1.760328,-0.481185 -3.661093,-1.524485 -4.966508,-2.72604 -0.335488,-0.308797 -0.634706,-0.53598 -0.664929,-0.504853 -0.03022,0.03113 -0.293745,0.667221 -0.585606,1.413545 -0.291861,0.746323 -0.81217,1.906773 -1.156243,2.578777 -0.344073,0.672004 -0.625579,1.282632 -0.625569,1.356952 3.5e-5,0.248933 1.373673,2.269403 2.050771,3.016458 2.688496,2.966269 7.033627,4.405043 11.140469,3.68887 z m -39.84405,-4.082713 c 1.8381,-0.35977 3.582922,-1.647765 5.734841,-4.233345 0.770044,-0.925229 1.635299,-1.942628 1.92279,-2.260889 0.449226,-0.49731 0.561116,-0.768394 0.79591,-1.9283 0.394397,-1.948366 0.369165,-4.169592 -0.0632,-5.563336 -0.474484,-1.529519 -1.116616,-2.663141 -2.023334,-3.571993 -0.764648,-0.766446 -2.088176,-1.669209 -2.233765,-1.523621 -0.03944,0.03944 0.329116,0.575386 0.819005,1.190998 0.985679,1.238636 1.556997,2.326627 1.559124,2.969118 0.0013,0.394711 -0.114167,0.307901 -1.819777,-1.368058 -2.12978,-2.092754 -3.395816,-3.12759 -4.935567,-4.034241 -2.026938,-1.193522 -3.984034,-2.947011 -5.072849,-4.545096 -0.478273,-0.701971 -1.500572,-2.730611 -1.634896,-3.244265 -0.04306,-0.164661 -0.140053,-0.299383 -0.215539,-0.299383 -0.23244,0 -2.007822,2.139933 -2.970078,3.579945 -3.090418,4.624797 -3.921417,9.890646 -2.542588,16.111797 0.325907,1.470461 0.409631,1.671659 0.891576,2.142555 0.29254,0.285836 1.215496,1.324578 2.051013,2.30832 1.455801,1.714067 2.74862,2.912523 3.826217,3.546936 1.498129,0.881996 3.713779,1.152942 5.911115,0.722858 z m 40.790576,-6.69921 c 2.023376,-0.69074 3.424445,-1.66507 4.93096,-3.429086 1.523621,-1.784046 2.420361,-3.036359 3.631668,-5.071689 0.607808,-1.021285 1.832227,-3.046 2.720931,-4.499367 1.863598,-3.047686 2.467174,-4.478621 2.402646,-5.696097 -0.05478,-1.033628 -0.279413,-1.155144 -2.140602,-1.157975 -0.761327,-0.0011 -1.410153,-0.05031 -1.441834,-0.109233 -0.03168,-0.05892 0.248534,-1.424681 0.622698,-3.035023 0.374166,-1.610342 0.669469,-2.936683 0.656231,-2.947424 -0.01324,-0.01074 -0.441869,0.04251 -0.952512,0.118329 -1.190242,0.176732 -4.272926,0.05348 -5.927737,-0.236995 -0.707043,-0.124111 -3.245972,-0.704604 -5.642063,-1.289984 -5.108307,-1.24799 -7.19521,-1.563443 -9.6415,-1.457392 -2.439032,0.105736 -6.113219,0.957952 -6.306979,1.462884 -0.06747,0.175834 0.384495,5.015604 0.609177,6.52319 l 0.07903,0.530247 -1.047213,-0.01186 c -1.801678,-0.02039 -2.603204,0.553075 -2.600644,1.860656 0.0017,0.890825 0.509411,2.492351 1.083796,3.419022 2.815688,4.542639 5.348464,8.490071 6.158336,9.598008 0.545543,0.746323 1.64474,2.007485 2.442661,2.80258 1.213412,1.209117 1.648572,1.541373 2.659832,2.03085 1.796872,0.869737 2.581867,1.025855 4.849462,0.964458 1.516231,-0.04105 2.126045,-0.119717 2.853659,-0.368109 z"
     id="path3322" />
  <path
     style="fill:#0000ff;stroke-width:0.672121"
     d="M 65.221097,108.31493 51.667565,94.886092 49.009093,97.507066 c -1.46216,1.441536 -4.941052,4.887314 -7.730871,7.657294 l -5.072397,5.03631 -10.324155,-0.0367 -10.324154,-0.0367 1.691264,-1.57121 c 0.930195,-0.86416 8.951347,-8.34645 17.824781,-16.627304 8.873436,-8.280855 16.277391,-15.185027 16.453236,-15.342607 l 0.319718,-0.286508 13.361617,13.316749 c 7.34889,7.324212 13.439853,13.29637 13.535475,13.27147 0.09562,-0.0249 5.552699,-5.476659 12.126835,-12.11501 l 11.952978,-12.06973 -5.507501,-5.517808 -5.507501,-5.517808 2.410421,-0.08712 c 1.325731,-0.04791 8.307801,-0.127889 15.515721,-0.177722 l 13.1053,-0.09061 v 15.693409 15.693408 l -5.32259,-5.321169 -5.32259,-5.32117 -7.64522,7.678695 C 98.241552,102.07086 81.888082,118.56788 79.427605,121.0777 l -0.652977,0.66607 z"
     id="path3324" />
  <path
     style="fill:#008080;stroke-width:0.672121"
     d="m 65.220852,108.19885 -13.552986,-13.411418 -7.757313,7.657378 -7.757314,7.65738 -10.112298,-0.0339 c -5.561764,-0.0186 -10.128434,-0.05 -10.148156,-0.0697 -0.03884,-0.0388 34.684125,-32.462056 35.477247,-33.127537 l 0.481234,-0.403786 12.604659,12.487824 c 6.932563,6.868304 12.971266,12.825339 13.419341,13.237859 l 0.814682,0.75003 0.399433,-0.28445 c 0.53241,-0.37915 23.753289,-23.817878 23.753289,-23.976131 0,-0.0679 -2.41037,-2.533183 -5.356379,-5.478405 -4.992168,-4.990837 -5.331556,-5.361591 -4.991288,-5.452592 0.200802,-0.0537 3.977052,-0.134601 8.391667,-0.179775 4.41462,-0.04517 11.16006,-0.1186 14.98988,-0.16317 l 6.96331,-0.08104 V 82.941766 98.55611 l -5.24998,-5.248537 c -2.88749,-2.886695 -5.3152,-5.248537 -5.39492,-5.248537 -0.1535,0 -2.66972,2.518761 -21.574536,21.596364 l -11.846588,11.95486 z"
     id="path6647" />
  <path
     style="fill:#ffffff;stroke-width:0.672121"
     d="M 0.71418521,83.303687 C 0.4140016,83.152078 0.34178562,82.987377 0.26104434,82.270225 0.1533647,81.313803 0.22477388,80.446832 0.84897018,75.132284 1.3761675,70.643607 1.5928293,69.432463 2.159154,67.808332 3.3833917,64.297406 5.1170966,62.6462 10.212848,60.137874 c 2.246199,-1.105666 3.317591,-1.583859 6.240418,-2.785278 0.859675,-0.353367 1.480319,-0.772166 2.856741,-1.927674 0.967151,-0.811925 2.139544,-1.865535 2.605317,-2.341355 0.759814,-0.776202 0.830905,-0.898752 0.691625,-1.192261 -0.08538,-0.179923 -0.836351,-1.098454 -1.668824,-2.041178 l -1.513587,-1.714045 -2.167322,-0.07142 -2.167322,-0.07142 -0.538992,-0.99642 c -1.065504,-1.969773 -1.498916,-4.833694 -1.373153,-9.073591 0.07831,-2.640246 0.324092,-3.969915 1.243523,-6.727522 1.702259,-5.105507 4.562021,-8.689832 8.522663,-10.682 1.900344,-0.955855 2.541588,-1.046841 6.980425,-0.990445 l 3.8566,0.049 1.002569,0.434692 c 4.762446,2.064893 8.749769,7.71568 10.07201,14.273931 0.379771,1.883641 0.517844,5.386856 0.289526,7.345852 -0.201957,1.732817 -0.662009,3.63617 -1.245363,5.152389 l -0.412166,1.071278 -1.44636,0.07142 -1.44636,0.07142 -1.773972,2.071137 c -0.975686,1.139125 -1.882105,2.159353 -2.014267,2.267172 -0.132162,0.107821 -0.240294,0.280107 -0.240294,0.382858 0,0.178508 2.621444,2.706162 3.062649,2.953072 0.280877,0.157187 12.55364,-2.885686 14.36347,-3.561235 0.746323,-0.278579 1.854619,-0.756025 2.462877,-1.060992 1.102538,-0.552787 1.10773,-0.55807 1.694169,-1.72444 0.76523,-1.521968 1.880357,-4.378546 1.795542,-4.59957 -0.03642,-0.09492 -0.478184,-0.747359 -0.981691,-1.449868 -1.093362,-1.525498 -3.2449,-4.815803 -5.484501,-8.387348 -1.907917,-3.042599 -2.367828,-4.200467 -2.396587,-6.033638 -0.01665,-1.061046 0.01584,-1.198115 0.441222,-1.861549 0.252556,-0.393892 0.747322,-0.919259 1.099481,-1.167485 l 0.64029,-0.451316 0.04774,-5.757425 c 0.04638,-5.593143 0.05718,-5.783918 0.378316,-6.685867 1.099874,-3.0890764 2.89811,-5.4676373 5.397428,-7.1392835 1.237264,-0.8275325 3.264269,-1.8482132 4.540398,-2.2862762 1.28802,-0.4421455 1.506601,-0.7114422 1.506601,-1.8561644 0,-1.39366432 0.102958,-1.48246626 1.690224,-1.4578212 4.236105,0.0657729 10.323077,2.5957607 14.545538,6.0457036 2.614669,2.1363042 4.350864,4.9639907 4.987021,8.1222127 0.211745,1.051209 0.235227,1.86574 0.17501,6.070574 -0.03825,2.671053 -0.04414,4.962729 -0.01308,5.092615 0.03106,0.129884 0.308791,0.403132 0.617183,0.607216 1.608131,1.06421 1.517975,3.517709 -0.24981,6.79841 -1.004076,1.863389 -4.393241,7.470676 -5.482196,9.070152 -0.534853,0.785604 -1.425518,1.973161 -1.979253,2.639017 -0.553736,0.665855 -1.006792,1.26434 -1.006792,1.329966 0,0.06562 0.51528,1.138099 1.145066,2.383273 1.308035,2.586166 1.602243,2.91285 3.368825,3.7407 1.76015,0.824834 3.343824,1.29777 9.269883,2.768287 2.985294,0.740784 5.909883,1.502136 6.499085,1.691893 l 1.071278,0.345015 -1.356952,0.02274 c -0.746323,0.01251 -3.253113,0.07672 -5.570644,0.142698 -3.766786,0.107232 -4.312165,0.15317 -5.142134,0.433132 -4.172882,1.407578 -7.132345,4.898968 -7.732719,9.122585 -0.49187,3.4603 0.513968,6.593111 3.025546,9.423434 l 1.288716,1.452261 H 76.125406 67.967329 L 63.443805,73.066133 C 60.955866,70.633506 58.518141,68.322632 58.026638,67.930862 55.651423,66.037609 52.825426,65.4459 48.38841,65.912801 c -1.479123,0.155647 -2.742499,0.745038 -4.068199,1.8979 -0.924112,0.803633 -6.454443,5.948405 -12.566473,11.690379 l -4.042185,3.797448 -9.106444,0.09474 C 4.9055275,83.53579 1.1363759,83.516918 0.71418521,83.303687 Z M 31.352731,63.223234 c 0.452555,-0.09631 0.805522,-0.556524 1.785463,-2.327957 0.707412,-1.278785 2.370139,-2.87839 3.970271,-3.819551 0.723084,-0.4253 1.314699,-0.809753 1.314699,-0.854338 0,-0.131247 -2.625309,-2.728916 -2.757952,-2.728916 -0.06661,0 -0.583869,0.222579 -1.149464,0.494619 -0.565596,0.27204 -1.465942,0.596102 -2.00077,0.720137 -1.241011,0.28781 -3.63842,0.291551 -4.862844,0.0076 -0.992717,-0.230226 -2.539407,-0.951552 -3.361878,-1.567871 -0.270583,-0.202758 -0.561841,-0.368655 -0.647238,-0.368655 -0.0854,0 -0.538915,0.389891 -1.007818,0.866425 -0.468904,0.476533 -1.372681,1.314822 -2.008396,1.862864 l -1.155843,0.996438 0.123513,0.815331 c 0.300625,1.984471 1.7626,3.75681 4.018567,4.871669 1.738591,0.85918 3.066104,1.137851 5.382878,1.129972 1.060565,-0.0036 2.121131,-0.0476 2.356812,-0.09775 z M 73.108087,57.78837 c 2.729145,-0.791754 5.320476,-2.741025 6.706217,-5.044601 0.895232,-1.488185 0.896423,-1.527365 0.07551,-2.483596 -0.395942,-0.461207 -1.09154,-1.35277 -1.545773,-1.981253 -0.454232,-0.628483 -0.876372,-1.199505 -0.938087,-1.26894 -0.06205,-0.06981 -0.611251,0.165695 -1.228648,0.526874 -2.531075,1.480684 -4.19205,1.891869 -7.176602,1.776613 -1.62762,-0.06286 -2.110611,-0.136916 -3.009989,-0.461549 -1.328597,-0.479561 -2.970502,-1.421903 -3.982144,-2.285478 -0.422572,-0.360722 -0.82906,-0.635609 -0.903308,-0.61086 -0.07425,0.02475 -0.378473,0.621902 -0.676054,1.327006 -0.297579,0.705105 -0.807033,1.853418 -1.132118,2.551808 -0.325085,0.698389 -0.591065,1.373981 -0.591065,1.501313 0,0.253396 1.042512,1.871261 1.829538,2.839243 1.414463,1.739683 3.98108,3.190451 6.756822,3.819261 1.337382,0.302968 4.44044,0.193139 5.815703,-0.205841 z M 32.672972,53.800589 c 1.047543,-0.326032 2.277654,-1.109806 3.365735,-2.144498 1.019744,-0.96971 3.697115,-4.089134 4.082681,-4.75676 0.460255,-0.796955 0.65249,-2.05982 0.648837,-4.262474 -0.0031,-1.871664 -0.03966,-2.172037 -0.379532,-3.11879 -0.530887,-1.478827 -1.186389,-2.500225 -2.208061,-3.440588 -0.918128,-0.84506 -1.82395,-1.422345 -1.982706,-1.263588 -0.05058,0.05058 0.293307,0.626249 0.764192,1.279268 0.968658,1.343331 1.459046,2.248608 1.459046,2.693465 0,0.235727 -0.406323,-0.07838 -1.821172,-1.407851 -2.429273,-2.282679 -2.798183,-2.580094 -4.963587,-4.001622 -3.189297,-2.093685 -5.15088,-4.336429 -6.298882,-7.201727 -0.161135,-0.402174 -0.362258,-0.678159 -0.494439,-0.678476 -0.28585,-7.15e-4 -1.93869,1.986056 -3.023231,3.633977 -1.508329,2.291853 -2.433649,4.60897 -2.879472,7.210564 -0.436904,2.549541 -0.22797,6.58471 0.485355,9.373786 0.272207,1.064322 0.310732,1.121352 2.196651,3.251854 3.445656,3.892519 4.488981,4.668189 6.849704,5.092473 1.024475,0.184124 3.207809,0.04944 4.198881,-0.259013 z m 40.516155,-6.646565 c 2.083457,-0.799092 3.31429,-1.74567 5.17849,-3.982544 1.311011,-1.573098 1.975611,-2.562902 4.291163,-6.390942 3.496271,-5.779988 3.900467,-6.623691 3.900467,-8.14168 0,-1.102446 -0.1831,-1.222035 -2.070421,-1.352264 -0.78521,-0.05418 -1.442753,-0.113609 -1.461206,-0.132064 -0.01846,-0.01845 0.254398,-1.313132 0.60634,-2.877065 0.351942,-1.563931 0.639895,-2.877539 0.639895,-2.919128 0,-0.04159 -1.301603,-0.07562 -2.892451,-0.07562 -3.286106,0 -3.329088,-0.0063 -8.748768,-1.284528 -6.457842,-1.523064 -6.770113,-1.573051 -9.784338,-1.566253 -2.803057,0.0063 -4.569992,0.266425 -6.360356,0.936286 -0.776375,0.290478 -0.781477,0.296306 -0.778565,0.889189 0.0026,0.531463 0.243585,3.186819 0.50905,5.60932 l 0.09536,0.870251 -1.101788,0.09314 c -1.968547,0.166403 -2.632131,0.786723 -2.453655,2.29368 0.210483,1.777205 1.282844,3.722289 5.914391,10.727736 1.548305,2.341887 2.040684,2.961211 3.591966,4.518052 1.526461,1.531928 1.960017,1.881383 2.87342,2.316024 1.789862,0.851706 2.357009,0.95669 4.852025,0.89815 1.977722,-0.0464 2.319084,-0.09226 3.198977,-0.429737 z"
     id="path6649" />
  <path
     style="fill:#ffffff;stroke-width:0.672121"
     d="M 0.66310455,83.163692 C 0.30485053,82.901731 0.21909141,81.687523 0.41742454,79.685266 0.75000501,76.327727 1.4490317,70.965792 1.709293,69.775895 2.4879343,66.216 3.9161219,64.031195 6.6460619,62.223748 c 1.3150802,-0.870694 5.3896821,-2.926941 7.7804791,-3.926421 0.903444,-0.377687 1.989592,-0.85135 2.413659,-1.052583 1.480552,-0.702567 5.872695,-4.527097 5.871487,-5.112692 -5.72e-4,-0.262629 -0.830881,-1.338244 -2.571664,-3.331323 -0.59909,-0.685917 -0.687361,-0.735929 -1.299023,-0.735995 -0.360941,-3.8e-5 -1.341123,-0.04197 -2.178182,-0.09319 l -1.521926,-0.09312 -0.356731,-0.63826 c -0.196201,-0.351044 -0.508809,-1.06439 -0.694684,-1.585216 -0.630618,-1.767005 -0.734219,-2.706944 -0.734124,-6.660437 8.8e-5,-3.625925 0.0098,-3.750899 0.409028,-5.28385 1.17266,-4.502348 2.736241,-7.539115 5.195028,-10.089716 1.852179,-1.921343 4.269012,-3.422511 6.151232,-3.820717 0.45508,-0.09628 2.338905,-0.160136 4.723989,-0.160136 h 3.967065 l 1.275166,0.623253 c 4.580432,2.23874 8.248433,7.491467 9.654483,13.825611 0.289063,1.302205 0.328309,1.867173 0.330854,4.762718 0.0026,2.924017 -0.03362,3.448286 -0.32909,4.767972 -0.316284,1.412617 -1.088341,3.835398 -1.288159,4.042347 -0.05165,0.05349 -0.730969,0.143406 -1.509599,0.199806 -1.397266,0.101213 -1.421434,0.109211 -1.856882,0.614461 -0.242654,0.281552 -1.132163,1.29945 -1.976687,2.261994 -0.844524,0.962545 -1.535498,1.857378 -1.535498,1.988518 0,0.22323 2.135072,2.396427 2.802782,2.85283 0.269281,0.184062 0.484624,0.167682 1.9283,-0.146681 4.811915,-1.047806 11.416801,-2.776407 13.129917,-3.436302 1.561112,-0.601343 2.857524,-1.256688 3.155716,-1.595236 0.499631,-0.567246 2.408559,-4.944745 2.408559,-5.523238 0,-0.114835 -1.045492,-1.774876 -2.323317,-3.688978 -4.489652,-6.725225 -6.088223,-9.50423 -6.388381,-11.105757 -0.363702,-1.94058 -0.09544,-2.812834 1.227783,-3.992208 l 0.811364,-0.723157 0.09745,-5.899264 0.09745,-5.899263 0.388884,-0.999859 c 0.445315,-1.14495 1.216348,-2.5957356 1.821891,-3.4280893 1.624044,-2.2323442 4.549385,-4.2793991 7.951455,-5.5641606 0.598273,-0.225932 1.124822,-0.5240312 1.236343,-0.6999398 0.10684,-0.168522 0.239405,-0.7766421 0.294593,-1.3513782 0.09178,-0.95580317 0.132543,-1.05747153 0.477702,-1.19142127 0.524052,-0.20337436 2.561343,-0.0274598 4.342181,0.37493531 4.444808,1.00434096 10.184373,4.14859656 12.802931,7.01371796 1.577133,1.7256339 2.78658,3.9528619 3.299256,6.0756629 0.264349,1.094568 0.289397,1.66119 0.287831,6.511032 l -0.0017,5.31213 0.578979,0.47277 c 0.844011,0.689185 1.176894,1.412394 1.169641,2.541127 -0.01106,1.720355 -0.794804,3.445666 -3.924772,8.639797 -2.165263,3.59322 -3.124433,5.03505 -4.628445,6.957498 -0.656219,0.838787 -1.193123,1.630525 -1.193123,1.759418 0,0.449347 2.052024,4.277589 2.627579,4.901993 1.202076,1.304098 3.075865,1.981682 11.312511,4.090736 3.213562,0.822855 6.03567,1.551506 6.271351,1.61922 l 0.428511,0.12312 -0.571348,0.09479 c -0.314241,0.05214 -1.535498,0.09761 -2.713904,0.101061 -4.009043,0.01173 -7.339545,0.238181 -8.275172,0.562664 -3.804978,1.319593 -6.574648,4.42367 -7.437843,8.335879 -0.389911,1.767171 -0.254399,4.360953 0.312481,5.981085 0.530156,1.51517 1.411774,2.957861 2.73261,4.471669 l 0.997031,1.142697 -7.997224,0.0369 -7.997226,0.0369 -4.093377,-3.975399 c -5.14017,-4.991993 -5.822656,-5.617483 -6.86328,-6.290071 -1.82392,-1.178855 -4.569473,-1.698684 -7.681913,-1.454452 -1.891238,0.148405 -2.778479,0.377649 -3.845355,0.993563 -0.957695,0.552883 -1.909175,1.41729 -13.075947,11.879329 L 27.731086,83.15646 24.61403,83.25059 C 22.89965,83.30236 16.865271,83.34487 11.204299,83.34507 3.0992597,83.345349 0.85880216,83.306791 0.66310455,83.163692 Z M 31.747471,63.063598 c 0.199018,-0.156547 0.74897,-0.911797 1.222118,-1.678335 1.0753,-1.742071 2.27162,-2.958711 4.060914,-4.129888 0.765964,-0.501359 1.392661,-0.997598 1.392661,-1.102753 0,-0.259078 -2.505904,-2.66015 -2.776292,-2.66015 -0.118328,0 -0.57765,0.160319 -1.020718,0.356266 -1.732967,0.766399 -2.592492,0.948835 -4.502003,0.955555 -1.286174,0.0045 -2.037985,-0.06287 -2.633955,-0.236122 -0.901688,-0.262129 -2.641721,-1.092544 -3.191453,-1.523092 -0.187355,-0.146735 -0.462662,-0.266792 -0.611792,-0.266792 -0.149132,0 -0.920248,0.614402 -1.713593,1.365338 -0.793344,0.750935 -1.697281,1.570129 -2.008746,1.820429 -0.554288,0.445438 -0.564341,0.469873 -0.473873,1.15185 0.302567,2.28086 2.042715,4.303474 4.635794,5.388288 1.577307,0.659866 2.544581,0.820034 5.02867,0.83268 2.021374,0.01029 2.264335,-0.01532 2.592268,-0.273274 z m 41.59935,-5.286076 c 2.843028,-0.892265 5.482625,-3.006316 6.77038,-5.42239 0.24359,-0.457021 0.44289,-0.955878 0.44289,-1.108571 0,-0.152693 -0.530282,-0.951733 -1.178405,-1.775643 -0.648123,-0.82391 -1.339097,-1.734039 -1.535498,-2.022508 -0.196401,-0.28847 -0.411942,-0.524929 -0.47898,-0.525466 -0.06704,-5.72e-4 -0.966913,0.417361 -1.999719,0.928663 -1.158532,0.573542 -2.260826,1.0103 -2.87769,1.140216 -1.363433,0.287149 -4.602606,0.284275 -5.719181,-0.0051 -1.25937,-0.326351 -3.036836,-1.234766 -4.345472,-2.220853 -0.635912,-0.479174 -1.239898,-0.839108 -1.342194,-0.799853 -0.247642,0.09503 -2.376928,4.885252 -2.376928,5.347338 0,0.451126 1.411446,2.599072 2.280869,3.471039 1.345695,1.349634 3.520769,2.538106 5.755327,3.144743 1.466034,0.397999 5.120638,0.314088 6.604601,-0.151644 z M 31.709823,54.056441 c 1.993807,-0.317952 3.7148,-1.477152 5.914879,-3.984049 1.99125,-2.268948 2.642148,-3.160942 2.893103,-3.964729 0.342233,-1.096139 0.426066,-4.750565 0.135324,-5.899036 -0.291728,-1.152366 -0.910733,-2.440432 -1.59468,-3.318307 -0.883936,-1.13457 -2.920677,-2.53924 -2.920677,-2.014289 0,0.05237 0.44184,0.775478 0.981867,1.606916 0.941039,1.448843 1.294671,2.154473 1.079732,2.154473 -0.05511,0 -0.707831,-0.562421 -1.450485,-1.249824 -2.160365,-1.999643 -3.015382,-2.701344 -4.610552,-3.783822 -3.614879,-2.453048 -5.134404,-4.092133 -6.562389,-7.078738 -0.308051,-0.644282 -0.577414,-1.028624 -0.720906,-1.028624 -0.460331,0 -2.373768,2.341078 -3.573258,4.371856 -1.253561,2.122324 -2.053547,4.313085 -2.430111,6.654855 -0.258132,1.605273 -0.103444,6.341306 0.265298,8.122541 0.375949,1.816046 0.551695,2.196063 1.55443,3.36112 2.616733,3.040332 4.485279,4.836688 5.649564,5.431299 1.386444,0.708069 3.386879,0.937613 5.388861,0.618358 z m 40.575226,-6.564927 c 1.050758,-0.199272 2.886185,-1.124016 3.941558,-1.985878 1.092135,-0.891883 2.917997,-3.057414 4.156826,-4.930135 1.395847,-2.110078 4.97875,-8.137787 5.566967,-9.365607 0.423766,-0.884549 0.524546,-1.274148 0.578184,-2.235154 0.06218,-1.114095 0.04985,-1.17378 -0.288409,-1.395414 -0.210937,-0.138212 -0.881839,-0.280301 -1.664479,-0.352519 -0.721108,-0.06654 -1.342958,-0.152831 -1.381885,-0.19176 -0.03893,-0.03893 0.188118,-1.252711 0.504545,-2.697298 0.316428,-1.444585 0.575363,-2.739003 0.575411,-2.876483 8e-5,-0.229085 -0.221334,-0.249965 -2.650747,-0.249965 -3.240656,0 -3.562711,-0.04749 -9.317595,-1.373897 -5.50523,-1.268869 -6.820698,-1.481264 -9.171453,-1.48083 -2.867536,5.71e-4 -5.29871,0.361763 -6.820468,1.013413 l -0.607058,0.259955 0.0075,1.112062 c 0.0041,0.611635 0.122552,2.172628 0.263133,3.468875 0.140578,1.296246 0.237682,2.379516 0.215782,2.407265 -0.0219,0.02775 -0.522335,0.104568 -1.112083,0.170706 -1.819788,0.20408 -2.375959,0.670633 -2.370929,1.988887 0.0062,1.627168 0.964827,3.538348 4.547862,9.066996 2.599636,4.011254 3.249699,4.86246 5.168644,6.767914 1.365394,1.355797 1.816226,1.70875 2.775788,2.173142 0.630097,0.304943 1.402737,0.614568 1.716979,0.688056 0.78279,0.183058 4.430459,0.195071 5.365895,0.01767 z"
     id="path6651" />
  <path
     style="fill:#008080;stroke-width:0.672121"
     d="M 0.63435781,83.142192 C 0.38417346,82.95882 0.35869861,82.766992 0.3735356,81.178183 0.38933235,79.486598 1.0269285,73.67956 1.5156924,70.775754 c 0.6924906,-4.114171 2.1869811,-6.606906 5.12623,-8.550292 1.4167947,-0.936764 5.4383216,-2.952396 8.2845486,-4.152306 1.178405,-0.49679 2.4318,-1.098567 2.785322,-1.33728 1.73743,-1.173188 4.999297,-4.172576 4.999297,-4.597008 0,-0.270192 -0.494798,-0.924382 -2.142556,-2.832755 -1.056261,-1.223322 -1.080477,-1.240719 -1.727534,-1.241081 -0.360941,-1.43e-4 -1.341123,-0.04227 -2.178182,-0.09349 l -1.521926,-0.09312 -0.356731,-0.63826 C 14.58796,46.889118 14.275352,46.175772 14.089477,45.654946 13.457396,43.88384 13.355025,42.95055 13.35891,38.994509 c 0.0034,-3.414596 0.03076,-3.823073 0.340193,-5.070715 0.432851,-1.745258 1.160834,-3.838495 1.865068,-5.362808 1.730518,-3.745697 4.842894,-6.89961 8.26709,-8.377417 l 1.093803,-0.47206 4.427948,-0.04292 4.427948,-0.04292 1.285534,0.63046 c 3.923083,1.923985 7.210579,6.05029 8.921866,11.198293 0.956619,2.877769 1.071796,3.678432 1.074373,7.468663 0.0021,3.148007 -0.02131,3.454342 -0.37718,4.927878 -0.208704,0.864164 -0.566562,2.085421 -0.795241,2.713904 l -0.41578,1.142696 -1.469938,0.131131 -1.469937,0.131132 -1.984186,2.270218 c -1.091304,1.248618 -1.984188,2.347859 -1.984188,2.442756 0,0.155992 2.310759,2.509564 2.876233,2.92952 0.187353,0.139141 0.570092,0.100943 1.928301,-0.192444 1.994422,-0.430816 9.132199,-2.211653 10.978959,-2.73919 2.232631,-0.637765 4.755003,-1.736374 5.233222,-2.279311 0.498565,-0.566036 2.408559,-4.944365 2.408559,-5.521203 0,-0.113714 -0.858063,-1.484509 -1.906808,-3.046211 -4.568316,-6.802748 -6.50701,-10.150119 -6.805563,-11.750559 -0.361544,-1.938116 -0.10122,-2.789285 1.223325,-3.999846 l 0.812025,-0.742144 0.100068,-5.88595 c 0.09966,-5.861907 0.10156,-5.889784 0.465525,-6.823951 1.431057,-3.6730097 3.708838,-6.1304416 7.396962,-7.980367 0.746323,-0.3743482 1.765066,-0.8348185 2.263873,-1.0232671 1.360508,-0.5139984 1.535129,-0.7289136 1.658049,-2.0406483 0.09567,-1.02095672 0.132126,-1.11536592 0.483298,-1.25163119 0.526646,-0.20435471 2.559551,-0.0293562 4.344641,0.37399973 4.455272,1.00670546 10.178207,4.14185096 12.802931,7.01371796 1.577133,1.7256339 2.78658,3.9528619 3.299256,6.0756629 0.264354,1.094597 0.289397,1.661182 0.28783,6.512386 l -0.0017,5.313484 0.587034,0.471416 c 0.835998,0.671346 1.168917,1.39926 1.161588,2.539773 -0.01105,1.720002 -0.793737,3.443195 -3.924255,8.639797 -2.123017,3.524167 -3.092802,4.987368 -4.628648,6.983654 -0.656392,0.853172 -1.193438,1.647471 -1.193438,1.765112 0,0.40658 2.038167,4.186071 2.6042,4.82912 1.065182,1.210108 3.071932,1.988143 9.179856,3.559106 8.211517,2.11201 8.820276,2.282469 8.4764,2.373485 -0.184079,0.04872 -2.254477,0.132298 -4.600884,0.185728 -4.740447,0.107945 -5.880548,0.223579 -7.113158,0.721451 -3.383875,1.36681 -5.924339,4.288448 -6.83092,7.855842 -0.348038,1.369536 -0.381198,3.679448 -0.074,5.154995 0.328895,1.579763 1.427378,3.630806 2.851379,5.32398 l 1.228548,1.460779 h -8.010848 -8.010847 l -4.884165,-4.725663 c -2.904759,-2.810495 -5.282561,-4.990814 -5.867205,-5.379918 -1.987459,-1.322733 -4.686105,-1.871873 -7.910911,-1.609767 -2.478811,0.201471 -3.461807,0.562829 -4.985382,1.832669 -0.901241,0.751147 -4.543828,4.126005 -11.990556,11.109252 l -4.735118,4.440405 -3.123475,0.09432 c -1.717911,0.05188 -7.755178,0.09448 -13.41615,0.09467 C 2.5283678,83.345349 0.86807098,83.313493 0.63435781,83.142192 Z M 31.747471,63.063598 c 0.199018,-0.156547 0.74897,-0.911797 1.222118,-1.678335 1.070721,-1.734652 2.263767,-2.950165 4.060914,-4.137387 0.765964,-0.506005 1.392697,-0.995554 1.392743,-1.087884 1.15e-4,-0.24242 -2.526445,-2.66752 -2.779126,-2.66752 -0.116814,0 -0.574898,0.160319 -1.017966,0.356266 -1.732967,0.766399 -2.592492,0.948835 -4.502003,0.955555 -1.286174,0.0045 -2.037985,-0.06287 -2.633955,-0.236122 -0.862979,-0.250875 -2.566743,-1.053786 -3.229949,-1.522138 -0.208527,-0.14726 -0.475253,-0.267746 -0.592722,-0.267746 -0.117469,0 -0.783028,0.530282 -1.479019,1.178405 -0.695992,0.648124 -1.614169,1.480996 -2.040391,1.85083 l -0.774951,0.672423 0.157893,0.849027 c 0.426574,2.293792 2.231915,4.251675 4.894077,5.307606 1.341591,0.532135 2.397187,0.688418 4.730069,0.700294 2.021374,0.01029 2.264335,-0.01532 2.592268,-0.273274 z m 41.59935,-5.288249 c 2.974081,-0.939859 5.602147,-3.096868 6.908049,-5.669847 0.167872,-0.330752 0.304624,-0.716412 0.303893,-0.857023 -7.14e-4,-0.14061 -0.642667,-1.079406 -1.426525,-2.086215 -0.78386,-1.006808 -1.484501,-1.936524 -1.556979,-2.066039 -0.115674,-0.206697 -0.374743,-0.117979 -2.119542,0.725832 -1.180934,0.571117 -2.389198,1.046353 -2.97677,1.170827 -1.336093,0.283044 -4.589048,0.282362 -5.708329,-0.0011 -1.193342,-0.302323 -2.925586,-1.182235 -4.341474,-2.205302 -0.662618,-0.478782 -1.273246,-0.847771 -1.356951,-0.819976 -0.183625,0.06097 -2.166438,4.41268 -2.298026,5.043504 -0.06524,0.312759 -0.0055,0.61692 0.200231,1.020278 0.439304,0.861109 1.925537,2.754909 2.585427,3.294428 1.367605,1.118135 3.323071,2.098463 5.208577,2.611198 1.443554,0.392553 5.111578,0.303079 6.578419,-0.160466 z M 32.727757,53.820743 c 1.258037,-0.425816 2.356119,-1.158411 3.62175,-2.416283 1.516183,-1.506889 3.570659,-3.966926 3.934807,-4.711551 0.389843,-0.797168 0.612244,-2.788738 0.532696,-4.770237 -0.0744,-1.853177 -0.433092,-3.036774 -1.332435,-4.396667 -0.808839,-1.223038 -2.548713,-2.745185 -3.137856,-2.745185 -0.317834,0 -0.271467,0.09727 0.915646,1.920771 0.930005,1.428567 1.173015,1.935829 0.927381,1.935829 -0.04982,0 -0.697377,-0.562421 -1.439016,-1.249824 -2.010975,-1.863911 -2.797025,-2.504548 -4.683814,-3.817337 -3.47115,-2.415155 -4.790403,-3.788794 -6.151814,-6.40542 -0.442235,-0.849975 -0.897953,-1.581436 -1.012706,-1.625472 -0.291735,-0.11195 -0.893116,0.497313 -2.190958,2.219671 -1.959477,2.600411 -3.293759,5.572176 -3.796511,8.455737 -0.464482,2.664058 -0.0726,8.482152 0.692936,10.287771 0.269301,0.635182 2.540536,3.255336 4.337323,5.003647 2.310958,2.248609 3.503427,2.746439 6.336267,2.645251 1.103366,-0.03941 1.906467,-0.14798 2.446304,-0.330701 z m 40.600409,-6.660774 c 2.555866,-0.992112 4.597499,-2.901623 7.056602,-6.59994 1.313116,-1.974838 4.628558,-7.541734 5.398463,-9.064461 0.615759,-1.217855 0.692454,-1.476257 0.748202,-2.520828 0.05938,-1.112675 0.04657,-1.174062 -0.291258,-1.395414 -0.210937,-0.138212 -0.881839,-0.280301 -1.664479,-0.352519 -0.721108,-0.06654 -1.344308,-0.154183 -1.384886,-0.19476 -0.04058,-0.04058 0.191063,-1.276479 0.514757,-2.746446 0.323696,-1.469968 0.55386,-2.763036 0.511477,-2.873484 -0.06228,-0.16229 -0.572782,-0.200816 -2.660958,-0.200816 -3.184879,0 -3.476078,-0.04366 -9.566217,-1.434207 -5.449523,-1.244279 -6.581051,-1.423081 -8.994987,-1.421363 -2.732311,0.0019 -5.187884,0.374709 -6.681378,1.014256 l -0.607058,0.259955 0.0068,1.040643 c 0.0038,0.572356 0.121464,2.133349 0.261552,3.468875 0.140089,1.335526 0.237501,2.450935 0.216471,2.478684 -0.02103,0.02775 -0.520757,0.104568 -1.110505,0.170706 -1.788949,0.200622 -2.373938,0.675538 -2.373938,1.927253 0,1.740404 0.94795,3.594014 5.073828,9.921317 2.008741,3.080535 2.928413,4.247061 4.763399,6.041964 1.438752,1.407325 1.899267,1.766841 2.790869,2.178786 1.545215,0.713934 1.896557,0.769416 4.583768,0.72385 2.235949,-0.03791 2.505927,-0.07134 3.409434,-0.422051 z"
     id="path6653" />
  <path
     style="fill:#008080;stroke-width:0.672121"
     d="M 4.6011085,83.202918 C 1.3462994,83.142994 0.68110268,83.095819 0.56814935,82.916903 0.26110325,82.430547 0.52211748,78.647413 1.2284295,73.346821 1.6639191,70.078642 2.0990835,68.24454 2.7784066,66.814079 3.7360112,64.797637 4.8666257,63.513498 6.777788,62.271631 c 1.2829742,-0.833671 5.175553,-2.812774 7.577335,-3.852542 2.509287,-1.086309 3.38756,-1.567688 4.587116,-2.514188 1.748418,-1.379574 3.768851,-3.409381 3.768851,-3.786337 0,-0.338298 -1.135135,-1.848954 -2.439507,-3.246533 l -0.774327,-0.829659 -2.142555,-0.124295 c -1.178406,-0.06836 -2.162808,-0.127622 -2.18756,-0.13169 -0.131166,-0.02156 -1.060108,-2.261776 -1.341949,-3.236224 -0.3073,-1.062467 -0.326195,-1.375586 -0.32663,-5.412814 -4.57e-4,-4.277095 3e-4,-4.287783 0.405008,-5.713481 1.864364,-6.567707 4.793836,-10.542131 9.554817,-12.963052 l 1.181003,-0.600529 4.499366,-0.103487 4.499367,-0.103487 1.213887,0.600447 c 4.103809,2.029947 7.393445,6.170416 9.135817,11.498714 0.897839,2.745653 0.93196,3.007823 0.93325,7.17062 0.0013,4.105959 -0.06113,4.534212 -1.113482,7.641782 l -0.338594,0.999859 -0.701747,0.103635 c -0.38596,0.057 -1.072689,0.142139 -1.526064,0.189199 l -0.824318,0.08557 -1.889585,2.208634 c -1.039273,1.214749 -1.910933,2.305588 -1.937022,2.424087 -0.05707,0.259221 1.269091,1.799846 2.272349,2.63982 l 0.722095,0.604572 1.026144,-0.181257 c 1.689,-0.298344 11.696307,-2.828983 13.051894,-3.300553 0.691952,-0.240709 1.850039,-0.722451 2.573526,-1.070538 1.529699,-0.735972 1.590223,-0.815158 2.857105,-3.737986 1.217986,-2.810019 1.359917,-2.222926 -1.641225,-6.788842 -5.105453,-7.767404 -6.179877,-9.815789 -6.198716,-11.817823 -0.01107,-1.177246 0.279565,-1.781698 1.370677,-2.850609 l 0.79694,-0.780724 0.0088,-2.647365 c 0.01635,-4.913557 0.221427,-9.157626 0.475788,-9.846466 1.185961,-3.2117384 3.335377,-5.7154746 6.514414,-7.5882893 0.432082,-0.2545456 1.555528,-0.7991223 2.496547,-1.2101704 1.024207,-0.4473853 1.811629,-0.8840697 1.961791,-1.0879591 0.137966,-0.1873292 0.312714,-0.7846358 0.388331,-1.3273481 0.07561,-0.5427123 0.221236,-1.04495967 0.323602,-1.11610521 0.327915,-0.22790668 3.109232,0.001117 4.663248,0.38398818 5.328337,1.31277153 11.443592,5.07879813 13.692178,8.43220763 0.741348,1.1056013 1.420476,2.4570993 1.866169,3.7137633 0.317228,0.894442 0.366606,1.331169 0.46834,4.142274 0.06255,1.728328 0.118768,4.351776 0.124931,5.829882 l 0.0112,2.687469 0.692692,0.674703 c 1.086927,1.058699 1.263169,2.28761 0.602963,4.204374 -0.804728,2.336349 -4.732947,8.96785 -7.817334,13.19699 -0.812457,1.113996 -1.477195,2.159917 -1.477195,2.324272 0,0.702922 2.320849,4.781498 3.027121,5.319753 0.740566,0.564391 1.777334,1.043715 3.469255,1.603923 1.466828,0.485677 2.919079,0.882344 10.498347,2.867509 1.687461,0.441981 3.096191,0.831682 3.130511,0.866003 0.03432,0.03432 -0.221488,0.06343 -0.568462,0.06468 -2.759373,0.01 -8.914854,0.323726 -9.757602,0.497393 -3.436508,0.708169 -6.570767,3.642196 -7.897286,7.392768 -0.493105,1.394196 -0.640387,4.80334 -0.270098,6.251961 0.45704,1.787998 1.604936,3.756864 3.516414,6.031335 l 0.450154,0.535639 H 76.13391 68.251936 l -3.777587,-3.640949 c -5.709587,-5.50307 -6.788961,-6.445113 -8.125142,-7.091373 -1.69141,-0.818072 -2.865278,-1.035766 -5.570644,-1.033078 -3.177802,0.0032 -4.52109,0.358058 -6.070575,1.60386 -0.934341,0.751222 -2.972761,2.627415 -10.390513,9.56359 l -6.616358,6.186809 -2.530726,0.06112 c -4.230295,0.10216 -16.431272,0.140032 -20.5692882,0.06385 z M 31.830168,63.085046 c 0.144751,-0.144751 0.719577,-0.93214 1.277391,-1.749753 1.206626,-1.768609 2.075348,-2.652513 3.891527,-3.959536 0.743718,-0.535222 1.37398,-1.086146 1.400581,-1.224275 0.06782,-0.352167 -2.362883,-2.65901 -2.801779,-2.65901 -0.179161,0 -0.693401,0.154474 -1.142755,0.343275 -1.708109,0.717677 -2.43186,0.858882 -4.387936,0.856088 -1.049244,-0.0015 -2.125348,-0.08011 -2.474126,-0.180745 -0.690614,-0.199262 -2.394561,-0.978101 -3.188338,-1.457322 -0.83602,-0.504725 -0.718224,-0.578501 -4.376426,2.741 l -0.754481,0.684627 0.217083,0.936044 c 0.31182,1.34454 0.847729,2.301639 1.845984,3.296808 0.986201,0.983152 2.288461,1.762272 3.659589,2.189472 1.282984,0.399737 1.33532,0.405179 4.106565,0.427057 2.218757,0.01752 2.490128,-0.0067 2.727121,-0.24373 z m 40.731049,-5.08031 c 2.077072,-0.371087 4.303719,-1.661851 6.027169,-3.49389 1.104162,-1.173731 1.971705,-2.587983 1.971705,-3.214232 0,-0.249332 -0.49456,-1.024839 -1.513021,-2.372526 -0.832161,-1.101167 -1.577486,-2.00212 -1.656275,-2.00212 -0.07879,0 -1.006933,0.38702 -2.062542,0.860045 -2.630576,1.178778 -3.117435,1.287593 -5.766614,1.288856 -3.026704,0.0014 -3.97669,-0.309613 -6.980523,-2.285627 -0.736154,-0.484266 -1.41919,-0.849504 -1.517859,-0.81164 -0.360754,0.138433 -2.358143,4.659488 -2.355893,5.332519 0.0028,0.822823 1.754529,3.219444 3.172433,4.340234 1.175964,0.929546 3.708929,2.100964 5.325031,2.462665 0.650179,0.145515 4.362762,0.07323 5.356389,-0.104284 z M 31.924079,54.06667 c 1.609603,-0.259809 2.794002,-1.001432 4.78727,-2.997598 2.02009,-2.023027 3.604699,-4.043511 3.855404,-4.915903 0.09296,-0.323484 0.201205,-1.616579 0.240544,-2.873545 0.08191,-2.617308 -0.09488,-3.701895 -0.827439,-5.076323 -0.530208,-0.994772 -1.600236,-2.220551 -2.541665,-2.911623 -0.666829,-0.489497 -1.300421,-0.669062 -1.300421,-0.368548 0,0.07827 0.449936,0.863391 0.999859,1.744713 0.549922,0.881323 0.999859,1.65969 0.999859,1.729705 0,0.07002 -0.519961,-0.345514 -1.15547,-0.9234 -2.005054,-1.823252 -2.686026,-2.381252 -4.538463,-3.718891 -3.764349,-2.718222 -4.847002,-3.81926 -6.365288,-6.473382 -0.449404,-0.785604 -0.901624,-1.515323 -1.004933,-1.621598 -0.320441,-0.329637 -0.741989,-0.05305 -1.667251,1.093944 -2.451891,3.03945 -4.017521,6.302588 -4.563377,9.511137 -0.348913,2.050921 -0.02543,7.709225 0.564852,9.880205 0.194601,0.715721 1.912457,2.826204 4.013841,4.931232 2.520535,2.524907 3.684362,3.109199 6.217285,3.121353 0.785604,0.0038 1.814031,-0.0554 2.285393,-0.131478 z m 41.577216,-6.883556 c 2.617794,-1.098177 4.716269,-3.168919 7.399544,-7.301752 1.383696,-2.131196 4.181919,-6.8732 4.961942,-8.408745 0.552408,-1.087466 0.610493,-1.304984 0.667209,-2.498586 0.07482,-1.57461 0.08936,-1.560657 -1.869476,-1.794067 -0.723305,-0.08619 -1.339957,-0.176937 -1.370335,-0.201663 -0.03038,-0.02473 0.188065,-1.22905 0.485431,-2.676272 0.297367,-1.447222 0.504954,-2.724383 0.461304,-2.838132 -0.06368,-0.165937 -0.626855,-0.225777 -2.849126,-0.302732 -3.198043,-0.110746 -3.602655,-0.173933 -9.661588,-1.508812 -5.862999,-1.291711 -6.291966,-1.347682 -9.630781,-1.256615 -2.820664,0.07694 -4.107027,0.268258 -5.626799,0.836878 l -0.762174,0.285166 0.003,1.382398 c 0.0016,0.760319 0.09614,2.282272 0.210028,3.382117 0.113884,1.099845 0.208963,2.071214 0.211289,2.158599 0.0023,0.08795 -0.362421,0.201683 -0.817085,0.254761 -1.236748,0.144379 -1.888742,0.355128 -2.266103,0.732489 -0.501455,0.501455 -0.484462,2.013709 0.0374,3.328874 0.622677,1.569216 2.296748,4.406237 4.945073,8.380329 1.869068,2.804736 2.697014,3.838606 4.486484,5.602349 1.604533,1.581465 2.326698,2.076821 3.759884,2.579024 0.864415,0.302899 1.115593,0.322006 3.642344,0.277067 2.528303,-0.04497 2.77331,-0.07319 3.582563,-0.412675 z"
     id="path6655" />
  <path
     style="fill:#ffffff;stroke-width:0.672121"
     d="m 67.030851,47.273757 c -1.093178,-0.294454 -2.715669,-1.154347 -3.598103,-1.906933 -1.969787,-1.679936 -3.751218,-4.074579 -7.60953,-10.228912 -2.091124,-3.33552 -2.445353,-4.002156 -2.748736,-5.172949 -0.280963,-1.084272 -0.282666,-1.514051 -0.0081,-2.044997 0.313804,-0.606831 0.956034,-0.876921 2.28186,-0.959636 l 1.159614,-0.07235 -0.176252,-1.374262 c -0.283977,-2.214202 -0.532252,-5.394639 -0.439908,-5.635283 0.219293,-0.571468 4.339156,-1.381042 7.028024,-1.381042 2.166995,0 3.866049,0.280053 9.070152,1.495024 6.221582,1.452516 5.90447,1.402226 9.141571,1.449753 2.774693,0.04074 2.926573,0.05716 2.897909,0.313267 -0.01664,0.148651 -0.25217,1.260081 -0.523404,2.469844 -0.271233,1.209762 -0.534042,2.399987 -0.584016,2.644944 l -0.09087,0.445377 1.580382,0.102429 c 1.970823,0.127734 2.055,0.191653 1.980836,1.50416 -0.07071,1.251335 -0.714684,2.575273 -3.474991,7.144158 -2.527215,4.18307 -3.405415,5.487905 -4.902877,7.284723 -1.811308,2.173406 -3.775918,3.494242 -5.851644,3.934147 -1.229498,0.260565 -4.146184,0.254048 -5.131918,-0.01147 z"
     id="path6657" />
  <path
     style="fill:#ffffff;stroke-width:0.672121"
     d="m 67.204828,57.827946 c -2.142414,-0.454303 -4.173552,-1.509621 -5.795273,-3.011049 -0.862245,-0.798287 -2.560694,-3.139991 -2.560694,-3.530509 0,-0.126102 0.222987,-0.67207 0.495527,-1.213262 0.27254,-0.541191 0.729767,-1.551944 1.016061,-2.246117 0.811501,-1.967637 0.684951,-1.861804 1.460667,-1.22154 1.454984,1.200922 2.753505,1.935024 4.396185,2.485324 0.891121,0.298527 1.238524,0.330109 3.558594,0.323508 2.463903,-0.007 2.615718,-0.02413 3.642344,-0.410644 1.133198,-0.426641 2.249707,-0.970442 3.246012,-1.580986 l 0.603527,-0.369847 0.682007,0.956809 c 0.375104,0.526244 1.091253,1.467095 1.591444,2.09078 1.040785,1.297747 1.043665,1.141496 -0.05227,2.835635 -1.595326,2.46612 -4.31641,4.3082 -7.243105,4.903332 -1.361646,0.276886 -3.706443,0.271567 -5.041028,-0.01143 z"
     id="path6659" />
  <path
     style="fill:#ffffff;stroke-width:0.672121"
     d="M 25.996342,62.913626 C 22.638074,62.048305 20.200539,59.896765 19.74615,57.396768 l -0.133975,-0.737113 2.044426,-1.872593 2.044425,-1.872592 0.683437,0.48616 c 1.67364,1.190536 3.288246,1.66305 5.682734,1.66305 1.847747,0 3.265224,-0.304762 4.636091,-0.996774 l 0.881324,-0.444891 0.955056,0.850209 c 0.52528,0.467615 1.138332,1.043345 1.362337,1.2794 l 0.407281,0.429192 -0.335863,0.204812 c -0.184724,0.112647 -0.828249,0.505035 -1.430054,0.871975 -1.470458,0.896582 -2.971812,2.516148 -3.965808,4.278061 -0.604813,1.072063 -0.868133,1.406038 -1.199721,1.52163 -0.745134,0.259755 -4.170757,0.168303 -5.381498,-0.143668 z"
     id="path6661" />
  <path
     style="fill:#008080;stroke-width:0.672121"
     d="M 4.6011085,83.202577 C 1.3460369,83.142934 0.68111179,83.095833 0.56814935,82.916903 0.26110325,82.430547 0.52211748,78.647413 1.2284295,73.346821 1.6639191,70.078642 2.0990835,68.24454 2.7784066,66.814079 3.735344,64.799041 4.8642545,63.516301 6.777788,62.269731 c 1.2599489,-0.820794 5.404175,-2.904343 8.641848,-4.344771 1.408857,-0.626795 2.428485,-1.192798 3.211049,-1.782478 1.581545,-1.191729 4.083623,-3.648832 4.080305,-4.006962 -0.0032,-0.341359 -1.060398,-1.769007 -2.309911,-3.119211 l -0.903823,-0.976655 -2.133265,-0.115007 c -2.438254,-0.131449 -2.254783,-0.0277 -2.93396,-1.659151 -0.890935,-2.140121 -0.929743,-2.437288 -0.930886,-7.128147 -0.001,-4.277919 -3.57e-4,-4.287508 0.404425,-5.713481 1.275942,-4.494842 2.840791,-7.408315 5.298411,-9.864713 1.432374,-1.431663 2.484527,-2.197485 4.256406,-3.098074 l 1.181003,-0.600267 4.570785,-0.09856 4.570785,-0.09856 1.214115,0.647785 c 4.018508,2.144055 7.083222,5.942178 8.851592,10.969836 0.920067,2.615849 1.025932,3.281118 1.107361,6.958758 0.0857,3.870675 -0.03561,4.860703 -0.941349,7.682039 l -0.527333,1.642626 -0.709919,0.103635 c -0.390455,0.057 -1.080335,0.142073 -1.533065,0.189054 l -0.823146,0.08542 -1.795601,2.096339 c -0.987581,1.152986 -1.862711,2.236357 -1.944732,2.407488 -0.129955,0.271144 -0.04294,0.431351 0.67674,1.246018 0.454229,0.514177 1.143682,1.20285 1.532119,1.530384 l 0.706249,0.595518 1.021503,-0.179343 c 1.991424,-0.349633 12.184341,-2.977864 13.591163,-3.504466 1.723273,-0.645056 2.880503,-1.217984 3.342834,-1.65499 0.354206,-0.334804 1.265069,-2.173547 2.027548,-4.092975 0.307869,-0.775017 0.410449,-1.227219 0.35067,-1.545865 -0.04647,-0.24772 -1.198103,-2.146583 -2.559177,-4.219697 -5.013766,-7.636686 -6.096366,-9.707672 -6.115095,-11.698005 -0.01107,-1.177246 0.279565,-1.781698 1.370677,-2.850609 l 0.79694,-0.780724 0.01021,-2.790202 c 0.0056,-1.534611 0.05975,-4.204288 0.120289,-5.932616 0.104026,-2.969683 0.131949,-3.197375 0.508007,-4.142274 0.630134,-1.583297 1.631305,-3.1647284 2.778361,-4.3886493 1.608869,-1.7166805 3.170812,-2.7534985 6.203844,-4.1181097 0.93129,-0.4190031 1.781251,-0.896123 1.888801,-1.0602662 0.107552,-0.1641433 0.258121,-0.7402946 0.334602,-1.2803363 0.07648,-0.5400418 0.222805,-1.04010407 0.325171,-1.11124961 0.102363,-0.0711455 0.861022,-0.0969793 1.685906,-0.0574083 5.618262,0.26951681 13.84331,4.66469871 16.706747,8.92750981 0.814314,1.2122736 1.779472,3.2980656 2.057046,4.4454616 0.173133,0.715672 0.247318,2.187807 0.323713,6.423853 l 0.09911,5.495412 0.669466,0.652081 c 1.061877,1.034302 1.234632,2.280408 0.579738,4.181752 -0.78912,2.291034 -4.62057,8.776252 -7.768297,13.148831 -0.839427,1.166068 -1.526232,2.248198 -1.526232,2.404731 0,0.36807 1.271922,2.842683 2.13907,4.161713 1.231851,1.873779 2.45642,2.366151 12.144634,4.883081 6.76024,1.756265 6.439628,1.579751 3.070996,1.690733 -4.621908,0.152271 -7.370889,0.354335 -8.213129,0.603706 -3.476611,1.029359 -6.491376,4.291743 -7.4428,8.054119 -0.262122,1.036547 -0.295243,1.491035 -0.239268,3.283237 0.05931,1.898871 0.102944,2.176434 0.500748,3.185026 0.64029,1.623393 1.688804,3.234302 3.441273,5.28708 0.20287,0.237634 -0.176994,0.249608 -7.700488,0.24273 l -7.913885,-0.0072 -3.8566,-3.729518 C 57.971296,67.57845 56.933933,66.749691 54.849424,66.15653 52.777268,65.566886 49.363699,65.513883 47.295006,66.039235 45.408243,66.518383 45.445033,66.487528 34.081588,77.121141 l -6.269876,5.86718 -1.014813,0.09131 C 25.425432,83.203037 9.4542264,83.291501 4.6011085,83.202577 Z M 31.862108,63.026845 c 0.168437,-0.176761 0.69689,-0.899874 1.174337,-1.606917 1.155186,-1.710695 2.159153,-2.741596 3.92264,-4.027872 0.805243,-0.58734 1.464079,-1.148393 1.464079,-1.246782 0,-0.26143 -2.302073,-2.508709 -2.662561,-2.599185 -0.174005,-0.04367 -0.898369,0.144691 -1.674944,0.435551 -1.662838,0.622806 -3.189374,0.857144 -4.801302,0.737048 -1.64141,-0.122293 -2.099877,-0.259632 -3.967121,-1.188403 -1.884515,-0.937362 -1.701729,-0.968712 -3.420179,0.586618 -0.61874,0.560007 -1.461841,1.318894 -1.873561,1.686415 l -0.748579,0.668221 0.226716,0.996786 c 0.231544,1.018024 0.925875,2.342504 1.61213,3.075236 0.624432,0.666725 2.285098,1.774209 3.149492,2.10037 1.431343,0.540089 2.430081,0.681164 4.905646,0.692941 2.296777,0.01093 2.398527,-8.57e-4 2.693207,-0.310027 z m 41.62755,-5.242991 c 2.616839,-0.827345 5.156606,-2.835203 6.53624,-5.167342 0.614712,-1.039113 0.655171,-1.402829 0.225823,-2.03015 -0.89892,-1.31341 -2.753387,-3.66438 -2.890424,-3.664281 -0.08683,6.1e-5 -0.575674,0.198832 -1.086317,0.441711 -1.564578,0.744165 -3.20931,1.396829 -3.923248,1.556826 -1.101378,0.246824 -4.86328,0.192997 -5.789434,-0.08284 -1.022774,-0.304611 -2.32024,-0.97034 -3.989491,-2.047006 -0.740723,-0.477767 -1.398913,-0.868666 -1.462646,-0.868666 -0.305524,0 -2.404137,4.714973 -2.404137,5.401395 0,0.602183 1.267739,2.474711 2.483821,3.668757 1.353318,1.328797 3.660654,2.527673 6.014983,3.125343 0.157121,0.03989 1.410516,0.05224 2.785322,0.02745 2.099552,-0.03786 2.659688,-0.09567 3.499508,-0.361195 z M 32.982536,53.800307 c 0.42503,-0.163779 1.132073,-0.533693 1.571207,-0.82203 1.463044,-0.960637 5.019881,-4.814445 5.732306,-6.210913 0.147332,-0.288795 0.334322,-0.934573 0.415532,-1.435062 0.19262,-1.187094 0.190977,-3.985838 -0.003,-5.061732 -0.323095,-1.792309 -1.803789,-4.009562 -3.370722,-5.047454 -0.663571,-0.439531 -1.190116,-0.572255 -1.190116,-0.299986 0,0.07827 0.449936,0.863391 0.999859,1.744713 0.549922,0.881323 0.999859,1.65969 0.999859,1.729705 0,0.07002 -0.522291,-0.345514 -1.160645,-0.9234 -2.003454,-1.813675 -2.709203,-2.388376 -4.838511,-3.940067 -3.595165,-2.619907 -4.539615,-3.594303 -6.060065,-6.252206 -0.974762,-1.703982 -1.097373,-1.845102 -1.49379,-1.719284 -0.840692,0.266825 -3.767583,4.692431 -4.704657,7.113679 -1.04344,2.696085 -1.097701,3.042986 -1.088806,6.961009 0.0084,3.701422 0.215386,5.548929 0.758896,6.773785 0.383311,0.863834 1.861575,2.63222 3.886407,4.649148 2.801671,2.790732 3.668214,3.182206 6.845134,3.092393 1.517355,-0.0429 2.09299,-0.117975 2.701083,-0.352298 z m 40.571171,-6.650125 c 2.881428,-1.246739 4.990354,-3.464251 8.174694,-8.595605 1.720023,-2.7717 3.462573,-5.766615 4.218808,-7.250845 0.460574,-0.903947 0.528043,-1.173616 0.582884,-2.329701 0.07446,-1.569573 0.114348,-1.531019 -1.844472,-1.782662 -0.737114,-0.0947 -1.364835,-0.191263 -1.394935,-0.214594 -0.0301,-0.02333 0.192701,-1.269513 0.495117,-2.769293 0.432876,-2.146775 0.511053,-2.75085 0.367483,-2.839582 -0.1003,-0.06199 -1.390365,-0.156077 -2.866808,-0.209085 -3.110542,-0.111674 -3.528008,-0.177456 -9.560278,-1.506462 -5.878478,-1.295122 -6.309505,-1.351256 -9.639902,-1.255436 -2.807535,0.08078 -4.122997,0.276467 -5.617678,0.835699 l -0.762174,0.285166 v 1.252328 c 0,0.688782 0.09737,2.268702 0.216371,3.510936 0.119005,1.242232 0.199351,2.269896 0.178547,2.283696 -0.0208,0.0138 -0.538172,0.09994 -1.149706,0.191427 -1.966359,0.294169 -2.336708,0.705951 -2.2113,2.458684 0.117668,1.644578 1.438008,4.113078 5.26075,9.835482 2.151631,3.220853 3.521303,4.881614 5.317078,6.447081 1.296872,1.130546 1.603809,1.318414 2.958201,1.810631 0.876101,0.318395 1.081435,0.33469 3.642345,0.28904 2.601307,-0.04637 2.752118,-0.06491 3.634975,-0.446905 z"
     id="path6695" />
</svg>
