<?xml version="1.0" encoding="UTF-8" standalone="no"?>
<svg
   id="Layer_1"
   data-name="Layer 1"
   viewBox="0 0 122.88 74.52"
   version="1.1"
   sodipodi:docname="employees-icon.svg"
   inkscape:version="1.2.2 (b0a8486541, 2022-12-01)"
   xmlns:inkscape="http://www.inkscape.org/namespaces/inkscape"
   xmlns:sodipodi="http://sodipodi.sourceforge.net/DTD/sodipodi-0.dtd"
   xmlns="http://www.w3.org/2000/svg"
   xmlns:svg="http://www.w3.org/2000/svg">
  <sodipodi:namedview
     id="namedview691"
     pagecolor="#ffffff"
     bordercolor="#000000"
     borderopacity="0.25"
     inkscape:showpageshadow="2"
     inkscape:pageopacity="0.0"
     inkscape:pagecheckerboard="0"
     inkscape:deskcolor="#d1d1d1"
     showgrid="false"
     inkscape:zoom="10.758464"
     inkscape:cx="61.439999"
     inkscape:cy="22.400968"
     inkscape:window-width="1920"
     inkscape:window-height="1051"
     inkscape:window-x="1920"
     inkscape:window-y="0"
     inkscape:window-maximized="1"
     inkscape:current-layer="Layer_1" />
  <defs
     id="defs684">
    <style
       id="style682">.cls-1{fill-rule:evenodd;}</style>
  </defs>
  <title
     id="title686">clients</title>
  <path
     class="cls-1"
     d="M29.18,44.74c.23-1.88-5.33-9-6.35-12.47-2.18-3.46-2.95-9-.57-12.62.94-1.45.53-2.71.53-4.72,0-19.9,34.88-19.91,34.88,0,0,2.52-.57,3.11.79,5.1,2.28,3.3,1.11,9.18-.82,12.25C56.4,35.89,50.57,42.7,51,44.75c.37,10.21-21.85,9.87-21.79,0ZM41.9,62.41h1.22a2,2,0,0,0,2-2V57.15a2,2,0,0,0-2-2H35.86a2,2,0,0,0-2,2V60.4a2,2,0,0,0,2,2H37.1L34.72,74.52h9.47L41.9,62.41ZM0,74.52C.94,62.3-1.45,62.83,8.77,59A78.79,78.79,0,0,0,23.1,51.74l8.78,22.78ZM56.26,50.7A58,58,0,0,0,69.5,57.32C79.05,60.5,79,60.94,79,74.52H47.2L56.26,50.7ZM91.49,64.78h1a1.62,1.62,0,0,0,1.62-1.61V60.56a1.63,1.63,0,0,0-1.62-1.62H86.63A1.62,1.62,0,0,0,85,60.56v2.61a1.62,1.62,0,0,0,1.61,1.61h1l-1.91,9.74h7.61l-1.84-9.74ZM81.27,50.58c.18-1.51-4.29-7.26-5.11-10-1.75-2.78-2.37-7.21-.46-10.14.76-1.17.43-2.18.43-3.8,0-16,28-16,28,0,0,2-.46,2.5.63,4.1,1.83,2.66.89,7.38-.66,9.85-1,2.9-5.68,8.37-5.36,10,.3,8.21-17.56,7.94-17.51,0ZM103,55.38a59,59,0,0,0,12.24,5.31c7.68,2.56,7.65,2.91,7.6,13.83H95.75L103,55.38Z"
     id="path688" />
  <path
     style="fill:#0000ff;stroke-width:0.437378"
     d="m 37.784205,52.049668 c -3.004774,-0.483376 -5.314729,-1.560289 -6.852033,-3.194454 -1.10094,-1.170306 -1.500249,-2.147355 -1.724911,-4.220595 -0.07818,-0.721445 -0.155535,-0.954502 -0.655566,-1.975025 -0.31181,-0.636382 -1.329578,-2.422415 -2.261706,-3.968962 -1.678325,-2.784606 -2.854833,-4.938003 -3.237521,-5.925731 -0.108939,-0.281174 -0.400418,-0.908587 -0.647733,-1.394251 -0.821646,-1.613511 -1.307568,-3.303527 -1.496627,-5.205204 -0.225016,-2.263358 0.202759,-4.396544 1.248852,-6.227655 0.277455,-0.485664 0.556085,-1.07125 0.619177,-1.301301 0.07685,-0.280193 0.119027,-1.292798 0.127776,-3.067353 0.01176,-2.384587 0.0343,-2.74652 0.225823,-3.625053 0.612936,-2.8116359 1.728899,-4.8818679 3.683389,-6.8330825 1.276069,-1.2739306 2.417116,-2.0901751 4.092774,-2.9277556 5.634762,-2.81654373 12.92138,-2.83584775 18.590015,-0.04925 4.039887,1.9859352 6.76927,5.2742997 7.715148,9.2952231 0.350177,1.488603 0.441132,2.664166 0.3675,4.749828 -0.07781,2.203852 -0.02866,2.457498 0.710588,3.667796 0.631018,1.033095 0.889885,1.626499 1.109606,2.543563 0.47808,1.995389 0.26944,4.656286 -0.558978,7.128949 -0.324228,0.967756 -2.003589,4.458231 -2.724259,5.662247 -0.260097,0.434541 -1.105714,1.773022 -1.879151,2.974402 -2.047483,3.180359 -2.721725,4.346251 -3.087988,5.339718 -0.07639,0.207191 -0.17346,0.92047 -0.215722,1.585063 -0.07969,1.25326 -0.217068,1.802538 -0.678612,2.713351 -0.977442,1.928889 -3.446014,3.468376 -6.619264,4.128003 -1.233582,0.256425 -4.593995,0.329675 -5.850577,0.127529 z"
     id="path3295" />
  <path
     style="fill:#0000ff;stroke-width:0.437378"
     d="m 87.772317,56.37796 c -3.586813,-0.631313 -6.087852,-2.587393 -6.429576,-5.028614 -0.04694,-0.33536 -0.06561,-0.71304 -0.04147,-0.839289 0.1022,-0.534627 -0.461373,-1.668921 -2.558983,-5.150421 -0.739234,-1.226941 -1.613056,-2.795474 -1.941826,-3.485628 -0.328771,-0.690154 -0.757114,-1.568532 -0.951873,-1.951951 -0.844897,-1.663337 -1.229933,-3.254895 -1.236776,-5.112254 -0.007,-1.893744 0.182342,-2.558303 1.363691,-4.786929 0.181706,-0.342792 0.201692,-0.567612 0.256155,-2.881453 0.06297,-2.675161 0.140501,-3.211097 0.66684,-4.609453 1.560255,-4.145216 5.60589,-6.974997 11.016603,-7.705731 0.999208,-0.134946 3.347391,-0.133599 4.477273,0.0026 1.139355,0.137309 3.072204,0.634915 4.136278,1.064873 3.461964,1.398866 6.049457,4.034578 7.004397,7.134925 0.43662,1.417548 0.52143,2.138941 0.50223,4.272261 -0.0206,2.282399 -0.003,2.375667 0.66596,3.451541 0.22717,0.365595 0.53022,0.999339 0.67345,1.408319 0.24785,0.707699 0.26048,0.824379 0.26152,2.416702 10e-4,1.539472 -0.02,1.754764 -0.26346,2.695552 -0.52119,2.01426 -1.79852,4.582027 -3.93021,7.900757 -2.541523,3.95679 -2.631514,4.140127 -2.737484,5.577004 -0.08534,1.157163 -0.306666,1.904024 -0.771258,2.602602 -1.045821,1.572539 -2.946261,2.617349 -5.576836,3.065991 -1.13598,0.19374 -3.363025,0.173643 -4.584643,-0.04137 z"
     id="path3297" />
  <path
     style="fill:#0000ff;stroke-width:0.437378"
     d="m 95.847018,74.413112 c 0.01704,-0.04751 1.639675,-4.331393 3.605855,-9.519751 l 3.574867,-9.433381 0.65436,0.368446 c 0.3599,0.202644 1.31064,0.700134 2.11276,1.105532 2.93915,1.485467 4.8564,2.271192 8.73175,3.578435 1.56591,0.528213 3.32266,1.154579 3.90391,1.391922 2.76548,1.129254 3.70813,2.241235 4.13715,4.880313 0.10186,0.62659 0.15803,1.875024 0.19342,4.298941 l 0.0499,3.415915 H 109.3135 c -8.27325,0 -13.485474,-0.03343 -13.466482,-0.08637 z"
     id="path3299" />
  <path
     style="fill:#0000ff;stroke-width:0.437378"
     d="m 85.792918,74.394636 c 0,-0.05767 0.418275,-2.231482 0.929501,-4.830701 0.511225,-2.59922 0.9295,-4.747984 0.9295,-4.775031 0,-0.02705 -0.294136,-0.04918 -0.653636,-0.04918 -0.359499,0 -0.788232,-0.05759 -0.952738,-0.127977 -0.361714,-0.154767 -0.762827,-0.56768 -0.897364,-0.923762 -0.129221,-0.342011 -0.129393,-3.316785 -2.13e-4,-3.659426 0.146718,-0.389156 0.638893,-0.855354 1.012627,-0.95918 0.186606,-0.05184 1.679549,-0.09086 3.443276,-0.09 3.513081,0.0017 3.628777,0.02125 4.147069,0.700114 0.267901,0.3509 0.268077,0.352045 0.297678,1.936719 0.03527,1.888227 0.004,2.096359 -0.381314,2.53517 -0.39305,0.447658 -0.763874,0.588342 -1.550796,0.588342 -0.515833,0 -0.653636,0.02907 -0.653636,0.137902 0,0.07585 0.397362,2.239417 0.883026,4.807936 0.485664,2.568519 0.883026,4.70241 0.883026,4.741978 0,0.03957 -1.673102,0.07194 -3.718003,0.07194 -2.697977,0 -3.718003,-0.02876 -3.718003,-0.104848 z"
     id="path3301" />
  <path
     style="fill:#0000ff;stroke-width:0.437378"
     d="m 47.336074,74.336821 c 0.03294,-0.116051 6.362397,-16.765234 8.888148,-23.379633 0.05481,-0.143524 0.203846,-0.07501 1.12902,0.518998 3.203563,2.056856 7.306023,4.109451 10.779162,5.393168 0.639032,0.236195 2.01934,0.728749 3.067352,1.094565 4.600313,1.605773 6.024285,2.600816 6.903251,4.823856 0.58583,1.481655 0.723628,2.827143 0.782978,7.645143 l 0.05009,4.066566 H 63.112992 c -15.025227,0 -15.820758,-0.0082 -15.776918,-0.162663 z"
     id="path3303" />
  <path
     style="fill:#0000ff;stroke-width:0.437378"
     d="m 34.798831,74.336821 c 0.02642,-0.08946 0.554024,-2.755969 1.172461,-5.925567 0.618436,-3.169597 1.146218,-5.836103 1.172847,-5.925567 0.04377,-0.147037 -0.03789,-0.162663 -0.850062,-0.162663 -1.000884,0 -1.344651,-0.111066 -1.806784,-0.583747 -0.524721,-0.536696 -0.573766,-0.82184 -0.542368,-3.153269 l 0.02833,-2.103395 0.282978,-0.40276 c 0.155637,-0.221517 0.469344,-0.507328 0.697125,-0.635134 l 0.414148,-0.232375 3.718003,-0.02917 c 2.044902,-0.01604 3.934359,-0.003 4.198795,0.02903 0.679139,0.0822 1.256632,0.486972 1.558215,1.09217 0.232552,0.466673 0.238258,0.523989 0.237751,2.38861 -2.79e-4,1.050755 -0.04439,2.06846 -0.09802,2.261567 -0.122075,0.439587 -0.565585,0.952349 -1.027596,1.188049 -0.277069,0.14135 -0.546081,0.180424 -1.24216,0.180424 -0.873734,0 -0.887698,0.0035 -0.840258,0.209138 0.02653,0.115026 0.531341,2.781531 1.121796,5.925567 0.590455,3.144036 1.095205,5.789628 1.121668,5.879092 0.04538,0.153409 -0.219641,0.162663 -4.658391,0.162663 -4.438717,0 -4.703773,-0.0093 -4.658475,-0.162663 z"
     id="path3305" />
  <path
     style="fill:#0000ff;stroke-width:0.437378"
     d="m 0.1250014,73.453796 c 0.0332501,-0.575129 0.10298255,-2.175032 0.154961,-3.555341 0.17297874,-4.593521 0.29351559,-5.517189 0.8588219,-6.581109 0.7218017,-1.35845 2.0209562,-2.110601 6.854922,-3.968688 5.1369987,-1.974567 8.8860107,-3.783613 13.1260087,-6.333816 1.007916,-0.606224 1.868133,-1.102226 1.911594,-1.102226 0.05532,0 7.240059,18.48345 8.71656,22.424205 0.05789,0.15452 -0.733619,0.162663 -15.811188,0.162663 H 0.06454666 Z"
     id="path3307" />
</svg>
