<?xml version="1.0" encoding="UTF-8" standalone="no"?>
<!-- Uploaded to: SVG Repo, www.svgrepo.com, Generator: SVG Repo Mixer Tools -->

<svg
   height="800px"
   width="800px"
   version="1.1"
   id="Layer_1"
   viewBox="0 0 512.002 512.002"
   xml:space="preserve"
   sodipodi:docname="employees-icon.svg"
   inkscape:version="1.2.2 (b0a8486541, 2022-12-01)"
   xmlns:inkscape="http://www.inkscape.org/namespaces/inkscape"
   xmlns:sodipodi="http://sodipodi.sourceforge.net/DTD/sodipodi-0.dtd"
   xmlns="http://www.w3.org/2000/svg"
   xmlns:svg="http://www.w3.org/2000/svg"><defs
   id="defs671" /><sodipodi:namedview
   id="namedview669"
   pagecolor="#ffffff"
   bordercolor="#000000"
   borderopacity="0.25"
   inkscape:showpageshadow="2"
   inkscape:pageopacity="0.0"
   inkscape:pagecheckerboard="0"
   inkscape:deskcolor="#d1d1d1"
   showgrid="false"
   inkscape:zoom="1.06625"
   inkscape:cx="399.53107"
   inkscape:cy="400.46893"
   inkscape:window-width="1920"
   inkscape:window-height="1007"
   inkscape:window-x="0"
   inkscape:window-y="0"
   inkscape:window-maximized="1"
   inkscape:current-layer="Layer_1" />
<path
   style="fill:#EFC27B;"
   d="M268.843,95.853c-3.266-8.172-7.596-15.805-12.842-22.714  c-17.794-23.442-45.942-38.617-77.576-38.617c-53.684,0-97.358,43.674-97.358,97.358s43.674,97.358,97.358,97.358  c31.634,0,59.781-15.174,77.576-38.616c5.246-6.91,9.576-14.542,12.842-22.716c4.461-11.152,6.94-23.302,6.94-36.026  C275.783,119.154,273.304,107.004,268.843,95.853z"
   id="path648" />
<path
   style="fill:#5286FA;"
   d="M355.331,430.934c-5.353-40.918-24.627-77.514-52.894-104.878  c-6.692-6.478-13.885-12.439-21.52-17.816c-7.874-5.547-16.213-10.476-24.95-14.71c-23.46-11.368-49.77-17.749-77.543-17.749  C80.041,275.781,0,355.822,0,454.205c0,12.853,10.42,23.273,23.273,23.273h155.152h155.152c12.853,0,23.273-10.42,23.273-23.273  C356.85,446.32,356.329,438.554,355.331,430.934z"
   id="path650" />
<path
   style="fill:#ECB45C;"
   d="M81.068,131.88c0,53.684,43.674,97.358,97.358,97.358V34.522  C124.742,34.522,81.068,78.196,81.068,131.88z"
   id="path652" />
<path
   style="fill:#3D6DEB;"
   d="M0.002,454.207c0,12.853,10.42,23.273,23.273,23.273h155.152V275.783  C80.043,275.783,0.002,355.824,0.002,454.207z"
   id="path654" />
<path
   style="fill:#EFC27B;"
   d="M333.722,34.525c-0.037,0.048-0.084,0.057-0.144-0.003c-31.634,0-59.781,15.174-77.576,38.617  c5.246,6.909,9.576,14.542,12.842,22.714c4.461,11.152,6.94,23.301,6.94,36.026s-2.479,24.875-6.94,36.026  c-3.266,8.172-7.596,15.805-12.842,22.716c17.794,23.442,45.942,38.616,77.576,38.616c53.684,0,97.358-43.674,97.358-97.358  C430.935,78.245,387.339,34.604,333.722,34.525z"
   id="path656" />
<path
   style="fill:#00E7F0;"
   d="M333.577,275.783c-26.954,0-53.524,6.116-77.608,17.749c8.737,4.234,17.076,9.163,24.95,14.71  c7.635,5.378,14.829,11.338,21.52,17.816c12.187,11.798,22.691,25.319,31.139,40.155c11.148,19.575,18.71,41.446,21.754,64.721  c0.998,7.62,1.519,15.386,1.519,23.273c0,12.853-10.42,23.273-23.273,23.273h155.151c12.853,0,23.273-10.42,23.273-23.273  C512.002,355.824,431.96,275.783,333.577,275.783z"
   id="path658" />
<path
   style="fill:#00D7DF;"
   d="M280.919,308.24c7.635,5.378,14.829,11.338,21.52,17.816c12.187,11.798,22.691,25.319,31.139,40.155  v-90.428c-26.954,0-53.524,6.116-77.608,17.749C264.704,297.766,273.043,302.695,280.919,308.24z"
   id="path660" />
<g
   id="g666">
	<path
   style="fill:#ECB45C;"
   d="M256.002,73.139c5.246,6.909,9.576,14.542,12.842,22.714c4.461,11.152,6.94,23.301,6.94,36.026   s-2.479,24.875-6.94,36.026c-3.266,8.172-7.596,15.805-12.842,22.716c17.794,23.442,45.942,38.616,77.576,38.616V34.522   C301.943,34.522,273.796,49.696,256.002,73.139z"
   id="path662" />
	<path
   style="fill:#ECB45C;"
   d="M333.722,34.525c-0.048,0-0.096-0.003-0.144-0.003C333.639,34.584,333.684,34.573,333.722,34.525z"
   id="path664" />
</g>
<path
   style="fill:#008080;stroke-width:4.41314"
   d="M 30.7437,745.10634 C 15.636359,742.56113 3.4572787,730.31645 1.0277278,715.23032 -0.09305519,708.27089 1.1079053,684.47765 3.3491512,669.23863 8.0469955,637.29635 19.90902,602.26001 35.300795,574.86447 63.954883,523.86359 107.46392,483.01654 159.50094,458.26321 c 33.97949,-16.16359 68.46311,-24.62899 108.9633,-26.74944 l 10.08207,-0.52786 V 588.52929 746.07268 L 156.85815,745.96237 C 89.92966,745.9017 33.178158,745.51649 30.7437,745.10634 Z"
   id="path790"
   transform="scale(0.6400025)" /><path
   style="fill:#a9d8d8;stroke-width:4.41314;fill-opacity:1"
   d="M 279.48417,588.57204 V 431.07139 l 8.67527,0.43772 c 42.9908,2.16916 76.91562,10.82202 113.71629,29.00446 43.15244,21.32073 81.4436,54.78288 107.64142,94.06644 30.17164,45.2423 46.70055,97.07693 47.0067,147.41296 0.0971,15.9669 0.0311,16.55919 -2.42855,21.80786 -3.30533,7.05311 -10.96926,15.07892 -17.22505,18.03837 -2.72649,1.28984 -7.83816,2.76167 -11.35924,3.27075 -3.94127,0.56982 -52.45416,0.93272 -126.21441,0.94416 l -119.81243,0.0186 z"
   id="path792"
   transform="scale(0.6400025)" /><path
   style="fill:#b3d8d8;stroke-width:4.41314;fill-opacity:1"
   d="m 532.43982,744.72794 c 12.61943,-3.99456 21.88842,-14.45429 24.79784,-27.98352 2.24034,-10.41785 -1.00353,-46.29348 -6.25231,-69.1477 -5.17838,-22.54767 -13.61782,-45.6648 -23.91455,-65.50617 l -5.61711,-10.82393 v -70.13339 -70.13339 l 9.1442,0.49383 c 62.41737,3.37079 112.35573,21.4777 161.07855,58.40469 13.76892,10.43546 40.47294,37.50303 51.17669,51.87339 36.24337,48.65872 55.87885,105.01352 56.28412,161.53819 0.0818,11.4123 -0.18263,13.95761 -1.93401,18.61465 -3.73413,9.92922 -11.1109,17.27575 -21.70261,21.61361 l -5.04342,2.06555 -120.98476,0.1876 c -101.99905,0.15816 -120.36457,-0.008 -117.03263,-1.06341 z"
   id="path794"
   transform="scale(0.6400025)" /><path
   style="fill:#008080;stroke-width:4.41314"
   d="m 519.80628,569.21719 c -0.51249,-2.25708 -15.41984,-24.03582 -22.74327,-33.22657 -23.47546,-29.4612 -57.93562,-57.93284 -89.13369,-73.64393 l -6.92052,-3.48512 3.61401,-1.8541 c 17.6716,-9.06607 50.62806,-18.90882 76.04774,-22.71236 9.48821,-1.41972 38.87524,-3.69031 39.51261,-3.05295 0.18966,0.18967 0.23382,31.53789 0.0981,69.66272 -0.13568,38.12482 -0.34944,68.86536 -0.47502,68.31231 z"
   id="path796"
   transform="scale(0.6400025)" /><path
   style="fill:#008080;stroke-width:4.41314"
   d="m 504.26728,356.80558 c -38.58505,-4.48437 -73.75029,-23.43101 -99.33965,-53.52309 l -4.45103,-5.23425 5.23748,-7.82486 c 18.63557,-27.84178 27.98967,-63.82995 24.95642,-96.01517 -1.39461,-14.798 -3.19755,-23.70661 -7.29354,-36.03864 -4.15257,-12.5024 -10.0274,-24.67381 -17.11255,-35.45361 l -5.64281,-8.58532 4.92888,-5.95161 c 18.83149,-22.73893 49.01932,-41.71835 77.91963,-48.988925 8.22552,-2.069331 22.44862,-4.211441 30.24619,-4.555313 l 6.79953,-0.299859 V 206.06547 357.79601 l -4.9238,-0.12326 c -2.70809,-0.0678 -7.80422,-0.45802 -11.32475,-0.86717 z"
   id="path798"
   transform="scale(0.6400025)" /><path
   style="fill:#a2c5c5;stroke-width:4.41314;fill-opacity:1"
   d="M 521.45369,206.32717 V 54.589187 l 11.01993,0.571026 c 54.79535,2.839363 106.25143,39.818006 128.52105,92.360997 4.46455,10.53364 8.82125,26.40641 10.43752,38.02701 0.55989,4.02547 1.01799,13.57716 1.01799,21.22598 0,24.44293 -4.57982,43.94391 -15.53416,66.14491 -7.61892,15.44115 -16.17039,27.44595 -28.07663,39.41481 -27.13613,27.27883 -59.91701,42.25477 -98.71043,45.09588 l -8.67527,0.63534 z"
   id="path800"
   transform="scale(0.6400025)" /><path
   style="fill:#a6cccc;stroke-width:4.41314;fill-opacity:1"
   d="M 279.48417,206.3306 V 54.865182 h 6.9408 c 10.04938,0 27.3825,3.22435 39.9861,7.438314 49.57737,16.575992 86.61697,56.590624 99.38862,107.371534 14.50256,57.66312 -6.64625,118.73343 -53.93568,155.74726 -21.95282,17.18266 -46.01332,27.22731 -74.20678,30.97947 -5.61065,0.74669 -11.99486,1.36587 -14.18712,1.37595 l -3.98594,0.0183 z"
   id="path802"
   transform="scale(0.6400025)" /><path
   style="fill:#008080;stroke-width:4.41314"
   d="m 261.14602,356.77983 c -50.33367,-5.8807 -95.10549,-37.46254 -118.08013,-83.2932 -22.83755,-45.55718 -20.55689,-102.76293 5.79903,-145.45697 19.87336,-32.192926 47.71979,-54.393307 82.90876,-66.098468 10.64798,-3.541913 27.63448,-6.694576 39.50416,-7.331899 l 7.26847,-0.390268 V 206.00252 357.79601 l -5.39273,-0.12167 c -2.96601,-0.0669 -8.36941,-0.46945 -12.00756,-0.89451 z"
   id="path804"
   transform="scale(0.6400025)" /></svg>
