<?xml version="1.0" encoding="UTF-8" standalone="no"?>
<svg
   shape-rendering="geometricPrecision"
   text-rendering="geometricPrecision"
   image-rendering="optimizeQuality"
   fill-rule="evenodd"
   clip-rule="evenodd"
   viewBox="0 0 512 467.038"
   version="1.1"
   id="svg834"
   sodipodi:docname="invoices-icon.svg"
   inkscape:version="1.2.2 (b0a8486541, 2022-12-01)"
   xmlns:inkscape="http://www.inkscape.org/namespaces/inkscape"
   xmlns:sodipodi="http://sodipodi.sourceforge.net/DTD/sodipodi-0.dtd"
   xmlns="http://www.w3.org/2000/svg"
   xmlns:svg="http://www.w3.org/2000/svg">
  <defs
     id="defs838" />
  <sodipodi:namedview
     id="namedview836"
     pagecolor="#ffffff"
     bordercolor="#000000"
     borderopacity="0.25"
     inkscape:showpageshadow="2"
     inkscape:pageopacity="0.0"
     inkscape:pagecheckerboard="0"
     inkscape:deskcolor="#d1d1d1"
     showgrid="false"
     inkscape:zoom="1.8585212"
     inkscape:cx="256.11761"
     inkscape:cy="234.05706"
     inkscape:window-width="1920"
     inkscape:window-height="1007"
     inkscape:window-x="0"
     inkscape:window-y="0"
     inkscape:window-maximized="1"
     inkscape:current-layer="svg834" />
  <path
     fill="#2D2222"
     fill-rule="nonzero"
     d="M16.725 230.27h86.559c9.2 0 16.725 7.536 16.725 16.721v1.713l12.05-.014c63.732-.22 80.085-.266 144.203 39.975h52.866l.606.039c8.199.556 15.303 3.464 20.534 7.766 4.121 3.387 7.117 7.671 8.624 12.395 1.539 4.823 1.532 10.061-.369 15.239-2.039 5.542-6.262 11.001-13.1 15.714-10.245 7.5-22.033 11.036-34.651 12.373-12.143 1.284-25.048.51-38.085-.653-4.146-.202-6.802 1.437-7.954 3.646a6.496 6.496 0 00-.727 2.848 6.682 6.682 0 00.606 2.936c1.092 2.366 3.823 4.231 8.313 4.249l.329.014c3.377.248 7.065-.117 10.654-.465 2.851-.28 5.663-.557 8.494-.56 15.522-.011 29.622-1.486 41.659-5.965 11.589-4.312 21.384-11.505 28.832-23.02l7.982-18.636a4.658 4.658 0 012.235-2.362l80.598-39.96.61-.248c13.81-4.558 26.473-3.164 36.382 1.893 6.501 3.313 11.824 8.221 15.519 14.076 3.709 5.866 5.784 12.707 5.781 19.859-.004 10.115-4.146 20.807-13.654 30.198l-.535.454c-29.244 21.285-58.941 40.726-89.053 58.412-30.027 17.636-60.374 33.478-91.007 47.61-45.933 27.828-91.851 26.888-137.745.007l-59.997-30.928c-.011 9.196-7.543 16.7-16.725 16.7H16.725C7.539 432.296 0 424.767 0 415.575V246.991c0-9.181 7.536-16.721 16.725-16.721z"
     id="path816" />
  <path
     fill="#DBA47B"
     fill-rule="nonzero"
     d="M121.147 258.074v147.578l63.37 32.68c42.858 25.183 85.713 26.094 128.532.092l.567-.312a1029.572 1029.572 0 0090.411-47.269c29.63-17.406 58.983-36.62 88.021-57.739 7.376-7.401 10.603-15.607 10.603-23.261 0-5.333-1.56-10.461-4.347-14.873-2.795-4.429-6.862-8.164-11.852-10.707-7.774-3.964-17.828-5.032-28.967-1.429l-78.68 39.011-7.444 17.373-.365.677c-8.681 13.605-20.119 22.062-33.673 27.106-13.22 4.922-28.381 6.539-44.921 6.553-2.27 0-4.909.263-7.579.525-4.057.394-8.206.802-12.264.486-8.525-.146-13.99-4.351-16.451-9.675a15.948 15.948 0 01-1.45-7.061 15.935 15.935 0 011.79-6.972c2.71-5.198 8.345-9.078 16.679-8.667l.184.018c12.579 1.128 25.006 1.887 36.51.67 11.075-1.17 21.332-4.213 30.084-10.625l.128-.089c5.167-3.539 8.284-7.447 9.695-11.288 1.157-3.149 1.174-6.308.256-9.188-.951-2.983-2.915-5.745-5.653-7.997-3.781-3.107-9.033-5.221-15.203-5.643h-54.189a4.792 4.792 0 01-2.493-.734c-62.813-39.542-78.421-39.485-140.387-39.276l-10.912.036z"
     id="path818" />
  <path
     fill="#43494C"
     d="M16.725 237.402h86.559c5.277 0 9.593 4.316 9.593 9.589v168.584c0 5.277-4.316 9.589-9.593 9.589H16.725c-5.277 0-9.593-4.312-9.593-9.589V246.991c0-5.273 4.316-9.589 9.593-9.589z"
     id="path820" />
  <path
     fill="#34393E"
     d="M112.877 312.04v103.534c0 5.278-4.317 9.594-9.594 9.594H16.726c-5.278 0-9.594-4.316-9.594-9.594v-21.535l105.745-81.999z"
     id="path822" />
  <path
     fill="#427D2A"
     d="M163.428 0l304.327 81.544-45.249 168.871-21.549-5.67 34.706-123.517.454-1.463c2.946-10.943-3.542-22.205-14.485-25.151L157.099 23.621 163.428 0z"
     id="path824" />
  <path
     fill="#427D2A"
     d="M115.539 30.105L419.87 111.65l-42.331 157.984-304.331-81.546z"
     id="path826" />
  <path
     fill="#87CC71"
     d="M363.837 122.959c-3.31 11.708 4.198 25.113 16.349 28.526l-16.749 62.507c-12.797-3.602-26.2 3.907-30.098 17.868l-202.471-54.252c3.602-12.797-3.909-26.203-16.057-29.615l16.748-62.507c12.85 3.6 26.26-3.901 29.864-16.764l202.414 54.237z"
     id="path828" />
  <path
     style="fill:#0000ff;stroke-width:2.57638"
     d="M 225.30614,228.57594 C 142.49313,206.33742 74.476574,188.06542 74.158239,187.9715 73.813696,187.86985 82.11818,155.94228 94.677406,109.08313 106.91398,63.427805 116.01078,30.453341 116.33587,30.574621 c 0.30828,0.115009 68.4398,18.384424 151.40338,40.598701 82.96358,22.214276 151.02455,40.551698 151.2466,40.749818 0.22206,0.19812 -9.03309,35.58382 -20.56699,78.6349 -15.12452,56.45331 -21.18997,78.29934 -21.75717,78.36314 -0.43254,0.0486 -68.54254,-18.1067 -151.35555,-40.34524 z m 108.68352,2.46358 c 0,-1.80991 3.53835,-7.70058 6.26081,-10.42305 5.1764,-5.17639 12.8151,-7.96025 19.31061,-7.03756 1.74547,0.24795 3.39047,0.46255 3.65555,0.4769 0.26508,0.0143 4.13701,-13.6118 8.60429,-30.28033 4.46728,-16.66854 8.2622,-30.74714 8.43317,-31.28579 0.24759,-0.7801 -0.41957,-1.32116 -3.27898,-2.65924 -4.67849,-2.18933 -8.83133,-6.35296 -11.26445,-11.2937 -1.77127,-3.59679 -1.88604,-4.17145 -1.96825,-9.85544 l -0.0873,-6.03593 -37.10669,-9.95646 c -20.40868,-5.47605 -38.97153,-10.4521 -41.25076,-11.05788 l -4.14408,-1.10141 1.91633,1.46676 c 1.05399,0.80672 3.94729,3.42253 6.42958,5.8129 23.99511,23.10667 24.19321,61.82678 0.43727,85.46828 -9.04771,9.00414 -20.2897,14.91852 -32.15799,16.91827 l -3.87652,0.65317 24.30238,6.51352 c 13.36631,3.58243 30.83161,8.28985 38.81177,10.46093 15.6453,4.25645 16.97325,4.50807 16.97325,3.21606 z M 207.3036,196.00866 c -8.39713,-7.12379 -15.46802,-18.54463 -18.4454,-29.79283 -7.95281,-30.04487 8.5113,-61.67757 37.6149,-72.269982 4.20896,-1.531874 11.17345,-3.137088 14.96258,-3.448651 1.24627,-0.10248 -11.95363,-3.855478 -38.60044,-10.974887 -22.2719,-5.950535 -40.74075,-10.811775 -41.04189,-10.802756 -0.30114,0.009 -1.32761,1.674622 -2.28106,3.701342 -4.34514,9.236384 -15.03373,15.052572 -24.60604,13.389364 -1.77469,-0.308361 -3.32407,-0.467444 -3.44304,-0.35352 -0.25675,0.245854 -16.39333,60.26094 -16.60874,61.77113 -0.11107,0.77876 0.43624,1.25335 2.18544,1.89503 5.15934,1.89265 10.51211,7.40182 12.84275,13.21797 0.99328,2.47877 1.21048,4.12644 1.22803,9.31582 l 0.0213,6.30444 38.8742,10.47224 c 21.38082,5.75974 39.31941,10.4991 39.86354,10.53193 0.5996,0.0362 -0.41128,-1.12853 -2.56615,-2.95664 z m 36.6085,-11.90371 c 0.12626,-0.37642 0.4976,-1.73154 0.82521,-3.01138 l 0.59566,-2.32698 h 3.82915 c 7.90358,0 12.1282,-3.77079 14.7098,-13.12957 3.36059,-12.1828 -0.71032,-18.9779 -13.32438,-22.24083 -3.88294,-1.00441 -4.71237,-1.562 -4.70087,-3.1602 0.0249,-3.45724 2.47436,-3.46357 13.12543,-0.0339 4.29309,1.38238 7.99862,2.30939 8.23448,2.06003 0.45505,-0.48104 3.27029,-10.74458 3.27029,-11.92246 0,-0.38213 -2.35217,-1.77688 -5.22704,-3.09946 -5.68693,-2.61626 -5.44416,-2.24894 -4.35491,-6.58886 0.34318,-1.36729 0.45127,-1.3254 -10.78063,-4.17801 -0.7068,-0.17952 -1.1081,0.39253 -1.69843,2.42099 l -0.77296,2.65605 -2.95552,0.35052 c -7.70885,0.91424 -11.91587,5.03338 -14.17922,13.88299 -3.22526,12.61063 0.59252,18.59374 14.3261,22.45147 1.70632,0.4793 3.34105,1.16796 3.63273,1.53034 0.67802,0.84238 -0.12436,3.03653 -1.27138,3.47668 -1.10443,0.42381 -7.07307,-1.02956 -15.04304,-3.66299 -3.46178,-1.14383 -6.36496,-2.00888 -6.45151,-1.92233 -0.19965,0.19965 -3.37711,11.92214 -3.39385,12.52081 -0.007,0.24495 2.38981,1.57409 5.3259,2.95365 2.9361,1.37955 5.4004,2.55523 5.47622,2.61262 0.0758,0.0574 -0.22312,1.30379 -0.66432,2.7698 -0.4412,1.46601 -0.69844,2.76921 -0.57163,2.89602 0.22652,0.22653 10.54443,3.25074 11.38135,3.33591 0.23531,0.0239 0.53113,-0.26444 0.65737,-0.64087 z"
     id="path3183" />
  <path
     style="fill:#0000ff;stroke-width:2.57638"
     d="m 411.46431,247.2366 c -8.55424,-2.27179 -9.83943,-2.75375 -9.7342,-3.6504 0.0667,-0.56818 8.03059,-29.12104 17.69755,-63.4508 17.4396,-61.9322 17.57469,-62.45181 17.36684,-66.79793 -0.45936,-9.60538 -5.81645,-16.087654 -15.77078,-19.083224 -5.17384,-1.556972 -259.31415,-69.769301 -261.7744,-70.261352 -0.85932,-0.171864 -1.5624,-0.566567 -1.5624,-0.877118 0,-0.836521 5.52584,-21.372287 5.94085,-22.0780917 0.53341,-0.90715326 303.07404,80.2635777 303.26354,81.3646817 0.22266,1.293843 -44.41221,167.162844 -45.02405,167.315224 -0.30114,0.075 -4.98247,-1.04145 -10.40295,-2.48099 z"
     id="path3185" />
  <path
     style="fill:#0000ff;stroke-width:2.57638"
     d="m 7.1308744,320.43844 c 0.00749,-41.82275 0.2256344,-73.87413 0.5111783,-75.1053 0.6061933,-2.61372 1.9915486,-4.5643 4.4112103,-6.21099 l 1.823382,-1.24089 46.582151,0.14585 46.582154,0.14584 1.67785,1.25978 c 0.92282,0.69288 2.15475,2.048 2.73762,3.01138 1.01777,1.68219 1.05977,3.09657 1.05977,35.68946 v 33.93786 l -52.288547,40.61839 c -28.7587,22.34012 -52.473334,40.63815 -52.6991876,40.66229 -0.2258537,0.0242 -0.4047651,-32.78701 -0.397581,-72.91367 z"
     id="path3187" />
  <path
     style="fill:#0000ff;stroke-width:2.57638"
     d="M 12.866815,424.13044 C 7.7298684,421.7533 7.1157114,419.77034 7.1263637,405.59601 L 7.134915,394.2173 20.60914,383.81434 c 7.410823,-5.72162 31.121609,-24.09477 52.690634,-40.82922 l 39.216416,-30.42627 0.13963,52.55274 c 0.15665,58.95884 0.44593,54.63465 -3.88598,58.08931 l -2.10378,1.67774 -45.804576,0.13264 c -43.579108,0.12619 -45.910981,0.0834 -47.994669,-0.88084 z"
     id="path3189" />
  <path
     style="fill:#008080;stroke-width:2.53186"
     d="m 372.8771,267.67111 c -1.92357,-0.52201 -12.69827,-3.38307 -23.94377,-6.3579 -25.03766,-6.62335 -113.40291,-30.28327 -205.40524,-54.99753 -61.398014,-16.49313 -68.737445,-18.57642 -68.737445,-19.51109 0,-2.86844 40.609225,-154.685745 41.656685,-155.733197 0.12889,-0.128895 70.66586,18.73089 215.80608,57.701035 76.89489,20.646272 85.53003,22.997202 85.98952,23.410712 0.47115,0.424 -2.92398,13.74309 -16.39086,64.30126 -14.10161,52.94116 -24.32088,90.17496 -25.12265,91.53417 -0.25419,0.43091 -1.34749,0.3323 -3.85232,-0.34746 z m -38.20083,-37.92225 c 1.56342,-3.64732 4.97314,-8.38535 7.47449,-10.38633 1.22453,-0.97957 3.85687,-2.5534 5.84965,-3.49741 3.40254,-1.61182 3.99016,-1.71637 9.64708,-1.71637 h 6.02385 l 2.95045,-10.49221 c 7.07174,-25.14805 13.89073,-51.1487 13.60778,-51.88606 -0.1689,-0.44016 -1.57659,-1.44358 -3.12818,-2.22983 -4.16489,-2.11051 -8.75971,-6.75807 -10.88869,-11.01364 -1.61769,-3.23357 -1.84833,-4.26686 -2.1966,-9.84068 l -0.38913,-6.22774 -1.69716,-0.53638 c -4.4323,-1.40079 -80.64012,-21.63613 -80.81704,-21.45921 -0.11119,0.1112 1.74189,1.86798 4.11797,3.90397 14.50166,12.42597 22.00277,28.20717 22.00277,46.29045 0,22.66484 -12.6409,43.11478 -33.17573,53.67033 -5.1155,2.62953 -11.72389,4.90595 -16.05696,5.53121 -3.40347,0.49112 -4.63397,1.07545 -3.1815,1.51081 2.14816,0.64388 73.31322,19.72967 75.3241,20.2012 3.3278,0.78034 3.43595,0.73687 4.53285,-1.82211 z M 210.37739,198.9485 c -0.003,-0.22195 -2.18952,-2.55679 -4.85958,-5.18852 -7.985,-7.87039 -13.73394,-17.70087 -16.48872,-28.19512 -1.9567,-7.45396 -2.29021,-18.18076 -0.79809,-25.66869 2.61326,-13.11416 8.54181,-23.92647 18.0949,-33.00098 9.03072,-8.578302 19.67229,-13.675296 33.31638,-15.95754 1.1483,-0.192072 1.87468,-0.545391 1.61418,-0.785151 -0.62621,-0.576356 -8.17422,-2.757273 -28.72189,-8.298881 -34.63023,-9.339603 -50.14591,-13.325097 -50.83929,-13.059024 -0.392,0.150424 -1.52258,1.796406 -2.5124,3.657738 -2.51021,4.720352 -6.51437,8.543378 -11.55799,11.035141 -4.11156,2.031293 -4.27773,2.064416 -10.35539,2.064416 h -6.17677 l -2.06712,7.532871 c -5.02631,18.31656 -14.41836,53.76382 -14.41836,54.41744 0,0.39514 1.49169,1.47145 3.31487,2.39179 4.24546,2.1431 8.47554,6.38313 10.74033,10.76559 1.70407,3.29746 1.79153,3.7599 1.9855,10.49925 l 0.20292,7.04986 25.64159,6.88716 c 33.91831,9.11024 52.99117,14.18203 53.48631,14.22289 0.22195,0.0183 0.40133,-0.14829 0.39862,-0.37024 z m 34.43172,-17.21799 0.80234,-2.82483 h 3.81144 c 7.27827,0 11.73949,-3.67881 14.25601,-11.75576 3.8326,-12.30103 0.45612,-19.66335 -10.64545,-23.21203 -7.10745,-2.27194 -7.72831,-2.74234 -6.54292,-4.95727 0.51684,-0.96573 0.94479,-1.0681 3.36096,-0.804 1.52279,0.16645 5.61813,1.18248 9.10074,2.25787 3.48262,1.07538 6.87241,1.87844 7.53287,1.78458 1.02835,-0.14614 1.4234,-0.95833 2.75019,-5.65423 0.85214,-3.01597 1.40763,-5.8529 1.23442,-6.30427 -0.17321,-0.45138 -2.32319,-1.82785 -4.77772,-3.05881 -2.45454,-1.23097 -4.6121,-2.47227 -4.79459,-2.75845 -0.18249,-0.28618 -0.21478,-1.55849 -0.0718,-2.82734 l 0.26003,-2.30702 6.60063,-32.104747 c 0.30472,-1.482167 -13.23805,30.062167 -14.94957,29.628837 -3.02781,-0.76659 -3.13143,-0.75643 -3.83694,0.37638 -0.3988,0.64035 -0.87383,1.80724 -1.05563,2.5931 -0.29057,1.25608 -0.67238,1.47392 -3.15787,1.80174 -3.33471,0.43983 -7.14373,1.99783 -8.93821,3.656 -3.38242,3.12549 -5.86719,9.47491 -6.36116,16.25489 -0.2708,3.71702 -0.14699,4.6974 0.90088,7.13324 1.96495,4.56765 5.08585,6.7968 13.31426,9.5099 2.43838,0.80399 4.56819,1.67988 4.73293,1.94642 0.16473,0.26654 0.0209,1.00514 -0.31955,1.64134 -0.54693,1.02195 -0.94168,1.12209 -3.38778,0.85946 -1.52278,-0.16351 -6.36605,-1.41982 -10.7628,-2.7918 -4.39675,-1.37198 -8.12186,-2.36675 -8.27801,-2.2106 -0.42631,0.42631 -3.36716,11.1187 -3.36716,12.24239 0,0.70179 1.48276,1.69453 5.28461,3.53817 l 5.28461,2.56267 -0.68489,2.67166 c -0.37669,1.46942 -4.18296,22.78297 -4.06035,22.90559 0.52367,0.52367 13.91107,-16.7505 14.8892,-16.85429 0.80144,-0.085 1.27747,-0.83066 1.87624,-2.93879 z"
     id="path1629"
     sodipodi:nodetypes="sssssssssssssscssssscssssssssscssssssssssscssssscsscccsssssssssssccsssssssssssssssscssssc" />
  <path
     style="fill:#008080;stroke-width:2.53186"
     d="m 417.53626,248.51447 c -9.62936,-2.53663 -15.10997,-4.13952 -15.32091,-4.48085 -0.26626,-0.43081 0.59502,-3.57451 17.47458,-63.78278 18.35265,-65.46266 16.93916,-59.91914 16.94365,-66.45069 0.004,-5.08577 -0.14455,-5.9518 -1.48339,-8.677 -1.73597,-3.53355 -5.59796,-7.348979 -9.37704,-9.263985 -1.46699,-0.743382 -16.57161,-5.108686 -33.56582,-9.700686 -47.06547,-12.71753 -165.1884,-44.414699 -217.50681,-58.365888 -8.82339,-2.352839 -16.17962,-4.414983 -16.34718,-4.582542 -0.39002,-0.390015 4.80393,-21.0015392 5.48204,-21.7547985 0.8297,-0.92164931 300.6529,79.5267365 302.30106,81.1132455 0.24399,0.234859 -0.56253,4.270928 -1.79226,8.969045 C 454.74639,128.2055 424.63939,239.8263 422.52874,246.567 c -0.48647,1.55366 -1.14294,2.80283 -1.45882,2.77594 -0.31587,-0.0269 -1.90602,-0.3997 -3.53366,-0.82847 z"
     id="path1631" />
  <path
     style="fill:#008080;stroke-width:2.53186"
     d="M 7.6562819,318.66734 C 7.8196953,235.7946 7.4253067,243.20113 11.861875,239.6873 l 2.209149,-1.74968 46.594122,0.27163 46.594124,0.27162 2.23937,2.37013 2.23936,2.37012 0.3585,9.08997 c 0.19717,4.99949 0.3585,20.41118 0.3585,34.2482 v 25.15822 l -26.230533,20.39743 c -55.508898,43.16494 -77.8821112,60.40143 -78.4019043,60.40143 -0.1715454,0 -0.2463718,-33.23206 -0.1662808,-73.84903 z"
     id="path1633" />
  <path
     style="fill:#008080;stroke-width:2.53186"
     d="M 15.065742,424.29635 C 12.115334,423.70102 9.7880046,422.24668 8.7537061,420.35198 7.9434459,418.86769 7.7779288,416.83477 7.6259077,406.50009 L 7.4477383,394.38779 21.345406,383.64027 c 7.643717,-5.91114 31.151807,-24.12862 52.240201,-40.48329 21.08839,-16.35466 38.472203,-29.73575 38.630693,-29.73575 0.1585,0 0.21174,23.54695 0.11831,52.32655 -0.13313,41.01022 -0.31904,52.68932 -0.85963,54.004 -0.37937,0.9226 -1.74588,2.4359 -3.03669,3.36289 l -2.34693,1.68543 -44.571201,-0.0619 C 37.006,424.70419 16.101511,424.50535 15.065742,424.29635 Z"
     id="path1635" />
  <path
     style="fill:#008080;stroke-width:2.53186"
     d="m 237.82349,456.70788 c -9.33939,-1.01041 -21.22723,-4.03909 -31.20761,-7.95077 -6.98719,-2.73855 -9.15009,-3.80217 -30.93857,-15.21433 -8.58209,-4.49504 -24.19935,-12.5988 -34.70501,-18.00834 l -19.10121,-9.83554 -0.13643,-73.58001 -0.13643,-73.58 9.01445,-0.0994 c 34.37602,-0.37889 52.59978,0.59784 66.77006,3.57865 18.58186,3.90882 38.82351,13.24834 68.68114,31.68958 l 7.525,4.64773 h 28.81567 c 31.20528,0 31.92345,0.0571 37.73012,2.99956 3.30732,1.67594 7.35816,5.61399 8.81421,8.56878 1.433,2.908 1.4524,9.41959 0.0361,12.10639 -4.04893,7.68094 -15.50045,15.29979 -27.78926,18.48855 -8.66993,2.24972 -14.78316,2.69456 -30.37307,2.21013 -22.40168,-0.69609 -23.85276,-0.66215 -26.66142,0.62364 -5.79309,2.65205 -9.12094,7.51527 -9.52583,13.92076 -0.43867,6.93981 3.06326,12.73702 9.55317,15.81463 2.7829,1.31969 3.44052,1.40299 11.03027,1.39725 10.03438,-0.008 32.88962,-1.11358 39.00951,-1.88771 21.51641,-2.72171 36.69249,-9.56102 48.45982,-21.83909 5.98772,-6.2476 8.52428,-10.25306 12.63159,-19.9464 l 3.68864,-8.70528 39.63629,-19.66649 c 27.38217,-13.58631 40.69886,-19.91696 43.0732,-20.47664 4.03378,-0.95086 12.66844,-1.07451 16.72746,-0.23954 5.22366,1.07455 11.49066,4.51831 15.47714,8.50478 10.97988,10.97988 11.17206,26.8069 0.48395,39.85568 -2.72867,3.33137 -26.61536,20.24393 -49.96702,35.37829 -36.43686,23.61497 -71.37701,43.41726 -108.68214,61.5955 -10.21326,4.97677 -20.38552,10.02212 -22.60503,11.21189 -21.31734,11.42718 -34.76881,16.23112 -51.1018,18.25007 -4.24947,0.52529 -19.97986,0.64711 -24.22691,0.18764 z"
     id="path1637" />
  <path
     style="fill:#008080;stroke-width:2.53186"
     d="m 53.49746,424.27211 -39.856331,-0.2791 -2.224301,-1.47226 C 8.4748525,420.57346 8.243819,419.48364 7.8802628,405.83821 l -0.2973364,-11.15999 6.8352656,-5.29628 c 88.713308,-68.7392 96.691188,-74.88459 97.214398,-74.88459 0.19092,0 0.27247,23.63385 0.18122,52.51967 l -0.1659,52.51966 -2.86236,2.63171 -2.86236,2.63171 -6.284698,-0.12444 c -3.456587,-0.0684 -24.220052,-0.25004 -46.141032,-0.40355 z"
     id="path1639" />
  <path
     style="fill:#008080;stroke-width:2.53186"
     d="m 168.95153,187.57326 -37.39532,-10.07549 0.18901,-4.67321 c 0.10396,-2.57027 -0.10701,-5.94594 -0.4688,-7.5015 -1.56418,-6.72522 -6.58314,-13.07227 -12.72978,-16.09825 -2.71485,-1.33652 -3.35993,-1.88566 -3.1164,-2.65297 0.16891,-0.53217 3.88156,-14.31709 8.25033,-30.63316 l 7.94323,-29.665569 6.42295,-0.09158 c 6.17923,-0.08811 6.5772,-0.165244 10.48796,-2.032943 5.06953,-2.421095 9.0306,-6.314772 11.37783,-11.184233 0.94232,-1.954882 1.75705,-3.624517 1.81052,-3.7103 0.12045,-0.193248 76.82143,20.339859 77.13172,20.648419 0.1233,0.122619 0.1233,0.239981 0,0.260803 -18.41162,3.109129 -33.20364,12.618283 -42.86815,27.558073 -9.43073,14.57842 -12.15946,33.00129 -7.36451,49.72116 2.83742,9.89405 9.10289,20.36209 16.28099,27.20149 1.95378,1.86159 2.88794,3.07611 2.34541,3.04931 -0.49592,-0.0245 -17.72956,-4.57853 -38.29699,-10.12005 z"
     id="path1806" />
  <path
     style="fill:#008080;stroke-width:2.53186"
     d="m 303.46708,223.59371 c -16.12842,-4.33766 -33.29686,-8.94704 -38.1521,-10.24307 l -8.82772,-2.35642 3.39081,-0.69166 c 5.26081,-1.07311 10.05883,-2.79052 15.33076,-5.4875 25.294,-12.93977 38.13617,-41.84918 30.96763,-69.71218 -2.89408,-11.24886 -10.07653,-22.90519 -18.53596,-30.08184 -1.98269,-1.68204 -3.50595,-3.05825 -3.385,-3.05825 0.12094,0 17.83667,4.72149 39.36827,10.49221 21.5316,5.77072 39.27105,10.49221 39.42098,10.49221 0.14993,0 0.11428,1.5133 -0.0792,3.36289 -1.01008,9.65508 5.11744,20.32026 13.85299,24.11161 2.08611,0.9054 2.9516,1.56188 2.79356,2.11892 -0.12595,0.4439 -3.52184,13.15562 -7.54642,28.24827 -4.02459,15.09264 -7.68835,28.59521 -8.1417,30.00571 l -0.82427,2.56453 -4.12383,-0.34364 c -7.2291,-0.60239 -13.57878,1.72786 -18.85142,6.91823 -2.87284,2.82802 -5.62486,7.07724 -6.27535,9.6894 -0.20336,0.81661 -0.52451,1.56856 -0.71368,1.67099 -0.18917,0.10243 -13.53992,-3.36275 -29.66833,-7.70041 z"
     id="path1808" />
  <path
     style="fill:#ffff00;stroke-width:2.53186"
     d="m 374.76032,267.81096 c -3.7721,-0.79645 -237.42246,-63.35553 -271.72141,-72.75247 -24.682416,-6.76228 -27.389545,-7.6213 -27.608995,-8.76081 -0.442005,-2.29515 39.803225,-152.897464 41.264845,-154.417856 0.50196,-0.522143 22.33579,5.272562 221.74636,58.851565 63.36084,17.024231 79.12413,21.327391 79.52164,21.708291 0.50859,0.48736 -15.21052,60.38076 -31.91866,121.61738 -6.91469,25.34289 -9.16242,33.08658 -9.74981,33.58928 -0.25182,0.21551 -0.9421,0.28959 -1.53397,0.16462 z m -38.73518,-39.88122 c 2.92934,-5.32944 6.64068,-9.06637 11.29401,-11.37187 3.50653,-1.73732 4.21156,-1.88483 10.21715,-2.1376 l 6.45072,-0.27152 3.3787,-12.1064 c 4.91803,-17.62213 12.4278,-46.19757 12.79717,-48.69462 l 0.31837,-2.15225 -3.58829,-2.15225 c -4.3471,-2.60739 -8.36656,-6.85821 -10.5215,-11.12712 -1.35704,-2.68828 -1.67013,-4.11053 -2.06266,-9.36984 -0.25452,-3.41026 -0.5494,-6.2686 -0.65528,-6.35186 -0.66604,-0.52372 -81.03328,-21.84581 -82.34125,-21.84581 -0.35025,0 2.27214,2.845 5.82755,6.32223 7.05558,6.90042 10.2238,11.02533 13.53459,17.62154 4.33953,8.64578 6.05383,16.01235 6.05503,26.01914 0.001,10.33351 -1.82495,18.25672 -6.21848,26.97998 -8.22662,16.33373 -23.86386,28.35771 -41.8138,32.15195 -2.44291,0.51639 -4.4464,1.18101 -4.45221,1.47694 -0.0115,0.58629 -0.71498,0.38752 44.91762,12.69205 17.31215,4.66812 32.19687,8.44358 33.07714,8.38993 1.40033,-0.0854 1.87379,-0.59473 3.78542,-4.07262 z M 233.96328,195.27769 c 2.75979,-3.23389 6.24439,-7.20842 7.74355,-8.8323 1.49915,-1.62387 3.07741,-3.98462 3.50724,-5.24611 l 0.78151,-2.2936 3.85037,-0.0118 c 4.66791,-0.0143 7.42747,-1.13253 9.98586,-4.04636 4.32078,-4.9211 6.61944,-15.05275 4.85599,-21.40334 -0.64359,-2.31766 -3.48076,-5.71127 -6.15834,-7.3661 -0.98376,-0.608 -3.44218,-1.67391 -5.46315,-2.3687 -5.79317,-1.99162 -6.70376,-2.5187 -6.52394,-3.77627 0.26013,-1.8193 3.41637,-1.67936 11.25448,0.499 3.8568,1.07187 7.65346,1.87404 8.43702,1.7826 1.61159,-0.18809 2.73792,-2.58992 3.93706,-8.3956 0.83097,-4.02317 0.73141,-4.16754 -4.96836,-7.20451 -3.7292,-1.98697 -4.2424,-2.44031 -4.2424,-3.74747 0,-0.81787 1.57102,-9.16781 3.49116,-18.55542 1.92015,-9.387614 3.37605,-17.183511 3.23534,-17.324215 -0.1407,-0.140703 -0.83718,1.052563 -1.54774,2.651705 -3.82154,8.600586 -10.54015,22.57492 -11.82012,24.58521 -1.35399,2.12653 -1.60672,2.28162 -3.22371,1.97828 -1.66139,-0.31168 -1.82458,-0.19336 -3.07406,2.22913 -1.28065,2.48293 -1.4217,2.57883 -4.78776,3.25553 -8.68076,1.74513 -13.17572,8.20684 -13.87002,19.93878 -0.27358,4.62297 -0.19388,5.16177 1.17869,7.96719 1.81896,3.71781 4.86996,5.88198 12.04381,8.54303 5.68744,2.10968 5.71079,2.12411 5.27524,3.25914 -0.53778,1.40144 -3.99327,0.97821 -13.05439,-1.59891 -4.6976,-1.33608 -8.80657,-2.32735 -9.13105,-2.20283 -0.80257,0.30797 -3.56717,10.21235 -3.35615,12.02363 0.14276,1.22535 0.92867,1.85449 5.01187,4.01212 2.66341,1.40738 4.80975,2.86762 4.76964,3.24497 -0.0871,0.81911 -3.89739,22.32105 -4.20322,23.71898 -0.40187,1.83695 1.03949,0.57378 6.06558,-5.31572 z m -23.58096,3.53664 c 0,-0.29575 -2.12817,-2.77756 -4.72926,-5.51514 -9.56525,-10.06718 -14.88069,-19.85854 -17.11362,-31.52432 -1.00997,-5.2765 -0.96788,-16.60602 0.0823,-22.14188 3.69553,-19.48127 17.63014,-36.65482 35.83189,-44.160622 2.08642,-0.860372 6.70221,-2.281626 10.2573,-3.158339 3.5551,-0.876719 6.57797,-1.708191 6.7175,-1.847727 0.76059,-0.760583 -5.89337,-2.735406 -39.97551,-11.864298 -28.35177,-7.594014 -38.80371,-10.173451 -39.75066,-9.810072 -0.39776,0.152636 -1.80665,1.952355 -3.13086,3.999374 -3.27946,5.069518 -6.3281,7.857534 -11.33914,10.369751 -4.18533,2.098261 -4.30024,2.121801 -10.3577,2.121801 -3.36897,0 -6.12541,0.09363 -6.12541,0.208069 0,0.114435 -2.79792,10.58647 -6.21761,23.271193 -7.93317,29.42666 -10.12031,38.187 -9.76506,39.11278 0.157,0.40912 1.68938,1.53618 3.40531,2.50458 4.19558,2.36785 8.37419,6.76814 10.33521,10.88354 1.44204,3.02625 1.64344,4.08986 1.90509,10.06065 0.16092,3.67214 0.48419,6.84446 0.71837,7.04959 0.23418,0.20513 16.89049,4.75593 37.01402,10.1129 20.12352,5.35698 37.43567,9.97145 38.47144,10.25439 2.5447,0.69514 3.76644,0.71907 3.76644,0.0738 z"
     id="path2075" />
  <path
     style="fill:#ffff00;stroke-width:2.53186"
     d="m 231.63578,455.49094 c -10.322,-1.85465 -22.32532,-5.57253 -31.14203,-9.64586 -4.06274,-1.87698 -62.73019,-32.11566 -73.91462,-38.09745 l -4.43901,-2.37412 v -66.87609 c 0,-36.78185 -0.15827,-69.81964 -0.35172,-73.41731 l -0.35172,-6.54122 17.4352,0.01 c 34.88443,0.0194 51.6983,1.51254 67.05627,5.95502 13.62223,3.9404 32.70582,13.09633 54.49395,26.14514 l 12.64446,7.57271 28.99782,0.36458 c 15.94879,0.20052 30.23434,0.59727 31.74567,0.88165 3.94609,0.74254 8.02113,2.89559 11.03315,5.82939 3.94633,3.84385 4.61808,5.42509 4.62355,10.88355 0.004,4.53543 -0.0447,4.7143 -2.13495,7.74918 -4.98788,7.24219 -15.3117,13.44809 -27.99189,16.8266 l -5.38062,1.43362 -24.2128,0.0109 c -24.07765,0.0108 -24.22548,0.0176 -26.48527,1.22306 -5.40723,2.88441 -8.27018,7.4053 -8.6432,13.64849 -0.43037,7.20316 2.38187,12.39409 8.57219,15.82284 l 2.88155,1.59603 13.45155,-0.0645 c 25.24737,-0.12097 40.72445,-1.69198 52.84779,-5.36434 12.18129,-3.68991 21.17981,-8.92289 29.42356,-17.11092 6.34662,-6.30373 9.5246,-11.21725 13.807,-21.34722 l 3.46316,-8.19208 31.82464,-15.7667 c 36.28691,-17.97741 48.21654,-23.64241 51.56056,-24.48444 1.35677,-0.34164 5.50733,-0.51188 9.84188,-0.40366 l 7.49563,0.18712 5.25986,2.61212 c 15.88873,7.89058 21.18296,23.6771 13.1309,39.15418 -2.69831,5.1865 -4.46593,7.03961 -12.32845,12.92472 -28.57073,21.38525 -74.80289,50.38196 -114.79033,71.99625 -16.03939,8.66972 -75.86285,38.35732 -82.27691,40.8302 -6.9848,2.69292 -15.98356,5.12878 -23.1086,6.25523 -7.57691,1.1979 -26.82397,1.0699 -34.03822,-0.22635 z"
     id="path2077" />
  <path
     style="fill:#ffff00;stroke-width:2.53186"
     d="m 8.2052312,318.7206 c 0.1361981,-55.20694 0.3407115,-73.83727 0.8263333,-75.2755 0.4219019,-1.24952 1.4849875,-2.5031 3.0704325,-3.62062 l 2.425092,-1.70937 46.248182,0.34594 46.248179,0.34594 2.30344,2.34704 2.30344,2.34703 0.36545,23.79529 c 0.201,13.08742 0.37476,28.39573 0.38614,34.01848 l 0.0207,10.22318 -37.172931,28.78633 C 32.956027,373.06061 11.710026,389.45092 9.5272567,391.01076 l -1.5030184,1.07408 z"
     id="path2079" />
  <path
     style="fill:#ffff00;stroke-width:2.53186"
     d="m 52.690352,424.27231 -39.049253,-0.2793 -2.224286,-1.47226 C 8.4456245,420.55412 8.2055459,419.38165 7.9843775,405.75786 L 7.8019019,394.51751 21.791519,383.66949 c 71.616245,-55.53364 89.332501,-69.17214 89.853831,-69.17214 0.1815,0 0.25633,23.63385 0.16628,52.51967 l -0.16372,52.51966 -2.86236,2.63171 -2.86236,2.63171 -7.091791,-0.12424 c -3.900488,-0.0683 -24.663959,-0.24994 -46.141047,-0.40355 z"
     id="path2081" />
  <path
     style="fill:#008000;stroke-width:2.53186"
     d="m 414.57692,247.44861 c -12.31959,-3.37569 -12.24402,-3.34418 -11.86675,-4.94793 0.18745,-0.79685 5.81434,-21.06118 12.5042,-45.03185 24.19877,-86.70745 21.30607,-75.45384 21.36845,-83.13061 0.049,-6.03548 -0.0751,-6.98919 -1.20916,-9.29228 -1.48674,-3.01919 -5.18277,-6.87222 -8.33461,-8.688669 C 423.30583,94.20577 403.93124,88.888639 233.68597,43.293779 155.65822,22.396491 159.22464,23.384858 158.9126,22.571705 c -0.25433,-0.662771 3.51174,-16.3583759 4.61916,-19.2509729 0.52106,-1.3610007 0.76715,-1.4849061 2.32862,-1.1724571 15.26746,3.0549957 298.52943,79.230926 299.96675,80.668246 0.45455,0.45455 -2.19055,10.640331 -19.78309,76.180859 -12.35089,46.01291 -23.40723,86.49029 -24.13996,88.37672 -0.69304,1.78423 -1.07343,1.78809 -7.32716,0.0745 z"
     id="path2083" />
  <path
     style="fill:#e4e43e;stroke-width:2.53186;fill-opacity:1"
     d="m 370.18679,266.34494 c -2.51544,-0.69451 -25.63866,-6.87118 -51.38494,-13.72593 C 224.47082,227.50409 105.57942,195.53936 89.318325,190.92087 78.244611,187.77569 75.86677,186.85334 75.86677,185.70303 c 0,-3.67331 39.66667,-152.103568 41.00635,-153.443241 0.33362,-0.333625 16.6809,3.876612 60.95644,15.699314 72.1373,19.262507 219.46707,58.883647 233.97184,62.921647 2.91248,0.8108 5.41126,1.77608 5.55285,2.14505 0.61723,1.60847 -37.71072,145.571 -40.7821,153.18047 -0.70611,1.74943 -0.56271,1.74631 -6.38536,0.13867 z m -35.94984,-35.11271 c 0.44284,-0.51789 1.68206,-2.41133 2.75383,-4.20765 2.54743,-4.26962 7.06203,-8.48641 11.16135,-10.42508 2.8052,-1.32664 4.22318,-1.61016 9.68283,-1.93602 l 6.39634,-0.38177 0.8062,-2.77323 c 3.64241,-12.52943 13.37642,-49.42664 15.58159,-59.0627 0.29906,-1.30684 0.0451,-1.60274 -2.74568,-3.19948 -4.10663,-2.34957 -9.21488,-7.57431 -11.10736,-11.36066 -1.22781,-2.45652 -1.66189,-4.33301 -2.15492,-9.31567 -0.47133,-4.76333 -0.82525,-6.35582 -1.49594,-6.73117 -1.69426,-0.94815 -79.49387,-21.4902 -81.39059,-21.4902 -0.63315,0 1.10412,2.1556 5.09534,6.32223 9.21072,9.61554 13.00006,15.20285 16.13337,23.78831 2.06012,5.64489 2.63166,8.27497 3.18854,14.6731 1.30008,14.93685 -2.68968,29.04568 -11.55344,40.85595 -8.75975,11.67171 -20.40614,19.27615 -35.32052,23.06234 -5.04155,1.27986 -5.89187,1.78562 -4.3708,2.59967 1.08172,0.57892 46.70464,13.0185 65.24992,17.79111 11.62343,2.99127 12.92234,3.15636 14.08994,1.79092 z M 231.1864,198.67947 c 6.28286,-6.47207 12.75312,-14.30752 13.9959,-16.94896 l 1.32907,-2.82483 h 3.82615 c 2.8058,0 4.45829,-0.30602 6.19662,-1.14753 5.17927,-2.50724 8.81416,-10.48578 8.81506,-19.34896 5.4e-4,-7.62131 -3.01976,-11.43105 -11.69609,-14.75205 -5.83834,-2.23472 -6.68256,-2.71817 -6.68256,-3.82685 0,-1.20198 3.74607,-0.89808 10.76124,0.87297 7.78716,1.96596 9.3937,2.02806 10.4402,0.40355 1.02093,-1.58482 2.4733,-7.30593 2.4733,-9.7427 0,-1.83476 -0.19705,-2.03609 -4.43902,-4.5356 -3.82458,-2.25357 -4.46129,-2.83789 -4.59993,-4.22149 -0.0885,-0.88324 1.30373,-9.02339 3.09386,-18.08925 1.79013,-9.065843 3.25477,-16.739261 3.25477,-17.052036 0,-1.828686 -1.37025,0.519353 -5.55558,9.519977 -2.58022,5.548769 -5.72675,12.025689 -6.9923,14.393159 -2.19737,4.11065 -2.39674,4.31662 -4.42715,4.57353 -1.78505,0.22587 -2.29865,0.59115 -3.2012,2.27675 -1.10829,2.06984 -1.55762,2.32183 -6.95279,3.89934 -2.48126,0.72549 -3.79867,1.54475 -5.96072,3.7068 -3.72981,3.72982 -5.09852,7.63747 -5.49697,15.69391 -0.26271,5.31185 -0.17484,6.17043 0.83385,8.14764 1.7622,3.45418 4.97951,5.80134 11.45845,8.35941 3.21267,1.26845 5.84276,2.60894 5.84463,2.97886 0.006,1.23055 -4.15406,0.72313 -12.99786,-1.58533 -10.09818,-2.63588 -9.35229,-2.89771 -11.1945,3.92963 -1.80604,6.69326 -1.61213,7.27737 3.40235,10.24903 2.32456,1.37757 4.42536,2.70927 4.66845,2.95934 0.2431,0.25008 -0.50658,5.7815 -1.66594,12.29205 -1.15936,6.51055 -2.11006,12.01897 -2.11266,12.24092 -0.0108,0.9241 0.99185,0.24622 3.58137,-2.42128 z m -20.81671,0 c -0.007,-0.36992 -2.1982,-3.09386 -4.86945,-6.0532 -8.2003,-9.08472 -13.0005,-17.17378 -15.67904,-26.42153 -1.11256,-3.8412 -1.22809,-5.33013 -1.20627,-15.54732 0.0228,-10.64906 0.10561,-11.5625 1.43999,-15.87284 5.04137,-16.28473 15.84972,-29.46645 30.30118,-36.954924 4.04377,-2.095402 8.55658,-3.665 17.1657,-5.970397 2.05358,-0.549916 3.82121,-1.262116 3.92806,-1.582662 0.32581,-0.977443 -7.27112,-3.231849 -43.00337,-12.761347 -23.78312,-6.342761 -34.20652,-8.916623 -36.05694,-8.90358 -0.92017,0.0065 -1.92234,0.980606 -3.88618,3.777425 -3.53961,5.040946 -6.93617,8.117579 -11.4978,10.414776 -3.48178,1.753396 -4.29164,1.933854 -10.16964,2.266047 l -6.38659,0.360934 -4.76888,17.816578 c -7.83989,29.28986 -11.04317,41.93738 -11.05377,43.64355 -0.009,1.3912 0.44616,1.90814 3.29226,3.74206 4.54407,2.92803 8.23009,6.82479 10.15577,10.7364 1.41459,2.87343 1.68349,4.1728 2.11048,10.19798 0.26914,3.79774 0.56665,6.97247 0.66114,7.05497 0.0945,0.0825 7.43564,2.11173 16.31367,4.50943 64.0845,17.30736 63.23882,17.09934 63.20968,15.54765 z"
     id="path2181" />
  <path
     style="fill:#e4e43e;fill-opacity:1;stroke-width:2.53186"
     d="m 240.44983,455.95369 c -5.93708,-0.29147 -9.56538,-0.79531 -14.79671,-2.05471 -13.38178,-3.22159 -19.17881,-5.53585 -39.21457,-15.65507 -16.88238,-8.52658 -44.06614,-22.54401 -58.64878,-30.24252 l -5.38062,-2.84056 -0.26903,-73.17645 c -0.14797,-40.24706 -0.2208,-73.26505 -0.16185,-73.37332 0.27727,-0.50926 53.92915,1.09303 60.42481,1.80455 25.32296,2.77385 43.84401,10.21666 81.88968,32.90794 l 8.44418,5.03629 30.02726,0.53867 c 23.71504,0.42544 30.60665,0.70671 32.78337,1.33804 5.55171,1.61017 11.97662,7.05707 13.14995,11.14825 0.80809,2.81764 0.60827,8.34335 -0.37132,10.2686 -3.62122,7.11694 -13.28528,13.6724 -26.83404,18.20241 l -5.38062,1.79901 -25.55795,0.27637 c -28.68218,0.31015 -27.0449,0.0778 -31.6163,4.48742 -3.01964,2.9128 -4.43387,6.69909 -4.43387,11.87071 0,6.65463 2.16015,10.68113 7.65719,14.2729 l 3.36411,2.1981 10.76573,-0.007 c 46.71185,-0.0317 67.7495,-5.46739 84.83337,-21.91904 7.30112,-7.03093 10.51814,-12.04185 15.80354,-24.61603 1.11953,-2.6634 2.30058,-5.11885 2.62454,-5.45655 0.59575,-0.62098 62.69548,-31.30927 75.11066,-37.11799 l 6.72577,-3.1468 8.99294,-0.17667 8.99294,-0.17668 4.45862,2.23833 c 8.26141,4.14743 13.51599,9.37823 16.06811,15.9954 3.40329,8.82411 0.84305,21.26718 -5.92465,28.7945 -8.95737,9.96275 -64.29761,46.19154 -109.28527,71.54421 -18.96626,10.68837 -65.71317,34.41835 -89.83294,45.60159 -11.71125,5.42997 -24.47528,8.95794 -34.16695,9.44372 -11.09036,0.55588 -12.55876,0.56987 -20.2413,0.1927 z"
     id="path2643" />
  <path
     style="fill:#e4e43e;fill-opacity:1;stroke-width:2.53186"
     d="m 8.4557763,327.81439 c 0.088044,-34.99422 0.3054502,-68.34735 0.4831258,-74.11806 l 0.3230466,-10.49222 2.4561273,-2.36614 2.456127,-2.36614 46.242584,0.2825 46.242583,0.2825 2.40172,2.40172 2.40172,2.40172 0.28427,33.84887 0.28428,33.84887 -33.78373,26.09602 c -42.180531,32.58208 -69.7365701,53.80622 -69.8584701,53.80622 -0.051405,0 -0.021427,-28.63164 0.066616,-63.62586 z"
     id="path2645" />
  <path
     style="fill:#e4e43e;fill-opacity:1;stroke-width:2.53186"
     d="M 59.455873,424.14875 13.720586,423.6747 11.704125,422.28189 C 8.9211063,420.3596 8.6062555,418.74498 8.4623824,405.65761 L 8.3399641,394.52185 53.720505,359.38284 c 24.959297,-19.32645 48.082515,-37.18078 51.384945,-39.67629 l 6.00439,-4.53728 0.13721,51.97094 0.13721,51.97095 -2.80914,2.84447 c -1.54503,1.56446 -2.93847,2.80458 -3.09655,2.75582 -0.15808,-0.0488 -20.86829,-0.30198 -46.022697,-0.5627 z"
     id="path2647" />
  <path
     style="fill:#e4e43e;fill-opacity:1;stroke-width:2.53186"
     d="m 372.83227,266.93301 c -0.12331,-0.11818 -26.25296,-7.16092 -58.06588,-15.65053 C 151.40394,207.68752 84.128864,189.48981 79.211981,187.56571 c -1.960746,-0.7673 -2.57503,-1.29563 -2.700382,-2.32254 -0.222084,-1.81937 5.454217,-24.14005 19.536773,-76.82364 14.289918,-53.459322 20.594768,-75.866767 21.346888,-75.866767 1.92925,0 66.37772,17.129047 222.66005,59.178362 79.313,21.339945 76.94289,20.664965 76.94289,21.912675 0,3.16851 -32.90107,127.16734 -39.33785,148.25797 -1.52603,5.00021 -1.67146,5.24611 -3.10249,5.24611 -0.82577,0 -1.60229,-0.0967 -1.72559,-0.21487 z m -38.9164,-35.17096 c 0.32249,-0.21742 1.72949,-2.13993 3.12667,-4.27225 3.09281,-4.72013 7.40222,-8.75853 11.32822,-10.61583 2.29092,-1.08378 4.31036,-1.49952 9.23242,-1.9007 3.46506,-0.28242 6.4872,-0.70454 6.71587,-0.93804 0.76522,-0.78137 16.62899,-60.38755 16.62899,-62.48142 0,-0.3524 -1.39224,-1.52723 -3.09386,-2.61073 -4.0314,-2.56698 -8.93357,-7.58883 -10.58042,-10.83873 -1.27753,-2.52109 -2.04083,-5.87992 -2.72773,-12.00311 -0.18718,-1.66852 -0.62894,-3.40599 -0.9817,-3.86104 -0.35276,-0.45504 -4.63649,-1.92164 -9.5194,-3.25911 -25.37019,-6.94913 -67.35036,-17.90758 -70.68162,-18.45065 -1.91918,-0.31287 -2.03662,-0.2606 -1.53051,0.68125 0.3015,0.56107 2.78157,3.44141 5.51127,6.40075 9.35201,10.13873 12.79894,15.48039 15.79796,24.48183 8.44143,25.33663 -1.4961,53.33986 -24.17471,68.12253 -5.61338,3.65898 -10.19229,5.71395 -18.00715,8.08144 -6.00844,1.82023 -7.53545,2.52989 -6.87179,3.19356 0.57744,0.57742 48.62204,13.75711 69.28894,19.00746 6.27576,1.59434 9.4777,1.97801 10.53855,1.26279 z M 232.70681,197.33431 c 6.08006,-6.40588 11.42078,-13.0472 12.76441,-15.87283 l 1.21532,-2.5558 h 3.92987 c 6.00481,0 9.28637,-2.11669 12.09548,-7.8019 1.84092,-3.72574 2.73997,-7.89263 2.72819,-12.64446 -0.0204,-8.21388 -3.07415,-11.65855 -14.27841,-16.1061 -1.68999,-0.67084 -3.354,-1.55865 -3.6978,-1.9729 -1.0071,-1.21347 3.74076,-0.93974 10.26792,0.59198 6.79998,1.59574 9.21011,1.68574 10.38472,0.3878 1.10757,-1.22385 2.52878,-6.65246 2.52878,-9.65922 0,-2.31602 -0.007,-2.32375 -4.37321,-5.09601 l -4.3732,-2.77648 0.31013,-3.26541 c 0.17056,-1.79598 1.53318,-9.65332 3.02805,-17.46076 2.79154,-14.579888 3.02186,-16.205175 2.29641,-16.205175 -0.23183,0 -3.56109,6.35586 -7.39835,14.124135 l -6.97686,14.12413 -2.05486,0.50751 c -1.37219,0.33891 -2.58374,1.17527 -3.6468,2.5175 -1.1222,1.41689 -2.42107,2.2812 -4.40188,2.92913 -7.85682,2.57003 -11.86108,6.94301 -13.25318,14.4736 -0.86154,4.66046 -0.75179,12.39794 0.20201,14.24238 1.34602,2.60292 5.45012,5.71908 10.36912,7.87309 2.59307,1.13548 5.19226,2.37875 5.77599,2.76281 2.04891,1.34807 -2.8513,0.80647 -11.47848,-1.26867 -6.03309,-1.45117 -8.50311,-1.83967 -9.14705,-1.43873 -1.14205,0.71108 -2.76051,5.55212 -3.11735,9.32438 -0.346,3.65771 0.0461,4.23031 4.95888,7.24232 4.4198,2.70976 4.27423,1.44083 1.8312,15.96219 -1.77813,10.56916 -1.83835,11.23147 -1.02124,11.23147 0.31587,0 2.35536,-1.87649 4.53219,-4.16998 z m -22.32449,1.31245 c 0,-0.3879 -2.06174,-3.11184 -4.58165,-6.0532 -8.27188,-9.65532 -12.81744,-17.18205 -15.41528,-25.52525 -1.16327,-3.73596 -1.25653,-4.95393 -1.25653,-16.41089 0,-12.23333 0.0179,-12.42796 1.5555,-16.94896 5.1315,-15.08784 15.23284,-27.52307 28.30695,-34.847226 3.95218,-2.214018 7.37188,-3.520573 15.22362,-5.816436 6.99214,-2.044512 8.14787,-2.633465 6.83244,-3.481779 -2.95335,-1.904584 -73.69815,-20.960089 -77.8157,-20.960089 -1.99688,0 -2.63637,0.517063 -5.75361,4.652117 -3.27368,4.342576 -6.77036,7.366242 -10.82957,9.364581 -2.78376,1.370442 -4.30213,1.70664 -9.6916,2.145915 -3.51488,0.286484 -6.48971,0.619897 -6.61073,0.740918 -0.28622,0.286216 -9.61382,35.166039 -13.06483,48.854909 -3.46162,13.73094 -3.46047,13.85573 0.15074,16.28273 4.22847,2.84185 8.6749,7.48226 10.24814,10.69523 1.36195,2.78147 2.5206,9.19505 2.53908,14.05483 0.004,1.1915 0.20987,2.48431 0.45629,2.87291 0.24643,0.38859 5.26688,2.02653 11.15656,3.63985 10.71227,2.93434 58.84174,15.78773 62.90053,16.79813 3.19767,0.79602 5.64965,0.77073 5.64965,-0.0583 z"
     id="path2649" />
  <path
     style="fill:#e4e43e;fill-opacity:1;stroke-width:2.53186"
     d="m 367.76551,265.54159 c -2.95934,-0.83634 -25.47724,-6.88642 -50.03978,-13.4446 C 142.87567,205.41211 82.682603,189.11648 78.257176,187.26742 c -1.43444,-0.59935 -1.852344,-1.08807 -1.852344,-2.16623 0,-2.29629 6.313449,-26.89778 20.783378,-80.98615 14.55969,-54.423931 19.42648,-71.564673 20.31735,-71.557358 1.71368,0.01407 37.83021,9.550864 137.80495,36.388242 28.11375,7.546901 56.07953,15.053788 62.14619,16.681973 78.02414,20.940333 97.80261,26.353983 99.0107,27.100623 0.66609,0.41166 0.38874,2.08681 -1.84371,11.13579 -7.51387,30.45652 -33.94808,129.08012 -37.50313,139.92068 -1.31947,4.02354 -1.32803,4.02514 -9.35505,1.7566 z M 334.46448,230.9632 c 0.57942,-0.66585 1.98774,-2.61003 3.12961,-4.32041 2.69225,-4.03265 7.09446,-8.02685 10.75586,-9.75897 2.24154,-1.06042 4.37376,-1.50555 9.26615,-1.93444 3.49506,-0.30639 6.52048,-0.73294 6.72316,-0.94788 0.70574,-0.74845 16.60878,-60.51822 16.60878,-62.42221 0,-0.34088 -1.39121,-1.50972 -3.09156,-2.59742 -4.11525,-2.63249 -8.94389,-7.64345 -10.6947,-11.0985 -0.91261,-1.80096 -1.67033,-4.59666 -2.12168,-7.82817 -1.18053,-8.45231 -0.93645,-7.97525 -4.70867,-9.20346 -3.88967,-1.26644 -21.99262,-6.16652 -46.64117,-12.62474 -25.11845,-6.58135 -30.70289,-7.95088 -31.66507,-7.76558 -0.61085,0.11764 0.17428,1.31195 2.75828,4.19579 12.34318,13.77542 15.28198,18.15054 18.30502,27.25147 9.34052,28.11981 -3.63986,58.56058 -30.82902,72.29827 -1.3317,0.67285 -5.91837,2.3568 -10.19258,3.7421 -4.27422,1.38529 -7.8526,2.7626 -7.95196,3.06068 -0.22259,0.66775 3.68195,1.83867 30.25094,9.07184 28.31933,7.70968 45.39358,12.06137 47.3902,12.07826 1.05795,0.009 2.03492,-0.42269 2.70841,-1.19663 z M 233.06174,196.79625 c 5.53855,-5.69333 10.94043,-12.44689 12.4639,-15.58264 l 1.12128,-2.30793 h 3.81424 c 8.99367,0 14.14854,-6.57418 14.6836,-18.72648 0.41416,-9.40656 -1.82032,-12.60933 -11.7081,-16.78167 -2.936,-1.23891 -5.62162,-2.59407 -5.96803,-3.01147 -1.02635,-1.23668 3.94122,-0.95879 10.48006,0.58624 7.35189,1.73714 9.18265,1.74312 10.30273,0.0337 1.16529,-1.77845 2.37969,-6.52243 2.38748,-9.32656 0.006,-2.28804 -0.0124,-2.30999 -4.29811,-5.03092 -3.92589,-2.49248 -4.3045,-2.88549 -4.3045,-4.46812 0,-1.90063 1.19456,-8.86598 4.05634,-23.652152 2.07001,-10.695256 2.23064,-12.205936 1.18977,-11.189805 -0.36992,0.36112 -3.69918,6.759126 -7.39836,14.217787 l -6.72578,13.56119 -2.24699,0.71812 c -1.38069,0.44125 -2.77779,1.41403 -3.62377,2.52317 -1.01064,1.32501 -2.29915,2.112 -4.84502,2.95922 -8.66726,2.88428 -12.53286,8.54775 -13.08991,19.17797 -0.37746,7.20332 0.008,8.95289 2.58675,11.75086 1.96076,2.12717 5.10647,3.96531 12.60995,7.36842 l 2.69031,1.22016 -2.08344,0.19356 c -1.18453,0.11004 -5.63968,-0.65017 -10.32595,-1.76198 -6.24201,-1.48091 -8.49613,-1.81981 -9.28746,-1.3963 -1.11903,0.59888 -3.32304,7.63679 -3.32304,10.61119 0,2.15779 0.66948,2.9015 5.24809,5.83001 l 3.90294,2.49634 -0.3309,2.25941 c -0.18199,1.24268 -1.03033,6.41318 -1.8852,11.49001 -1.68311,9.99549 -1.77988,10.94673 -1.11362,10.94673 0.24238,0 2.50171,-2.11862 5.02074,-4.70804 z m -22.69645,1.88322 c -0.009,-0.36992 -2.43521,-3.55995 -5.39078,-7.08895 -8.20509,-9.79703 -11.97955,-16.14135 -14.58912,-24.52221 -1.16738,-3.74915 -1.25615,-4.9326 -1.25119,-16.67993 0.005,-12.39899 0.034,-12.72559 1.47908,-16.82403 4.71884,-13.38267 13.55813,-25.06268 24.44124,-32.29602 5.07117,-3.370501 9.44154,-5.311276 17.20598,-7.640757 10.33577,-3.100933 10.73859,-3.361409 7.31169,-4.728027 -6.75593,-2.694218 -73.0857,-20.296616 -76.48216,-20.296616 -1.29092,0 -2.07271,0.561704 -3.92828,2.822384 -4.58445,5.585339 -8.74838,9.34087 -12.2895,11.084157 -2.98258,1.468319 -4.44108,1.803135 -9.93201,2.280013 -3.53984,0.307429 -6.51724,0.640133 -6.61645,0.739343 -0.70887,0.708866 -15.71654,58.928933 -15.71654,60.970013 0,1.53727 1.42303,3.24188 4.3045,5.15626 2.91203,1.93468 7.44499,6.98137 8.85239,9.85564 1.19016,2.43063 1.61735,4.39404 2.1685,9.96653 0.3775,3.81678 0.77617,7.02644 0.88593,7.13259 0.34656,0.33514 10.79379,3.25822 33.55943,9.38977 43.07694,11.60205 46.02798,12.28738 45.98729,10.67984 z"
     id="path2651" />
  <path
     style="fill:#ffffff;fill-opacity:1;stroke-width:2.53186"
     d="m 411.70454,246.38896 c -7.05644,-1.96928 -8.69595,-2.628 -8.69595,-3.49383 0,-0.29708 5.10408,-18.87189 11.34241,-41.27734 24.06992,-86.44911 22.5555,-80.56823 22.5555,-87.58922 0,-6.25072 -0.58582,-8.43928 -3.17647,-11.86697 -3.24647,-4.295399 -6.39544,-6.278373 -13.41523,-8.447851 C 407.70821,89.817663 378.04241,81.740171 266.60982,51.862501 149.96301,20.586779 159.26641,23.184503 159.26641,21.889751 c 0,-1.189771 2.98955,-13.5454728 4.09215,-16.9126757 0.56138,-1.7144074 1.13709,-2.5557954 1.74876,-2.5557954 3.07211,0 133.70493,34.6757431 241.93673,64.2207361 55.57406,15.17054 58.37975,15.998171 58.37975,17.220988 0,2.340032 -37.21629,141.418566 -42.81837,160.013686 -1.60495,5.32737 -1.17158,5.2275 -10.90089,2.51227 z"
     id="path2653" />
  <path
     style="fill:#ffffff;fill-opacity:1;stroke-width:2.53186"
     d="m 201.77332,196.04353 c -8.34282,-2.188 -64.41266,-17.23605 -67.06854,-17.99989 l -2.77011,-0.79669 -0.20384,-6.56899 c -0.18849,-6.07397 -0.33264,-6.83255 -1.91297,-10.06639 -2.30632,-4.71947 -5.71942,-8.45039 -10.04258,-10.97774 -1.97542,-1.15484 -3.70387,-2.28126 -3.841,-2.50314 -0.13714,-0.22189 3.15067,-13.07832 7.30622,-28.56984 4.15556,-15.49152 7.79116,-29.05472 8.07912,-30.140442 l 0.52357,-1.974042 6.59772,-0.178207 c 6.25233,-0.168878 6.7941,-0.274815 10.34873,-2.023603 4.62079,-2.273316 9.03282,-6.594673 11.48306,-11.247076 1.65373,-3.140025 1.90628,-3.380314 3.21894,-3.062726 2.03419,0.492154 55.72794,14.826112 65.887,17.589042 6.28208,1.708516 8.18004,2.409027 7.26384,2.680975 -0.68215,0.202476 -3.49983,0.996439 -6.26152,1.764362 -15.56658,4.328483 -29.34705,15.424427 -37.13638,29.901957 -7.59469,14.11576 -9.201,32.61782 -4.14885,47.78806 2.75689,8.27819 7.85165,16.85162 14.04956,23.64249 1.95677,2.14399 3.35656,3.87612 3.11063,3.84919 -0.24592,-0.0269 -2.26309,-0.52522 -4.4826,-1.1073 z"
     id="path2689" />
  <path
     style="fill:#ffffff;fill-opacity:1;stroke-width:2.53186"
     d="m 237.10035,182.78507 -4.75861,-1.41678 0.31843,-1.99136 c 0.17514,-1.09525 0.46103,-2.36297 0.63532,-2.81715 0.23835,-0.62113 -1.02824,-1.50081 -5.11043,-3.54935 -2.98502,-1.49796 -5.42731,-2.97659 -5.42731,-3.28585 0,-0.49551 2.36755,-9.39511 2.95618,-11.11223 0.17162,-0.50066 0.82927,-0.46452 2.804,0.15409 15.07492,4.72243 19.0284,5.39959 20.07768,3.43899 1.06509,-1.99014 0.1966,-2.93028 -3.91477,-4.23776 -13.22747,-4.20653 -16.89503,-9.94041 -13.88531,-21.70832 1.38481,-5.41455 2.72531,-7.90613 5.62847,-10.46159 2.47772,-2.18098 4.81571,-3.13995 9.08042,-3.72449 2.33833,-0.3205 2.46689,-0.43252 3.1027,-2.70341 0.36481,-1.30298 0.81168,-2.45489 0.99303,-2.5598 0.18136,-0.1049 2.62996,0.45139 5.44133,1.23621 l 5.11159,1.42695 v 2.50887 c 0,1.37988 0.24213,2.75218 0.53806,3.04956 0.29594,0.29738 2.53562,1.53891 4.97708,2.75894 2.44146,1.22003 4.43901,2.50757 4.43901,2.8612 0,1.29178 -2.64787,10.22426 -3.19213,10.76853 -0.38867,0.38866 -2.99604,-0.13134 -8.50384,-1.69597 -9.55371,-2.71398 -11.77285,-2.8611 -12.54444,-0.83168 -0.85478,2.24825 0.43913,3.63585 4.4249,4.74532 12.02785,3.34805 16.36437,9.87779 13.60236,20.48185 -1.99729,7.6681 -5.42232,12.46748 -9.75611,13.67091 -1.1307,0.31398 -3.66324,0.57222 -5.62786,0.57387 l -3.57204,0.003 -0.37667,2.00783 c -0.47569,2.53565 -1.21031,3.9228 -2.04879,3.86863 -0.3595,-0.0233 -2.79502,-0.67978 -5.41225,-1.45901 z"
     id="path2691" />
  <path
     style="fill:#ffffff;fill-opacity:1;stroke-width:2.53186"
     d=""
     id="path2693" />
  <path
     style="fill:#ffffff;fill-opacity:1;stroke-width:2.53186"
     d=""
     id="path2695" />
  <path
     style="fill:#ffffff;fill-opacity:1;stroke-width:2.53186"
     d="m 256.86652,118.02395 -3.28654,-1.04325 3.62704,-7.10541 c 1.99487,-3.90798 4.80197,-9.71892 6.23801,-12.913208 1.43604,-3.194289 2.6893,-5.572807 2.78504,-5.285596 0.0957,0.287211 -1.05083,6.444508 -2.54792,13.682884 -1.49709,7.23837 -2.72198,13.30934 -2.72198,13.49104 0,0.44152 -0.27239,0.38653 -4.09365,-0.82646 z"
     id="path2697" />
  <path
     style="fill:#ffffff;fill-opacity:1;stroke-width:2.53186"
     d="m 228.67643,199.88387 c 0,-1.35356 2.80846,-16.91809 3.1602,-17.51392 0.22345,-0.37851 2.01144,-0.0496 5.30014,0.97501 l 4.96293,1.5462 -5.98253,7.09593 c -7.73749,9.1775 -7.44074,8.86255 -7.44074,7.89678 z"
     id="path2699" />
  <path
     style="fill:#319aa9;fill-opacity:1;stroke-width:2.53186"
     d="m 331.71534,230.69162 c -2.25909,-0.45505 -69.50158,-18.35812 -72.63839,-19.33971 -0.76145,-0.23828 0.0321,-0.61147 2.71375,-1.27622 26.69876,-6.61833 45.2127,-29.28921 46.36889,-56.78011 0.75584,-17.97184 -5.80776,-34.49856 -18.64873,-46.95633 -2.90329,-2.81665 -3.29174,-3.38338 -2.18565,-3.18882 0.73984,0.13014 17.99146,4.67761 38.33693,10.1055 l 36.99178,9.86889 0.0132,4.08118 c 0.0165,5.10549 0.67465,8.00182 2.79937,12.31834 2.10384,4.27409 6.19749,8.46122 10.52083,10.76108 1.84059,0.97914 3.34655,1.91143 3.34655,2.07175 0,0.38939 -13.74004,51.57589 -15.17855,56.54548 l -1.12919,3.90095 h -4.98071 c -8.15433,0 -14.36003,2.59388 -19.13445,7.99788 -2.52911,2.86261 -5.29993,7.44892 -5.30734,8.78481 -0.006,1.11134 -0.48038,1.38892 -1.88827,1.10533 z"
     id="path2701" />
  <path
     style="fill:#319aa9;fill-opacity:1;stroke-width:2.53186"
     d="m 168.6825,186.89579 c -19.82759,-5.33782 -36.12844,-9.78089 -36.22411,-9.87349 -0.0957,-0.0926 -0.34936,-3.17557 -0.56376,-6.85104 -0.33588,-5.75803 -0.59821,-7.10859 -1.89589,-9.76098 -1.94483,-3.97508 -6.57292,-8.95175 -10.59936,-11.39769 -2.87138,-1.74427 -3.14782,-2.07029 -2.85875,-3.37146 1.11521,-5.01969 15.27906,-58.35763 15.5805,-58.67271 0.104,-0.10871 3.30208,-0.370885 7.10684,-0.582609 6.2225,-0.346266 7.20989,-0.542705 9.82457,-1.954593 4.09091,-2.209032 9.08012,-7.050461 11.25632,-10.922917 1.01726,-1.810151 2.1418,-3.291184 2.49899,-3.291184 0.76457,0 70.35433,18.535483 72.31866,19.262335 1.22352,0.452734 1.06177,0.573459 -1.88322,1.405547 -13.10572,3.702941 -20.9452,8.092678 -29.36634,16.443761 -6.82918,6.77237 -11.21355,13.70655 -14.4269,22.81709 -2.32152,6.582 -3.28053,12.6921 -3.28053,20.90107 0,15.42716 4.63106,27.78225 15.20568,40.56681 2.29647,2.7764 3.99136,5.03432 3.76643,5.01759 -0.22493,-0.0167 -16.63154,-4.39772 -36.45913,-9.73553 z"
     id="path6539" />
  <path
     style="fill:#319aa9;fill-opacity:1;stroke-width:2.53186"
     d="m 236.30812,455.41377 c -6.15855,-0.54789 -14.3564,-2.46344 -23.23549,-5.4293 -6.90744,-2.30728 -38.0935,-17.63589 -74.2994,-36.51972 l -15.91965,-8.30318 -0.35673,-48.38046 c -0.1962,-26.60925 -0.35673,-59.6041 -0.35673,-73.3219 v -24.94144 l 9.5506,0.28621 c 49.6552,1.48801 51.95718,1.62698 63.20221,3.81535 18.84124,3.66665 37.78217,12.12296 69.02658,30.81738 l 8.60899,5.15101 9.41609,0.16455 c 35.59811,0.62207 51.48662,1.21653 54.20411,2.02804 3.66961,1.09584 9.10448,5.24262 11.08815,8.4602 1.38241,2.24231 1.56905,3.04525 1.56905,6.7501 0,4.77771 -0.523,6.10843 -3.91258,9.95521 -4.52799,5.13874 -13.39317,10.2334 -23.93922,13.75743 l -4.84256,1.61818 -25.55795,0.45482 c -25.13982,0.44737 -25.59958,0.47512 -28.10208,1.69605 -2.86119,1.39592 -5.2765,4.15018 -6.94276,7.91705 -1.52761,3.45341 -1.27095,11.72933 0.4673,15.06771 1.24424,2.38962 4.09401,5.18512 7.3077,7.16852 l 2.05455,1.26802 19.19891,-0.28043 c 20.52119,-0.29974 28.62797,-0.97897 40.32822,-3.37889 14.14946,-2.9023 24.56094,-7.85624 34.27347,-16.30785 7.70915,-6.70831 11.90064,-12.75295 17.27284,-24.90952 l 3.08976,-6.99172 21.03511,-10.52272 c 11.56932,-5.78751 29.75173,-14.76939 40.40536,-19.95974 l 19.37024,-9.437 9.38543,-0.41774 9.38544,-0.41775 4.60418,2.38174 c 11.82089,6.11494 17.24865,13.74244 17.24865,24.23913 0,8.68584 -2.7264,15.45782 -8.54686,21.22924 -12.18783,12.0851 -73.38803,51.66164 -114.23632,73.87357 -22.3047,12.12855 -63.7977,33.07109 -82.26266,41.51999 -8.21598,3.75933 -17.03693,6.82741 -23.91159,8.31687 -9.16276,1.98519 -23.83193,2.63618 -35.67036,1.58299 z"
     id="path6541" />
  <path
     style="fill:#319aa9;fill-opacity:1;stroke-width:2.53186"
     d="m 8.6643397,340.76432 c 0.03044,-27.6159 0.2120356,-60.79368 0.4035467,-73.72839 l 0.348202,-23.51765 2.3911196,-2.43603 2.391119,-2.43603 46.034479,0.32307 46.034474,0.32307 2.49746,2.49394 2.49745,2.49394 0.27648,33.44839 0.27647,33.4484 -1.15974,1.0472 c -0.97106,0.87682 -72.796097,56.33275 -95.186112,73.49296 l -6.8602928,5.25788 z"
     id="path6543" />
  <path
     style="fill:#319aa9;fill-opacity:1;stroke-width:2.53186"
     d="M 40.623696,423.74466 C 13.747603,423.45524 13.718869,423.45372 12.010624,422.23525 9.3109782,420.30963 8.9395004,418.33373 8.9070442,405.72716 l -0.029018,-11.27104 12.3754308,-9.59616 c 37.170495,-28.82278 88.631243,-68.50068 89.023783,-68.64022 0.24884,-0.0885 0.55304,22.9137 0.676,51.11591 l 0.22357,51.27674 -2.70542,2.82483 -2.70541,2.82482 -19.119586,-0.11384 c -10.515775,-0.0626 -31.225988,-0.24421 -46.022698,-0.40354 z"
     id="path6545" />
  <path
     style="fill:#319aa9;fill-opacity:1;stroke-width:2.53186"
     d="m 366.68939,265.28679 c -3.55121,-0.97436 -30.18529,-8.11406 -59.18684,-15.866 -161.6097,-43.19732 -218.290975,-58.53018 -226.524189,-61.27707 -3.844845,-1.28278 -4.32236,-1.59084 -4.471768,-2.88488 -0.38033,-3.29406 38.842197,-150.936667 40.551797,-152.646264 0.49296,-0.492963 18.15975,4.112671 103.27808,26.924029 58.42895,15.658715 74.64573,20.009195 90.66348,24.322306 6.06665,1.633572 17.44667,4.695667 25.28892,6.80465 82.88153,22.288989 80.70933,21.669889 80.70933,23.003099 0,1.00443 -9.11157,37.01243 -14.26176,56.36099 -13.64512,51.26293 -22.84445,84.9856 -25.32946,92.85201 -1.61385,5.10878 -1.20535,5.01703 -10.71759,2.40713 z m -33.40996,-33.43722 c 0.46476,-0.17834 2.15169,-2.18902 3.74874,-4.46818 5.89487,-8.41261 10.76514,-11.48213 19.66769,-12.39571 3.04371,-0.31234 5.98483,-0.56789 6.53584,-0.56789 1.11357,0 1.76708,-1.90725 6.09924,-17.80051 3.54,-12.98706 11.6171,-44.22906 11.6171,-44.93462 0,-0.33212 -1.39224,-1.52762 -3.09386,-2.65667 -8.19345,-5.43644 -11.92432,-11.23916 -13.06834,-20.32557 -0.40943,-3.25185 -0.99764,-5.66446 -1.53268,-6.28649 -0.47755,-0.55517 -2.56317,-1.50059 -4.63471,-2.10093 -11.61885,-3.36717 -71.51765,-19.07625 -75.28569,-19.74445 l -2.10923,-0.37405 1.11845,1.55673 c 0.61514,0.85619 3.45423,4.09906 6.30907,7.20636 8.82281,9.60305 12.98799,16.8678 16.03217,27.96267 0.92645,3.37655 1.11212,5.62174 1.1138,13.46812 0.002,8.44382 -0.14234,9.95533 -1.39597,14.63842 -4.31021,16.10126 -15.45671,30.23302 -29.98933,38.02109 -2.21951,1.18944 -7.63547,3.37507 -12.03548,4.85696 -4.40002,1.48189 -8.11321,2.80753 -8.25154,2.94586 -0.13833,0.13833 0.19295,0.48664 0.73618,0.77401 2.74933,1.4544 73.61176,20.49857 76.40691,20.53424 0.64165,0.008 1.54689,-0.13104 2.01164,-0.30939 z M 233.14658,196.67842 c 5.37734,-5.65067 11.18632,-12.9519 12.5052,-15.71763 l 0.92889,-1.9479 4.09589,-0.19221 c 4.95019,-0.23231 7.67765,-1.48835 10.10393,-4.65304 2.69494,-3.51512 4.04295,-7.73267 4.35026,-13.61071 0.51234,-9.79974 -1.79674,-13.02383 -12.55216,-17.52614 -2.45679,-1.02843 -4.75329,-2.21497 -5.10334,-2.63676 -1.03659,-1.24901 3.66207,-0.96972 11.09684,0.6596 7.73479,1.69508 9.1044,1.52368 10.27849,-1.2863 1.14787,-2.74724 2.02005,-7.78829 1.61559,-9.33791 -0.21936,-0.84047 -1.75692,-2.21377 -4.38387,-3.9155 -3.86834,-2.50592 -4.04601,-2.71095 -4.04601,-4.66919 0,-1.12649 1.3317,-9.08312 2.95934,-17.6814 1.62764,-8.598281 2.95934,-16.049102 2.95934,-16.557377 0,-1.838935 -1.29062,0.399037 -8.0275,13.919907 -6.57882,13.20365 -6.82574,13.60426 -8.77912,14.2443 -1.10546,0.36221 -2.92142,1.60649 -4.03547,2.76507 -1.44856,1.50646 -3.04825,2.44342 -5.6158,3.28925 -8.44515,2.78209 -12.26579,9.63573 -12.27852,22.02584 -0.007,6.93049 1.9581,9.26191 11.8325,14.03738 6.07546,2.93822 6.14994,2.99605 4.07671,3.1655 -1.16149,0.0949 -5.39873,-0.58178 -9.41609,-1.5038 -4.01735,-0.92203 -7.83155,-1.78684 -8.476,-1.92179 -0.64445,-0.13496 -1.54639,0.12928 -2.00432,0.58721 -0.99728,0.99728 -2.40461,5.44712 -2.84521,8.99626 -0.38707,3.11788 0.15541,3.84711 5.35495,7.1984 l 3.6382,2.34495 -0.32212,2.28626 c -0.17716,1.25745 -1.02744,6.48907 -1.8895,11.62583 -1.72631,10.28661 -1.78176,10.83777 -1.09046,10.83777 0.2623,0 2.54351,-2.17164 5.06936,-4.82587 z m -22.76426,2.1565 c 0,-0.28442 -1.14401,-1.91878 -2.54224,-3.63192 -11.97111,-14.66724 -14.46766,-18.72034 -17.82703,-28.94178 -0.72107,-2.194 -0.88398,-5.07261 -0.88307,-15.6038 0.001,-12.70939 0.0245,-12.97956 1.47908,-17.09307 5.80245,-16.40877 17.72041,-30.07135 31.78482,-36.437672 1.82776,-0.827351 6.22875,-2.392526 9.77996,-3.478169 10.66762,-3.261211 10.91369,-3.427042 7.12932,-4.804502 -9.62487,-3.503328 -72.92298,-20.241077 -76.54685,-20.241077 -0.88643,0 -1.91682,0.79148 -3.32724,2.555796 -4.20838,5.264297 -9.00458,9.602864 -12.53859,11.34221 -2.96746,1.460505 -4.47697,1.810293 -9.95415,2.30661 -3.55094,0.32177 -6.51873,0.643011 -6.5951,0.713868 -0.59728,0.55416 -15.02186,56.452056 -15.5365,60.206796 -0.32452,2.36761 -0.31008,2.39372 2.56291,4.63219 4.97465,3.876 9.04606,8.19751 10.47533,11.11881 1.06139,2.16942 1.54677,4.43894 2.12173,9.92088 0.41002,3.90939 0.81479,7.17201 0.89947,7.25029 0.31597,0.29203 8.34454,2.52662 31.89964,8.87861 42.6303,11.4959 47.61851,12.68024 47.61851,11.30593 z"
     id="path6547" />
  <path
     style="fill:#319aa9;fill-opacity:1;stroke-width:2.53186"
     d="m 411.88661,246.1428 c -6.88618,-2.01627 -8.33996,-2.63181 -8.33996,-3.53118 0,-0.85527 1.90828,-7.83398 17.41991,-63.70594 16.33129,-58.82433 16.04815,-57.67834 16.00561,-64.78214 -0.0401,-6.6973 -0.5553,-8.73313 -3.09483,-12.22958 -2.12558,-2.926517 -4.66187,-4.966247 -8.02518,-6.453999 C 420.35545,93.008501 394.54585,85.894457 267.95497,51.917884 177.45139,27.62702 163.40535,23.798265 161.04912,22.776832 l -1.65232,-0.716282 1.50061,-6.456746 c 2.23752,-9.6275577 3.24598,-12.342042 4.65993,-12.5432675 0.64864,-0.09231 7.42822,1.4374649 15.06574,3.3995003 64.083,16.4625552 257.67232,68.5996072 277.80591,74.8180832 2.51544,0.776919 4.99725,1.5398 5.51514,1.695289 1.64314,0.493339 2.26286,-2.204898 -10.97293,47.775701 -15.77316,59.56217 -30.68938,114.11364 -31.74209,116.08692 -0.71058,1.33197 -3.00807,1.1615 -9.3425,-0.69323 z"
     id="path6549" />
</svg>
