<?xml version="1.0" encoding="UTF-8" standalone="no"?>
<svg
   shape-rendering="geometricPrecision"
   text-rendering="geometricPrecision"
   image-rendering="optimizeQuality"
   fill-rule="evenodd"
   clip-rule="evenodd"
   viewBox="0 0 512 467.038"
   version="1.1"
   id="svg834"
   sodipodi:docname="invoices-icon.svg"
   inkscape:version="1.2.2 (b0a8486541, 2022-12-01)"
   xmlns:inkscape="http://www.inkscape.org/namespaces/inkscape"
   xmlns:sodipodi="http://sodipodi.sourceforge.net/DTD/sodipodi-0.dtd"
   xmlns="http://www.w3.org/2000/svg"
   xmlns:svg="http://www.w3.org/2000/svg">
  <defs
     id="defs838" />
  <sodipodi:namedview
     id="namedview836"
     pagecolor="#ffffff"
     bordercolor="#000000"
     borderopacity="0.25"
     inkscape:showpageshadow="2"
     inkscape:pageopacity="0.0"
     inkscape:pagecheckerboard="0"
     inkscape:deskcolor="#d1d1d1"
     showgrid="false"
     inkscape:zoom="1.8585212"
     inkscape:cx="256.11761"
     inkscape:cy="233.519"
     inkscape:window-width="1920"
     inkscape:window-height="1051"
     inkscape:window-x="1920"
     inkscape:window-y="0"
     inkscape:window-maximized="1"
     inkscape:current-layer="svg834" />
  <path
     fill="#2D2222"
     fill-rule="nonzero"
     d="M16.725 230.27h86.559c9.2 0 16.725 7.536 16.725 16.721v1.713l12.05-.014c63.732-.22 80.085-.266 144.203 39.975h52.866l.606.039c8.199.556 15.303 3.464 20.534 7.766 4.121 3.387 7.117 7.671 8.624 12.395 1.539 4.823 1.532 10.061-.369 15.239-2.039 5.542-6.262 11.001-13.1 15.714-10.245 7.5-22.033 11.036-34.651 12.373-12.143 1.284-25.048.51-38.085-.653-4.146-.202-6.802 1.437-7.954 3.646a6.496 6.496 0 00-.727 2.848 6.682 6.682 0 00.606 2.936c1.092 2.366 3.823 4.231 8.313 4.249l.329.014c3.377.248 7.065-.117 10.654-.465 2.851-.28 5.663-.557 8.494-.56 15.522-.011 29.622-1.486 41.659-5.965 11.589-4.312 21.384-11.505 28.832-23.02l7.982-18.636a4.658 4.658 0 012.235-2.362l80.598-39.96.61-.248c13.81-4.558 26.473-3.164 36.382 1.893 6.501 3.313 11.824 8.221 15.519 14.076 3.709 5.866 5.784 12.707 5.781 19.859-.004 10.115-4.146 20.807-13.654 30.198l-.535.454c-29.244 21.285-58.941 40.726-89.053 58.412-30.027 17.636-60.374 33.478-91.007 47.61-45.933 27.828-91.851 26.888-137.745.007l-59.997-30.928c-.011 9.196-7.543 16.7-16.725 16.7H16.725C7.539 432.296 0 424.767 0 415.575V246.991c0-9.181 7.536-16.721 16.725-16.721z"
     id="path816" />
  <path
     fill="#DBA47B"
     fill-rule="nonzero"
     d="M121.147 258.074v147.578l63.37 32.68c42.858 25.183 85.713 26.094 128.532.092l.567-.312a1029.572 1029.572 0 0090.411-47.269c29.63-17.406 58.983-36.62 88.021-57.739 7.376-7.401 10.603-15.607 10.603-23.261 0-5.333-1.56-10.461-4.347-14.873-2.795-4.429-6.862-8.164-11.852-10.707-7.774-3.964-17.828-5.032-28.967-1.429l-78.68 39.011-7.444 17.373-.365.677c-8.681 13.605-20.119 22.062-33.673 27.106-13.22 4.922-28.381 6.539-44.921 6.553-2.27 0-4.909.263-7.579.525-4.057.394-8.206.802-12.264.486-8.525-.146-13.99-4.351-16.451-9.675a15.948 15.948 0 01-1.45-7.061 15.935 15.935 0 011.79-6.972c2.71-5.198 8.345-9.078 16.679-8.667l.184.018c12.579 1.128 25.006 1.887 36.51.67 11.075-1.17 21.332-4.213 30.084-10.625l.128-.089c5.167-3.539 8.284-7.447 9.695-11.288 1.157-3.149 1.174-6.308.256-9.188-.951-2.983-2.915-5.745-5.653-7.997-3.781-3.107-9.033-5.221-15.203-5.643h-54.189a4.792 4.792 0 01-2.493-.734c-62.813-39.542-78.421-39.485-140.387-39.276l-10.912.036z"
     id="path818" />
  <path
     fill="#43494C"
     d="M16.725 237.402h86.559c5.277 0 9.593 4.316 9.593 9.589v168.584c0 5.277-4.316 9.589-9.593 9.589H16.725c-5.277 0-9.593-4.312-9.593-9.589V246.991c0-5.273 4.316-9.589 9.593-9.589z"
     id="path820" />
  <path
     fill="#34393E"
     d="M112.877 312.04v103.534c0 5.278-4.317 9.594-9.594 9.594H16.726c-5.278 0-9.594-4.316-9.594-9.594v-21.535l105.745-81.999z"
     id="path822" />
  <path
     fill="#427D2A"
     d="M163.428 0l304.327 81.544-45.249 168.871-21.549-5.67 34.706-123.517.454-1.463c2.946-10.943-3.542-22.205-14.485-25.151L157.099 23.621 163.428 0z"
     id="path824" />
  <path
     fill="#427D2A"
     d="M115.539 30.105L419.87 111.65l-42.331 157.984-304.331-81.546z"
     id="path826" />
  <path
     fill="#87CC71"
     d="M363.837 122.959c-3.31 11.708 4.198 25.113 16.349 28.526l-16.749 62.507c-12.797-3.602-26.2 3.907-30.098 17.868l-202.471-54.252c3.602-12.797-3.909-26.203-16.057-29.615l16.748-62.507c12.85 3.6 26.26-3.901 29.864-16.764l202.414 54.237z"
     id="path828" />
  <path
     fill="#427D2A"
     d="M202.84 109.26c22.89-24.524 61.319-25.847 85.843-2.957 24.524 22.887 25.846 61.319 2.957 85.842-22.887 24.524-61.32 25.847-85.843 2.957-24.523-22.889-25.847-61.319-2.957-85.842z"
     id="path830" />
  <path
     fill="#fff"
     fill-rule="nonzero"
     d="M233.579 175.421c-.77-.266-1.229-.474-1.781-.722l-3.105-1.328-1.904-.869a47.564 47.564 0 01-1.825-.903 42.403 42.403 0 01-1.741-.953l-.705-.407 3.342-12.473 3.451 1.233 2.548.847 2.685.849 2.73.823 2.661.769 2.483.678a23.5 23.5 0 002.004.454c.597.104 1.142.165 1.634.184.446.018.848-.009 1.201-.076.303-.058.567-.152.787-.279.187-.108.346-.252.47-.429.145-.207.261-.471.345-.786l.221-.824c.176-.658.093-1.195-.248-1.606a3.056 3.056 0 00-.747-.649 3.688 3.688 0 00-1.018-.428l-3.64-.975c-2.741-.734-5.09-1.694-7.041-2.874-1.989-1.203-3.556-2.634-4.701-4.288-1.168-1.698-1.842-3.711-2.018-6.039-.171-2.265.125-4.828.89-7.683l.607-2.267c.708-2.643 1.737-4.863 3.08-6.656 1.366-1.824 3.056-3.196 5.062-4.112 1.452-.661 2.792-1.162 4.296-1.432 1.27-.227 2.641-.285 4.271-.128l1.483-5.533 11.502 3.082-1.423 5.31c1.862.662 3.266 1.322 5.038 2.158l.921.428c.769.358 1.532.73 2.284 1.109.706.353 1.383.706 2.021 1.055l.732.4-3.346 12.489-1.084-.395c-1.07-.389-2.163-.772-3.262-1.14a195.69 195.69 0 00-3.681-1.199 195.411 195.411 0 00-3.704-1.129 143.98 143.98 0 00-3.385-.948 22.42 22.42 0 00-1.757-.403 15.851 15.851 0 00-1.565-.216 4.574 4.574 0 00-1.174.042c-.31.057-.592.156-.838.298-.206.119-.39.295-.541.52-.177.264-.323.606-.434 1.021l-.184.686c-.118.442-.155.833-.108 1.166.042.309.157.592.34.845.196.272.491.522.88.745.436.248.992.466 1.665.646l4.532 1.215c1.666.446 3.167 1.023 4.499 1.724 1.346.709 2.507 1.548 3.481 2.51 1.954 1.932 3.213 4.188 3.773 6.76.277 1.267.39 2.579.338 3.931a18.676 18.676 0 01-.637 4.107l-.607 2.267c-.599 2.236-1.334 4.176-2.197 5.813-.881 1.67-1.903 3.021-3.061 4.049a12.31 12.31 0 01-3.846 2.34c-1.4.529-2.916.808-4.535.836l-.414.005c-1.58.029-2.724.051-4.483-.22l-1.604 5.988-11.503-3.082 1.59-5.931z"
     id="path832" />
  <path
     style="fill:#0000ff;stroke-width:2.57638"
     d="M 225.30614,228.57594 C 142.49313,206.33742 74.476574,188.06542 74.158239,187.9715 73.813696,187.86985 82.11818,155.94228 94.677406,109.08313 106.91398,63.427805 116.01078,30.453341 116.33587,30.574621 c 0.30828,0.115009 68.4398,18.384424 151.40338,40.598701 82.96358,22.214276 151.02455,40.551698 151.2466,40.749818 0.22206,0.19812 -9.03309,35.58382 -20.56699,78.6349 -15.12452,56.45331 -21.18997,78.29934 -21.75717,78.36314 -0.43254,0.0486 -68.54254,-18.1067 -151.35555,-40.34524 z m 108.68352,2.46358 c 0,-1.80991 3.53835,-7.70058 6.26081,-10.42305 5.1764,-5.17639 12.8151,-7.96025 19.31061,-7.03756 1.74547,0.24795 3.39047,0.46255 3.65555,0.4769 0.26508,0.0143 4.13701,-13.6118 8.60429,-30.28033 4.46728,-16.66854 8.2622,-30.74714 8.43317,-31.28579 0.24759,-0.7801 -0.41957,-1.32116 -3.27898,-2.65924 -4.67849,-2.18933 -8.83133,-6.35296 -11.26445,-11.2937 -1.77127,-3.59679 -1.88604,-4.17145 -1.96825,-9.85544 l -0.0873,-6.03593 -37.10669,-9.95646 c -20.40868,-5.47605 -38.97153,-10.4521 -41.25076,-11.05788 l -4.14408,-1.10141 1.91633,1.46676 c 1.05399,0.80672 3.94729,3.42253 6.42958,5.8129 23.99511,23.10667 24.19321,61.82678 0.43727,85.46828 -9.04771,9.00414 -20.2897,14.91852 -32.15799,16.91827 l -3.87652,0.65317 24.30238,6.51352 c 13.36631,3.58243 30.83161,8.28985 38.81177,10.46093 15.6453,4.25645 16.97325,4.50807 16.97325,3.21606 z M 207.3036,196.00866 c -8.39713,-7.12379 -15.46802,-18.54463 -18.4454,-29.79283 -7.95281,-30.04487 8.5113,-61.67757 37.6149,-72.269982 4.20896,-1.531874 11.17345,-3.137088 14.96258,-3.448651 1.24627,-0.10248 -11.95363,-3.855478 -38.60044,-10.974887 -22.2719,-5.950535 -40.74075,-10.811775 -41.04189,-10.802756 -0.30114,0.009 -1.32761,1.674622 -2.28106,3.701342 -4.34514,9.236384 -15.03373,15.052572 -24.60604,13.389364 -1.77469,-0.308361 -3.32407,-0.467444 -3.44304,-0.35352 -0.25675,0.245854 -16.39333,60.26094 -16.60874,61.77113 -0.11107,0.77876 0.43624,1.25335 2.18544,1.89503 5.15934,1.89265 10.51211,7.40182 12.84275,13.21797 0.99328,2.47877 1.21048,4.12644 1.22803,9.31582 l 0.0213,6.30444 38.8742,10.47224 c 21.38082,5.75974 39.31941,10.4991 39.86354,10.53193 0.5996,0.0362 -0.41128,-1.12853 -2.56615,-2.95664 z m 36.6085,-11.90371 c 0.12626,-0.37642 0.4976,-1.73154 0.82521,-3.01138 l 0.59566,-2.32698 h 3.82915 c 7.90358,0 12.1282,-3.77079 14.7098,-13.12957 3.36059,-12.1828 -0.71032,-18.9779 -13.32438,-22.24083 -3.88294,-1.00441 -4.71237,-1.562 -4.70087,-3.1602 0.0249,-3.45724 2.47436,-3.46357 13.12543,-0.0339 4.29309,1.38238 7.99862,2.30939 8.23448,2.06003 0.45505,-0.48104 3.27029,-10.74458 3.27029,-11.92246 0,-0.38213 -2.35217,-1.77688 -5.22704,-3.09946 -5.68693,-2.61626 -5.44416,-2.24894 -4.35491,-6.58886 0.34318,-1.36729 0.45127,-1.3254 -10.78063,-4.17801 -0.7068,-0.17952 -1.1081,0.39253 -1.69843,2.42099 l -0.77296,2.65605 -2.95552,0.35052 c -7.70885,0.91424 -11.91587,5.03338 -14.17922,13.88299 -3.22526,12.61063 0.59252,18.59374 14.3261,22.45147 1.70632,0.4793 3.34105,1.16796 3.63273,1.53034 0.67802,0.84238 -0.12436,3.03653 -1.27138,3.47668 -1.10443,0.42381 -7.07307,-1.02956 -15.04304,-3.66299 -3.46178,-1.14383 -6.36496,-2.00888 -6.45151,-1.92233 -0.19965,0.19965 -3.37711,11.92214 -3.39385,12.52081 -0.007,0.24495 2.38981,1.57409 5.3259,2.95365 2.9361,1.37955 5.4004,2.55523 5.47622,2.61262 0.0758,0.0574 -0.22312,1.30379 -0.66432,2.7698 -0.4412,1.46601 -0.69844,2.76921 -0.57163,2.89602 0.22652,0.22653 10.54443,3.25074 11.38135,3.33591 0.23531,0.0239 0.53113,-0.26444 0.65737,-0.64087 z"
     id="path3183" />
  <path
     style="fill:#0000ff;stroke-width:2.57638"
     d="m 411.46431,247.2366 c -8.55424,-2.27179 -9.83943,-2.75375 -9.7342,-3.6504 0.0667,-0.56818 8.03059,-29.12104 17.69755,-63.4508 17.4396,-61.9322 17.57469,-62.45181 17.36684,-66.79793 -0.45936,-9.60538 -5.81645,-16.087654 -15.77078,-19.083224 -5.17384,-1.556972 -259.31415,-69.769301 -261.7744,-70.261352 -0.85932,-0.171864 -1.5624,-0.566567 -1.5624,-0.877118 0,-0.836521 5.52584,-21.372287 5.94085,-22.0780917 0.53341,-0.90715326 303.07404,80.2635777 303.26354,81.3646817 0.22266,1.293843 -44.41221,167.162844 -45.02405,167.315224 -0.30114,0.075 -4.98247,-1.04145 -10.40295,-2.48099 z"
     id="path3185" />
  <path
     style="fill:#0000ff;stroke-width:2.57638"
     d="m 7.1308744,320.43844 c 0.00749,-41.82275 0.2256344,-73.87413 0.5111783,-75.1053 0.6061933,-2.61372 1.9915486,-4.5643 4.4112103,-6.21099 l 1.823382,-1.24089 46.582151,0.14585 46.582154,0.14584 1.67785,1.25978 c 0.92282,0.69288 2.15475,2.048 2.73762,3.01138 1.01777,1.68219 1.05977,3.09657 1.05977,35.68946 v 33.93786 l -52.288547,40.61839 c -28.7587,22.34012 -52.473334,40.63815 -52.6991876,40.66229 -0.2258537,0.0242 -0.4047651,-32.78701 -0.397581,-72.91367 z"
     id="path3187" />
  <path
     style="fill:#0000ff;stroke-width:2.57638"
     d="M 12.866815,424.13044 C 7.7298684,421.7533 7.1157114,419.77034 7.1263637,405.59601 L 7.134915,394.2173 20.60914,383.81434 c 7.410823,-5.72162 31.121609,-24.09477 52.690634,-40.82922 l 39.216416,-30.42627 0.13963,52.55274 c 0.15665,58.95884 0.44593,54.63465 -3.88598,58.08931 l -2.10378,1.67774 -45.804576,0.13264 c -43.579108,0.12619 -45.910981,0.0834 -47.994669,-0.88084 z"
     id="path3189" />
</svg>
