<?xml version="1.0" encoding="UTF-8" standalone="no"?>
<!-- Uploaded to: SVG Repo, www.svgrepo.com, Generator: SVG Repo Mixer Tools -->

<svg
   version="1.1"
   id="_x32_"
   width="800px"
   height="800px"
   viewBox="0 0 512 512"
   xml:space="preserve"
   sodipodi:docname="invoices-icon.svg"
   inkscape:version="1.2.2 (b0a8486541, 2022-12-01)"
   xmlns:inkscape="http://www.inkscape.org/namespaces/inkscape"
   xmlns:sodipodi="http://sodipodi.sourceforge.net/DTD/sodipodi-0.dtd"
   xmlns="http://www.w3.org/2000/svg"
   xmlns:svg="http://www.w3.org/2000/svg"><defs
   id="defs248" /><sodipodi:namedview
   id="namedview246"
   pagecolor="#ffffff"
   bordercolor="#000000"
   borderopacity="0.25"
   inkscape:showpageshadow="2"
   inkscape:pageopacity="0.0"
   inkscape:pagecheckerboard="0"
   inkscape:deskcolor="#d1d1d1"
   showgrid="false"
   inkscape:zoom="1.03"
   inkscape:cx="400"
   inkscape:cy="400"
   inkscape:window-width="1920"
   inkscape:window-height="1007"
   inkscape:window-x="0"
   inkscape:window-y="0"
   inkscape:window-maximized="1"
   inkscape:current-layer="_x32_" />
<style
   type="text/css"
   id="style229">
<![CDATA[
	.st0{fill:#000000;}
]]>
</style>
<g
   id="g243">
	<path
   className="st0"
   d="M379.828,384.969c-2.422,4.531-5.734,8.313-9.938,11.406c-4.234,3.063-9.266,5.375-15.141,6.891   c-2.578,0.641-5.25,1.109-7.984,1.484v17.094h-20.406v-16.766c-5.797-0.484-11.375-1.391-16.594-2.828   c-7.984-2.188-18.438-11.016-18.438-11.016c-0.906-0.516-1.484-1.438-1.609-2.469c-0.125-1.016,0.219-2.047,0.938-2.797   l10.234-10.219c1.109-1.094,2.813-1.297,4.141-0.5c0,0,7.641,6.656,13.453,8.25c5.797,1.563,11.531,2.375,17.281,2.375   c7.234,0,13.219-1.281,17.953-3.844c4.75-2.578,7.125-6.563,7.125-12c0-3.906-1.156-7-3.5-9.281   c-2.344-2.25-6.297-3.656-11.875-4.281l-18.313-1.563c-10.828-1.063-19.203-4.094-25.063-9.047   c-5.891-4.969-8.828-12.516-8.828-22.594c0-5.578,1.141-10.547,3.391-14.922c2.266-4.375,5.359-8.063,9.281-11.063   c3.922-3.016,8.484-5.281,13.656-6.781c2.188-0.625,4.453-1.047,6.766-1.422v-14.734h20.406v14.438   c4.766,0.469,9.297,1.234,13.516,2.375c7.141,1.969,14.672,7.844,14.672,7.844c0.938,0.5,1.578,1.422,1.734,2.469   s-0.188,2.094-0.922,2.844l-9.594,9.75c-1,1.031-2.594,1.313-3.891,0.625c0,0-5.688-4.031-10.594-5.313   c-4.891-1.281-10.047-1.938-15.469-1.938c-7.094,0-12.328,1.375-15.703,4.063c-3.391,2.719-5.078,6.281-5.078,10.625   c0,3.938,1.188,6.938,3.609,9.031c2.406,2.125,6.469,3.5,12.188,4.078l16.047,1.375c11.906,1.047,20.906,4.203,27.016,9.469   c6.094,5.281,9.141,12.969,9.141,23.047C383.438,375.156,382.234,380.438,379.828,384.969z"
   id="path231" />
	<path
   className="st0"
   d="M336.563,225.156c67.781,0,122.938,55.156,122.938,122.938s-55.156,122.938-122.938,122.938   s-122.922-55.156-122.922-122.938S268.781,225.156,336.563,225.156 M336.563,184.188c-90.531,0-163.891,73.375-163.891,163.906   S246.031,512,336.563,512c90.516,0,163.922-73.375,163.922-163.906S427.078,184.188,336.563,184.188z"
   id="path233" />
	<path
   className="st0"
   d="M144.391,0C71.016,0,11.516,28.969,11.516,64.719v34.563c0,35.75,59.5,64.719,132.875,64.719   c73.359,0,132.859-28.969,132.859-64.719V64.719C277.25,28.969,217.75,0,144.391,0z M144.391,26.875   c64.703,0,105.969,24.844,105.969,37.844s-41.266,37.844-105.969,37.844c-64.719,0-105.984-24.844-105.984-37.844   S79.672,26.875,144.391,26.875z"
   id="path235" />
	<path
   className="st0"
   d="M144.375,216c24.578,0,47.609-3.281,67.359-8.938c-19.016,16.719-34.578,37.375-45.563,60.563   c-7.063,0.563-14.344,0.906-21.797,0.906c-73.359,0-132.859-29.016-132.859-64.75v-40.625c0-0.656,0.5-1.25,1.156-1.313   c0.344-0.094,0.656,0.063,0.891,0.406c-0.156,0,0,0.469,0.922,2.688C27.344,194.125,80.625,216,144.375,216z"
   id="path237" />
	<path
   className="st0"
   d="M148.047,348.094c0,7.969,0.5,15.75,1.578,23.438c-1.734,0.094-3.453,0.094-5.25,0.094   c-73.359,0-132.859-28.938-132.859-64.656v-40.75c0-0.563,0.5-1.125,1.156-1.219c0.531-0.063,0.891,0.25,1.125,0.625   c-0.313-0.406-0.641-0.625,0.688,2.5c12.859,29.156,66.141,51.063,129.891,51.063c1.969,0,4.016,0,5.984-0.188   C148.781,328.516,148.047,338.188,148.047,348.094z"
   id="path239" />
	<path
   className="st0"
   d="M193.203,470.281c-15.078,2.969-31.547,4.516-48.828,4.516c-73.359,0-132.859-28.922-132.859-64.734v-40.656   c0-0.656,0.5-1.156,1.156-1.219c0.5-0.094,0.984,0.156,1.156,0.656c-0.344-0.406-0.734-0.813,0.656,2.375   c12.859,29.25,66.141,51.125,129.891,51.125c6.297,0,12.609-0.25,18.672-0.656C170.594,439.469,180.828,455.875,193.203,470.281z"
   id="path241" />
</g>
<path
   style="fill:#008080;stroke-width:4.56846"
   d="M 198.54369,740.65617 C 126.16833,734.88441 69.484119,714.72702 38.967051,683.90934 31.872304,676.74471 28.252724,671.76983 24.217896,663.63759 c -5.309051,-10.70046 -5.741208,-14.65765 -5.756943,-52.71526 -0.0079,-19.08981 0.362567,-34.70874 0.823244,-34.70874 0.460677,0 2.243168,2.85513 3.961092,6.34472 14.922269,30.31144 57.895725,55.66354 116.560541,68.76466 27.84425,6.21822 51.36987,8.59106 86.72672,8.74743 l 27.98886,0.12377 5.11168,10.67962 c 9.42979,19.7013 22.09769,39.98088 34.79548,55.70285 4.18124,5.17704 5.44086,7.37005 4.54961,7.92086 -1.30981,0.80951 -9.91881,2.18081 -28.10439,4.47667 -10.71295,1.35246 -61.61825,2.53624 -72.3301,1.682 z"
   id="path498"
   transform="scale(0.64)" /><path
   style="fill:#008080;stroke-width:4.56846"
   d="m 506.79612,798.84869 c -2.40292,-0.17965 -10.48544,-1.19254 -17.96117,-2.25087 -101.07183,-14.30866 -185.62893,-90.50996 -210.61431,-189.8017 -21.73078,-86.35801 2.23962,-176.30466 64.00599,-240.17646 72.89622,-75.38102 181.76387,-98.64216 279.13259,-59.64069 59.3063,23.7554 107.34828,69.03222 135.30098,127.51347 38.35447,80.24328 31.74263,175.60605 -17.2979,249.48814 -10.9188,16.44974 -19.11033,26.46996 -32.9912,40.35625 -42.81524,42.8319 -97.56263,68.54827 -157.82741,74.1359 -10.32675,0.95747 -31.4278,1.1475 -41.74757,0.37596 z m 41.8548,-63.87169 c 36.10263,-4.22316 71.041,-19.06338 99.30519,-42.18032 9.003,-7.36345 24.85909,-23.90091 31.87546,-33.24522 37.73884,-50.26013 48.46863,-115.90772 28.7756,-176.05631 C 684.36805,409.46139 617.04883,357.21704 539.1715,352.00139 482.58317,348.21152 429.07959,368.33262 389.32329,408.35482 327.483,470.60871 315.58997,567.53504 360.59696,642.46995 399.9305,707.95878 472.87422,743.84108 548.65092,734.977 Z"
   id="path500"
   transform="scale(0.64)" /><path
   style="fill:#008080;stroke-width:4.56846"
   d="m 510.67961,645.80845 v -12.92941 l -12.86408,-2.09707 c -10.93565,-1.7827 -14.17395,-2.74831 -21.60194,-6.44132 -11.22834,-5.58247 -22.22806,-13.92274 -22.6157,-17.14781 -0.22774,-1.89474 1.66261,-4.29026 9.33002,-11.82334 5.2886,-5.19595 10.11249,-9.44717 10.71977,-9.44717 0.60728,0 3.83596,2.01268 7.17484,4.47261 11.84328,8.72561 21.23648,11.74527 39.58333,12.72496 16.57544,0.88511 31.36004,-3.02823 38.03779,-10.0682 7.15536,-7.5435 7.67078,-21.76891 1.04151,-28.7449 -5.49973,-5.78736 -9.79675,-6.92372 -34.00076,-8.99159 -17.48567,-1.49388 -24.41701,-2.52195 -32.28051,-4.7879 -22.99271,-6.62558 -34.05554,-21.12524 -34.1064,-44.70207 -0.0602,-27.88673 16.9353,-46.42161 48.91223,-53.34262 l 2.6699,-0.57787 v -11.63198 -11.63199 h 15.53398 15.53398 v 11.43189 11.43189 l 9.79623,1.67165 c 10.74167,1.83298 18.4475,4.59571 26.73826,9.5863 6.78522,4.08435 10.06745,7.06891 10.06745,9.15442 0,1.68707 -14.6474,17.32116 -17.84734,19.04959 -1.44843,0.78236 -3.66569,0.0479 -10.67962,-3.53757 -10.23196,-5.2305 -19.4305,-7.24533 -33.31845,-7.29799 -20.46429,-0.0776 -30.78448,5.7044 -33.52805,18.78445 -2.33941,11.15322 3.0885,20.22194 13.96593,23.33366 2.85667,0.8172 14.3687,2.34609 25.58229,3.39752 23.10515,2.16644 32.52465,4.27058 42.43803,9.47992 15.92524,8.36848 23.13988,21.05509 23.36547,41.08708 0.17708,15.72485 -4.24358,26.59889 -15.20104,37.39191 -4.80702,4.73487 -9.1315,7.89592 -14.19469,10.37586 -6.92347,3.3911 -20.81667,7.57204 -25.16176,7.57204 -1.95337,0 -2.02271,0.4659 -2.02271,13.59223 v 13.59223 h -15.53398 -15.53398 z"
   id="path502"
   transform="scale(0.64)" /><path
   style="fill:#008080;stroke-width:4.56846"
   d="m 199.02913,418.29677 c -1.86894,-0.17849 -8.20389,-0.78076 -14.07767,-1.33838 -63.17584,-5.99756 -117.486153,-26.60017 -145.984409,-55.37915 -7.094747,-7.16463 -10.714327,-12.1395 -14.749155,-20.27175 -5.309051,-10.70046 -5.741208,-14.65764 -5.756943,-52.71526 -0.0088,-21.25636 0.342717,-34.70873 0.906929,-34.70873 0.506703,0 2.275951,2.83845 3.931661,6.30768 18.433515,38.62396 83.822907,68.67122 166.020847,76.28871 15.49725,1.43617 56.09103,1.42542 71.84466,-0.019 21.67951,-1.98778 57.52498,-8.15664 65.28632,-11.23551 0.93175,-0.36961 -3.46025,4.54171 -9.76001,10.91405 -20.4629,20.69867 -38.57771,45.26517 -51.09991,69.29946 l -6.37461,12.23499 -8.00648,0.62328 c -7.96083,0.6197 -45.69108,0.61944 -52.18123,-3.7e-4 z"
   id="path504"
   transform="scale(0.64)" /><path
   style="fill:#008080;stroke-width:4.56846"
   d="M 200,579.45072 C 128.55305,574.42816 69.940472,553.83054 39.055883,522.89181 32.099508,515.92323 28.291363,510.68266 24.217896,502.47254 18.908845,491.77208 18.476688,487.8149 18.460953,449.75728 c -0.0079,-19.0898 0.362567,-34.70874 0.823244,-34.70874 0.460677,0 2.243168,2.85513 3.961092,6.34473 21.67424,44.02663 101.689171,76.08976 193.114371,77.38371 l 17.81597,0.25215 -0.577,4.85437 c -2.31398,19.46788 -2.73781,28.92083 -2.15472,48.05825 0.3498,11.48058 0.893,22.51213 1.20712,24.51456 l 0.57112,3.64078 -14.42661,-0.16962 C 210.8609,579.83417 202.40291,579.61964 200,579.45072 Z"
   id="path506"
   transform="scale(0.64)" /><path
   style="fill:#008080;stroke-width:4.56846"
   d="M 196.67493,254.8568 C 139.69711,250.39875 92.49495,236.48961 58.252427,214.06761 45.096678,205.45323 30.81937,190.82171 25.469932,180.47181 c -6.58186,-12.73436 -6.994629,-15.82168 -6.994629,-52.31647 0,-36.491535 0.412608,-39.578762 6.992089,-52.316464 C 30.719999,65.669969 45.942418,50.043468 58.66734,41.757632 69.35524,34.798202 91.25208,24.225563 104.8387,19.464316 161.78253,-0.49087244 238.30083,-4.9828294 302.91262,7.8365167 c 48.09635,9.5425893 85.83879,26.8557313 108.73787,49.8800363 10.18387,10.23956 15.41381,18.255039 18.72046,28.691214 2.06186,6.507432 2.15263,8.301399 2.13707,42.233013 -0.0154,33.62933 -0.12216,35.748 -2.09239,41.5361 -3.39104,9.96211 -9.63625,19.37478 -19.18251,28.91152 -27.55305,27.52553 -78.55723,47.13614 -141.33021,54.3401 -15.47625,1.77609 -58.14586,2.60835 -73.22798,1.4283 z m 72.25711,-96.57954 c 45.41482,-5.44743 86.79077,-19.72716 109.7843,-37.88891 C 389.7713,111.65644 393.661,102.19763 389.52817,94.096597 385.24273,85.696449 370.92948,74.914924 352.55283,66.244753 299.51247,41.220105 216.66869,34.484701 148.54369,49.658306 104.1791,59.53971 64.639188,81.065295 60.136405,97.787359 c -1.536822,5.707311 0.908749,11.470681 7.752142,18.269131 21.658025,21.51578 72.238573,38.76433 127.742523,43.56167 15.23436,1.31674 57.60655,0.54163 73.30097,-1.3409 z"
   id="path508"
   transform="scale(0.64)" /></svg>
