<?xml version="1.0" encoding="UTF-8" standalone="no"?>
<svg
   version="1.1"
   id="Layer_1"
   x="0px"
   y="0px"
   viewBox="0 0 122.88 121.61"
   style="enable-background:new 0 0 122.88 121.61"
   xml:space="preserve"
   sodipodi:docname="playlists-icon.svg"
   inkscape:version="1.2.2 (b0a8486541, 2022-12-01)"
   xmlns:inkscape="http://www.inkscape.org/namespaces/inkscape"
   xmlns:sodipodi="http://sodipodi.sourceforge.net/DTD/sodipodi-0.dtd"
   xmlns="http://www.w3.org/2000/svg"
   xmlns:svg="http://www.w3.org/2000/svg"><defs
     id="defs972" /><sodipodi:namedview
     id="namedview970"
     pagecolor="#ffffff"
     bordercolor="#000000"
     borderopacity="0.25"
     inkscape:showpageshadow="2"
     inkscape:pageopacity="0.0"
     inkscape:pagecheckerboard="0"
     inkscape:deskcolor="#d1d1d1"
     showgrid="true"
     inkscape:zoom="7.0142258"
     inkscape:cx="61.446554"
     inkscape:cy="60.733717"
     inkscape:window-width="1920"
     inkscape:window-height="1051"
     inkscape:window-x="1920"
     inkscape:window-y="0"
     inkscape:window-maximized="1"
     inkscape:current-layer="Layer_1"><inkscape:grid
       type="xygrid"
       id="grid2431" /></sodipodi:namedview><style
     type="text/css"
     id="style963">.st0{fill-rule:evenodd;clip-rule:evenodd;}</style><g
     id="g967"><path
       class="st0"
       d="M73.12,0H88.6v5.17c38.74,8.87,43.17,27.47,20.7,56.79c2.39-29.09-0.54-35.33-20.7-36.68v73.54 c0.04,0.39,0.05,0.78,0.05,1.18c0,9.56-10.03,19.04-22.4,21.18c-12.37,2.14-22.4-3.88-22.4-13.44c0-13.04,17.91-24.36,29.26-20.37 L73.12,0L73.12,0z M5.69,73.78C2.55,73.78,0,71.23,0,68.09c0-3.14,2.55-5.69,5.69-5.69h47.63c3.14,0,5.69,2.55,5.69,5.69 c0,3.14-2.55,5.69-5.69,5.69H5.69L5.69,73.78z M5.69,46.14C2.55,46.14,0,43.59,0,40.44c0-3.14,2.55-5.69,5.69-5.69h47.63 c3.14,0,5.69,2.55,5.69,5.69c0,3.14-2.55,5.69-5.69,5.69H5.69L5.69,46.14z M5.69,18.5C2.55,18.5,0,15.95,0,12.8 c0-3.14,2.55-5.69,5.69-5.69h47.63c3.14,0,5.69,2.55,5.69,5.69c0,3.14-2.55,5.69-5.69,5.69H5.69L5.69,18.5z"
       id="path965" /></g><path
     style="fill:#0000ff;stroke-width:0.670853"
     d="M 4.5621571,45.925612 C 2.8847398,45.559699 1.3381732,44.313629 0.59593977,42.730028 0.25755212,42.008057 0.21385111,41.743605 0.21385111,40.417861 c 0,-1.367778 0.0361904,-1.570775 0.41937962,-2.352363 C 1.1688273,36.973047 2.2594826,35.882218 3.3503341,35.34796 l 0.8554045,-0.418945 24.9492964,-0.03952 24.949297,-0.03952 0.937214,0.298817 c 2.454629,0.782621 3.950141,2.980622 3.811859,5.602406 -0.141106,2.67531 -2.060363,4.788038 -4.749073,5.227801 -1.327643,0.217149 -48.5351922,0.16628 -49.5421749,-0.05338 z"
     id="path3276" /><path
     style="fill:#0000ff;stroke-width:0.670853"
     d="M 4.5975931,18.311691 C 3.0098904,17.99854 1.3175858,16.644941 0.61607668,15.127054 0.25561699,14.347112 0.21385111,14.101301 0.21385111,12.759783 c 0,-1.367826 0.036152,-1.57059 0.41909376,-2.350542 C 1.190803,9.2730287 2.2026923,8.2873275 3.3872944,7.7261746 L 4.348306,7.2709379 h 25.163148 25.163148 l 0.965931,0.4575393 c 1.168999,0.5537267 2.203713,1.5687282 2.765073,2.7123948 0.365086,0.743792 0.403451,0.964302 0.403451,2.318911 0,1.325745 -0.0437,1.590197 -0.38209,2.312168 -0.747633,1.595123 -2.360116,2.872596 -4.080159,3.232464 -0.909004,0.190181 -48.7863642,0.197184 -49.7492149,0.0073 z"
     id="path3278" /><path
     style="fill:#0000ff;stroke-width:0.670853"
     d="m 58.951624,121.43987 c -1.099556,-0.0982 -3.621769,-0.6214 -4.713859,-0.97789 -5.113289,-1.66915 -8.729224,-5.14954 -9.916235,-9.54454 -0.455863,-1.68786 -0.4563,-4.77875 -9.28e-4,-6.5581 1.5627,-6.106158 6.626553,-11.780871 13.490483,-15.117856 4.153402,-2.019226 8.239114,-2.888065 11.823933,-2.51439 0.896699,0.09347 2.035457,0.296933 2.530572,0.45214 0.495114,0.155206 0.916246,0.283021 0.935849,0.284033 0.0196,0.001 0.03564,-19.661771 0.03564,-43.695072 V 0.0712837 h 7.695424 7.695424 l 0.03886,2.5816199 0.03886,2.58162 2.708781,0.6796611 c 15.727062,3.9460837 25.565162,9.8079553 29.434652,17.5381543 1.38699,2.77084 1.85389,4.657151 1.95851,7.912491 0.0915,2.846292 -0.11875,4.636208 -0.89324,7.605381 -1.26099,4.834314 -4.22449,10.911743 -8.21399,16.84493 -1.24269,1.848144 -4.13786,5.872615 -4.17951,5.809799 -0.0131,-0.0197 0.0566,-1.094382 0.15468,-2.388181 1.41231,-18.619553 -0.12791,-26.348961 -6.04848,-30.353597 -2.69088,-1.820094 -7.488628,-3.120664 -12.925459,-3.503821 -0.705709,-0.04973 -1.459534,-0.123821 -1.675167,-0.164638 l -0.39206,-0.07421 v 38.132362 c 0,42.014085 0.06287,39.031295 -0.878914,41.701485 -0.579059,1.64179 -1.045149,2.54196 -2.246061,4.33789 -5.267915,7.878 -16.481935,13.01826 -26.457763,12.12764 z"
     id="path3280" /><path
     style="fill:#0000ff;stroke-width:0.670853"
     d="M 4.9523055,73.636004 C 3.1624934,73.406756 1.3921519,72.086874 0.59593977,70.388106 0.25755212,69.666135 0.21385111,69.401683 0.21385111,68.075938 c 0,-1.328868 0.0432714,-1.589299 0.38536405,-2.319322 0.49212894,-1.0502 1.65676254,-2.214604 2.75111894,-2.750579 L 4.2057386,62.587093 H 29.511454 54.817169 l 0.855405,0.418944 c 1.09166,0.534654 2.182885,1.625879 2.717538,2.717539 0.382637,0.781271 0.418945,0.985138 0.418945,2.352362 0,1.315366 -0.04492,1.592078 -0.370269,2.281079 -0.845384,1.79027 -2.490287,2.993422 -4.477023,3.274686 -1.166595,0.165156 -47.7217201,0.169242 -49.0094595,0.0043 z"
     id="path3282" /></svg>
